<?xml version="1.0" encoding="utf-8"?>
<!-- Generator: Adobe Illustrator 28.2.0, SVG Export Plug-In . SVG Version: 6.00 Build 0)  -->
<svg version="1.1" id="Layer_1" xmlns="http://www.w3.org/2000/svg" xmlns:xlink="http://www.w3.org/1999/xlink" x="0px" y="0px"
	 viewBox="0 0 914 431" style="enable-background:new 0 0 914 431;" xml:space="preserve">
<style type="text/css">
	.st0{clip-path:url(#SVGID_00000183949336694658660200000005886720389470129837_);}
	.st1{fill:#FFFFFF;}
	.st2{fill:#E5ECF6;}
	.st3{fill:none;stroke:#000000;stroke-miterlimit:2;}
	.st4{fill:none;stroke:#444444;stroke-miterlimit:2;}
	.st5{fill:#00441B;stroke:#444444;}
	.st6{fill:#5AB769;stroke:#444444;}
	.st7{fill:#B3E1AD;stroke:#444444;}
	.st8{fill:#E6F5E1;stroke:#444444;}
	.st9{fill:url(#SVGID_00000162325406641047746360000007026564357969699727_);}
	.st10{fill:#2A3F5F;}
	.st11{font-family:'Verdana';}
	.st12{font-size:13.9968px;}
	.st13{fill:none;}
	.st14{font-family:'MyriadPro-Regular';}
	.st15{font-size:12px;}
</style>
<g>
	<g>
		<defs>
			<rect id="SVGID_1_" x="80" y="73.6" width="798" height="262.7"/>
		</defs>
		<clipPath id="SVGID_00000082345957325462861750000014829852215667444122_">
			<use xlink:href="#SVGID_1_"  style="overflow:visible;"/>
		</clipPath>
		<g style="clip-path:url(#SVGID_00000082345957325462861750000014829852215667444122_);">
			<g>
				<rect x="80" y="73.6" class="st1" width="798" height="262.7"/>
			</g>
			<g>
				<path class="st2" d="M806.8,252.9l1.2,3.1l0.6,1.2l-17.5,7.2l-8.7-2.2l-4.4-6.9l8.7-0.9h1.2l2.5-4.1l12.5,0.3l15.6-5.3
					L806.8,252.9z M675,252l-2.5,5l-25,1.6l0.6-2.8l-21.2-3.4l3.1-7.5l9.4,5.9l13.7-0.9l12.5,1.2v2.8L675,252z M474.5,202.6
					l13.7-1.6l-6.2,13.4l2.5,5.6l-3.7,8.7l-13.1-6.6l-8.7-1.9l-24.4-8.7l2.5-8.7l20,1.6L474.5,202.6z M369.6,154.8l8.7-5.6
					l10.6,12.5l-2.5,22.8l-8.1-0.9l-6.9,5.6l-6.2-4.4l-1.2-21.2l-3.7-9.7L369.6,154.8z M370.2,124.9l11.2-6.9l3.1,15l-5.6,13.4
					l-8.1-3.4l-3.7-11.9L370.2,124.9z M80,282.5l6-2.7l13.1-7.2l11.2-18.1l5.6-10.6h12.5l10.6,7.5l16.2-1.2l18.1,3.7l7.5,0.3
					l16.9-9.4l18.7-3.1l10.6-7.2l16.9-5.3l29.4-3.1l28.7-1.2l8.7,2.5l16.2-6.9h18.7l6.9,4.1l11.9-1.2l19.4-6.9l11.9,1.9l-0.6,8.7
					l15-6.2l1.2,3.4l-8.7,8.4v8.1l5.6,4.1l-1.9,15l-11.9,8.7l3.7,9.7l8.7,0.3l4.4,8.1l6.9,2.8l20,5.9l7.5-1.6l14.4,2.8l23.1,7.8
					l8.1,15.6l15.6,3.1l24.4,7.5l12.6,5.7H80V282.5z M555.2,336.4l3-1.6l8.1-8.1l-3.7-13.1l5.6-8.4l12.5-8.1l11.9-2.5l23.1,3.4
					l6.2,7.8h6.2l5.6,3.1l17.5,1.9l3.7,5.9l23.1-0.3L695,321l17.5,5l8.1,2.8l13.1-5.6l6.9-5l15.6-1.2l12.5,2.2l4.4,8.4l4.4-5.6
					l13.7,4.1l13.7,0.9l8.1-4.4l5-5.6l-1.2-0.9l5-8.1l3.1-13.1l2.5-4.4l0.6-0.3l6.2-14.1l8.7-12.2v-0.6l-1.2-13.4l4.4-6.9l-6.9-8.1
					l6.9-6.2l-10.6,1.2l-14.4-3.7l-11.9,9.7l-26.9,2.2l-13.7-9.4l-18.7-0.6l-3.7,7.2l-12.5,2.2l-16.2-9.4l-19.4,0.3l-10-17.2
					l-13.1-9.7l8.7-13.4l-11.2-8.4l19.4-16.6l26.9-0.6l7.5-13.1l33.1,2.2l20.6-11.2l20-5l28.7-0.3l30.6,12.2l18.7,5.1v184.2H555.2z
					 M878,92.2l-8.1-2.6l-15-10.3l12.5-2.8l2.8-2.8h7.8V92.2z M828.9,73.6l6,2.8l17.5-0.9l-3.1,5.9L830,84.6l-23.1,10l-10-3.4
					l3.7-8.1l-18.7-5l3.1-3.4l2.5-0.9H828.9z M737.3,73.6l-4.8,4.7V83l-8.1,3.7l-5.6-1.6l-4.4,20.9l-9.4,7.2l-6.2,12.2l5.6,10
					l1.9,6.6l15.6,5.6l-3.1,4.4l-20.6,0.9l-7.5,5.3l-14.4,9.4l-5.6-8.1v-3.4l-10.6-0.6l-8.7-1.6l-21.2,4.4l11.9,10l-8.7,2.8h-9.4
					l-9.4-9.1l-3.1,3.7l3.7,10.3l8.7,8.1l-6.2,4.1l9.4,7.8l8.7,5v10l-15.6-4.7l5,8.7l-11.2,1.9l6.9,15.3l-11.9,0.3l-14.4-7.5
					l-6.2-14.1l-3.1-11.6l-6.9-7.8l-8.7-10l-1.2-5l-3.1-1.2v-3.7l-9.4-5.6l-1.9-8.4l1.2-11.9l2.5-5.3l-2.5-2.8l-3.7-1.2l-5-5.6
					l-7.5-3.4l-16.2-6.6l-10-6.2l-16.2-5L482,96.8l3.7-1.2l-8.1-7.5l-0.6-5.6l-10.6-2.8l-5.6,7.5l-5-5.9v-5.9l0.6-0.3l3.5-1.2H737.3
					z M440.6,73.6l-7.9,3.4l0.6,8.4l-1.9,5l5.6,8.7l16.2,8.7l8.7,14.4l19.4,14.1h13.7l4.4,3.7l-5,3.4l15.6,6.2l12.5,5.3l15,9.1
					l1.9,3.1l-3.1,6.2l-10-8.1l-15-2.8l-7.5,11.2l12.5,6.2l-1.9,9.1l-6.9,1.2l-9.4,14.7l-7.5,1.6v-5.3l3.7-9.4l3.7-3.7l-6.9-10
					l-5-8.7l-7.5-2.2l-5-7.5l-11.2-3.1l-7.5-7.2l-13.1-0.9l-13.1-7.8l-16.2-11.2l-11.9-10l-5-17.2l-8.7-2.2l-14.4-5.6l-7.5,2.2
					l-10,8.1l-7.5,1.2l-15.6,10l-34.4-4.7l-25,5.6l-2.5,10.3l1.2,10l-16.2,11.6l-22.5,3.7l-1.2,5.9l-11.2,9.7l-6.2,14.1l6.9,10
					l-10,7.5l-3.7,11.2l-13.1,3.7l-12.5,13.1l-21.9,0.3l-16.9-0.3l-10.6,6.2l-6.9,6.6l-8.1-1.6l-6.9-5.9l-5-10l-16.2-2.5l-6.9,4.4
					l-2.3-0.7V105.4l0,0l0.4-0.2l21.2,3.1h23.1l18.7,2.8l14.4-0.6l28.1,0.3l8.7-10.3l2.4-26.9H440.6z"/>
			</g>
			<g>
				<path class="st3" d="M878,92.2l-8.1-2.6l-15-10.3l12.5-2.8l2.8-2.8h7.8V92.2z M828.9,73.6l6,2.8l17.5-0.9l-3.1,5.9L830,84.6
					l-23.1,10l-10-3.4l3.7-8.1l-18.7-5l3.1-3.4l2.5-0.9H828.9z M338.7,73.6l3.5,4.1l-6.2,5.3l4.4,13.4l9.4,2.2l-1.9,7.5l-15.6,10
					l-34.4-4.7l-25,5.6l-2.5,10.3l-20,2.2l-19.4-7.8l-6.2,3.7l-31.9-7.8l-6.9-6.9l8.7-10.3l2.4-26.9H338.7z M370.2,124.9l11.2-6.9
					l3.1,15l-5.6,13.4l-8.1-3.4l-3.7-11.9L370.2,124.9z M818.5,336.4l-5.5-13.8l5-5.6l-1.2-0.9l5-8.1l3.1-13.1l2.5-4.4l0.6-0.3h5.6
					l1.9-2.8l4.4-0.3l0.6,7.2l-2.5,2.5l0.6,0.3l0,0l-3.1,5.3l-6.2-2.5l-3.7,11.6l4.4,2.2l-4.4,2.2l-0.6,4.7l8.1-2.5v6.9l-3.7,11.6
					H818.5z M839.9,286.9l-4.4,0.3l-1.9,2.8h-5.6l6.2-14.1l8.7-12.2v-0.6l8.1,0.9l2.5,6.9l-9.4,6.6L839.9,286.9z M833.1,317.9
					l-8.1,2.5l0.6-4.7l4.4-2.2l-4.4-2.2l3.7-11.6l6.2,2.5v10.6L833.1,317.9z M382.8,336.4l-7-29.1l-10.6-6.9V296l-14.4-10.3
					l-1.9-13.1l11.2-9.7l3.7-14.1l-2.5-16.6l3.1-9.1l19.4-6.9l11.9,1.9l-0.6,8.7l15-6.2l1.2,3.4l-8.7,8.4v8.1l5.6,4.1l-1.9,15
					l-11.9,8.7l3.7,9.7l8.7,0.3l4.4,8.1l6.9,2.8l-1.2,13.1l-8.7,5l-5,5.6l-11.9,6.9l1.9,7.2l-1.9,7.2l-3.9,1.9H382.8z M133.7,336.4
					l1-1.3l20-6.9l0.6-12.8l10-1.6l8.1-6.2l22.5-3.1l3.1-6.6l-4.4-3.7l-6.2-18.4l-0.6-10.6l-6.9-10.9l16.9-9.4l18.7-3.1l10.6-7.2
					l16.9-5.3l29.4-3.1l28.7-1.2l8.7,2.5l16.2-6.9h18.7l6.9,3.7l11.9-0.9l-3.1,9.1l2.5,16.6l-3.7,14.1l-11.2,9.7l1.9,13.1l14.4,10.3
					v4.4l10.6,6.9l7,29.1H133.7z M878,313.2l-17.4,4.4L878,335v0.1l0,0l-2.6,1.3h-46l0,0l3.7-11.6v-6.9l2.5-5v-10.6l0,0l3.1-5.3
					l19.4,6.9l16.8-9.4l3.2-1.7V313.2z M878,292.6l-3.2,1.7l-16.8,9.4l-19.4-6.9l0,0l-0.6-0.3l2.5-2.5l-0.6-7.2l4.4-9.4l9.4-6.6
					l-2.5-6.9l-8.1-0.9l-1.2-13.4l4.4-6.9l4.4-4.1l4.4-3.7l1.2-9.7l5.6,3.4l16.2-3.9V292.6z M737.3,73.6l-4.8,4.7l-8.1-2.8l-8.1,2.8
					l-7.5-3.1l3.6-1.6H737.3z M712.4,73.6l-3.6,1.6l-0.6-1.6H712.4z M708.2,73.6l0.6,1.6l0,0l7.5,3.1l8.1-2.8l8.1,2.8V83l-8.1,3.7
					l-5.6-1.6l-4.4,20.9l-10.6-1.9L691.3,98l-20.6,3.7l-8.1,4.7l-25.6-0.9l-13.1-2.8l-6.9,1.2l-5-7.2l-3.1-2.8l3.7-3.1l-4.4-2.2
					l-5,4.1l-10.6-5l-1.2-7.2l-10.6-4.1l-0.9-2.8H708.2z M612,96.8l5,7.2l6.9-1.2l13.1,2.8l25.6,0.9l8.1-4.7l20.6-3.7l12.5,6.2
					l10.6,1.9l-9.4,7.2l-6.2,12.2l5.6,10l-15-2.2l-17.5,5.3v8.7l-16.2,1.6l-11.9-5.9l-13.7,4.7L617,147l-1.2-11.6l-8.7-5.3l3.1-2.5
					l-1.9-2.2l2.5-5.6l6.9-5.3l-8.7-7.5l-1.2-6.2L612,96.8z M675,252l-2.5,5l-25,1.6l0.6-2.8l-21.2-3.4l3.1-7.5l9.4,5.9l13.7-0.9
					l12.5,1.2v2.8L675,252z M617,147l13.1,0.6l13.7-4.7l11.9,5.9l16.2-1.6v-8.7l8.1,4.7l-5,10.6l-4.4,2.2l-10.6-0.6l-8.7-1.6
					l-21.2,4.4l11.9,10l-8.7,2.8h-9.4l-9.4-9.1l-3.1,3.7l3.7,10.3l8.7,8.1l-6.2,4.1l9.4,7.8l8.7,5v10l-15.6-4.7l5,8.7l-11.2,1.9
					l6.9,15.3l-11.9,0.3l-14.4-7.5l-6.2-14.1l-3.1-11.6l-6.9-7.8l-8.7-10l-1.2-5l8.1-8.4l1.2-5.6l5.6-2.5v-4.4l11.2-1.6l6.9-3.7
					l9.4,0.3l3.1-3.1L617,147z M878,224.9l-16.2,3.9l-5.6-3.4l-1.2,9.7l-4.4,3.7l-4.4,4.1l-6.9-8.1l6.9-6.2l-10.6,1.2l-14.4-3.7
					l-11.9,9.7l-26.9,2.2l-13.7-9.4l-18.7-0.6l-3.7,7.2l-12.5,2.2l-16.2-9.4l-19.4,0.3l-10-17.2l-13.1-9.7l8.7-13.4l-11.2-8.4
					l19.4-16.6l26.9-0.6l7.5-13.1l33.1,2.2l20.6-11.2l20-5l28.7-0.3l30.6,12.2l18.7,5.1V224.9z M671.9,138.6l17.5-5.3l15,2.2
					l1.9,6.6l15.6,5.6l-3.1,4.4l-20.6,0.9l-7.5,5.3l-14.4,9.4l-5.6-8.1v-3.4l4.4-2.2l5-10.6L671.9,138.6z M583.2,155.8v4.4l-5.6,2.5
					l-1.2,5.6l-8.1,8.4l-3.1-1.2v-3.7l-9.4-5.6l-1.9-8.4l1.2-11.9l2.5-5.3l-2.5-2.8l-1.2-5.3l7.5-8.7l0.6,3.4l5-1.6l3.7,4.7l4.4,1.6
					l0.6,6.2l-1.9,5.9l2.5,7.5L583.2,155.8z M548.9,73.6l0.6,0.9l5.6,5l-6.9,6.6l-7.5-4.1l-11.9,0.3l-15-2.8l-8.1,0.3l-3.7,3.7
					l-6.2-4.1l-3.7,7.2l8.7,8.1l3.7,5.3l7.5,6.6l6.9,3.7l6.2,7.2l15.6,6.6l-1.9,3.1l-16.2-6.6l-10-6.2l-16.2-5L482,96.8l3.7-1.2
					l-8.1-7.5l-0.6-5.6l-10.6-2.8l-5.6,7.5l-5-5.9v-5.9l0.6-0.3l12.5,0.6l1.9-1.9h3.5l0,0l3.4,1.9l6.9,0.3v-2.2H548.9z M80,139.2
					h9.8l3.1-2.2l10,0.6l5,8.7l-8.1,4.7v13.4l-3.1,2.5l-0.6,8.4l-7.5,1.2l6.9,10.3L91,198.6l5.6,5l-2.5,4.7l-6.2,6.6l1.2,5.9
					l-6.9,4.4l-2.3-0.7V139.2z M80,105.4l0.4-0.2l21.2,3.1h23.1l18.7,2.8l14.4-0.6l28.1,0.3l6.9,6.9l31.9,7.8l6.2-3.7l19.4,7.8
					l20-2.2l1.2,10l-16.2,11.6l-22.5,3.7l-1.2,5.9l-11.2,9.7l-6.2,14.1l6.9,10l-10,7.5l-3.7,11.2l-13.1,3.7l-12.5,13.1l-21.9,0.3
					l-16.9-0.3l-10.6,6.2l-6.9,6.6l-8.1-1.6l-6.9-5.9l-5-10l-16.2-2.5l0,0l-1.2-5.9l6.2-6.6l2.5-4.7l-5.6-5l4.4-11.6l-6.9-10.3
					l7.5-1.2l0.6-8.4l3.1-2.5v-13.4l8.1-4.7l-5-8.7l-10-0.6l-3.1,2.2H80V105.4z M440.6,73.6l-7.9,3.4l0.6,8.4l-1.9,5l5.6,8.7
					l16.2,8.7l8.7,14.4l19.4,14.1h13.7l4.4,3.7l-5,3.4l15.6,6.2l12.5,5.3l15,9.1l1.9,3.1l-3.1,6.2l-10-8.1l-15-2.8l-7.5,11.2
					l12.5,6.2l-1.9,9.1l-6.9,1.2l-9.4,14.7l-7.5,1.6v-5.3l3.7-9.4l3.7-3.7l-6.9-10l-5-8.7l-7.5-2.2l-5-7.5l-11.2-3.1l-7.5-7.2
					l-13.1-0.9l-13.1-7.8l-16.2-11.2l-11.9-10l-5-17.2l-8.7-2.2l-14.4-5.6l-7.5,2.2l-10,8.1l-7.5,1.2l1.9-7.5l-9.4-2.2L335.9,83
					l6.2-5.3l-3.5-4.1H440.6z M474.5,202.6l13.7-1.6l-6.2,13.4l2.5,5.6l-3.7,8.7l-13.1-6.6l-8.7-1.9l-24.4-8.7l2.5-8.7l20,1.6
					L474.5,202.6z M369.6,154.8l8.7-5.6l10.6,12.5l-2.5,22.8l-8.1-0.9l-6.9,5.6l-6.2-4.4l-1.2-21.2l-3.7-9.7L369.6,154.8z
					 M484.5,73.6v2.2l-6.9-0.3l-3.4-1.9H484.5z M470.8,73.6l-1.9,1.9l-12.5-0.6l3.5-1.2H470.8z M875.4,336.4l2.6-1.3v1.3H875.4z
					 M878,335l-17.4-17.4l17.4-4.4V335z M786.9,254.5h1.2l2.5-4.1l12.5,0.3l15.6-5.3l-11.9,7.5l1.2,3.1l-1.9-0.6l-3.1,1.2l-2.5-0.3
					l-1.2,0.6v-1.6l-1.2-1.2h-3.7l-4.4,1.2L786.9,254.5z M786.9,254.5l3.1,0.9l4.4-1.2h3.7l1.2,1.2v1.6l1.2-0.6l2.5,0.3l3.1-1.2
					l1.9,0.6l0.6,1.2l-17.5,7.2l-8.7-2.2l-4.4-6.9L786.9,254.5z M80,282.5l6-2.7l13.1-7.2l11.2-18.1l5.6-10.6h12.5l10.6,7.5
					l16.2-1.2l18.1,3.7l7.5,0.3l0,0l6.9,10.9l0.6,10.6l6.2,18.4l4.4,3.7l-3.1,6.6l-22.5,3.1l-8.1,6.2l-10,1.6l-0.6,12.8l-20,6.9
					l-1,1.3H80V282.5z M650.3,336.4l1.6-4.1l-3.1-7.5l6.2-8.1l23.1-0.3L695,321l17.5,5l8.1,2.8l13.1-5.6l6.9-5l15.6-1.2l12.5,2.2
					l4.4,8.4l4.4-5.6l13.7,4.1l13.7,0.9l8.1-4.4l5.5,13.8H650.3z M387.6,336.4l3.9-1.9l1.9-7.2l-1.9-7.2l11.9-6.9l5-5.6l8.7-5
					l1.2-13.1l20,5.9l7.5-1.6l14.4,2.8l23.1,7.8l8.1,15.6l15.6,3.1l24.4,7.5l12.6,5.7H387.6z M555.2,336.4l3-1.6l8.1-8.1l-3.7-13.1
					l5.6-8.4l12.5-8.1l11.9-2.5l23.1,3.4l6.2,7.8h6.2l5.6,3.1l17.5,1.9l3.7,5.9l-6.2,8.1l3.1,7.5l-1.6,4.1H555.2z M540.8,124.2
					l-15.6-6.6l-6.2-7.2l-6.9-3.7l-7.5-6.6l-3.7-5.3l-8.7-8.1l3.7-7.2l6.2,4.1l3.7-3.7l8.1-0.3l15,2.8l11.9-0.3l7.5,4.1l6.2-0.3
					l-4.4,7.8l8.7,6.6l-2.5,8.1l-4.4,0.9l-3.1,1.6l-5.6,4.1L540.8,124.2z M607,130.2l8.7,5.3L617,147l-3.1,0.6l-3.1,3.1l-9.4-0.3
					l-6.9,3.7l-11.2,1.6l-6.9-4.4l-2.5-7.5l1.9-5.9l2.5,0.3l0.6-3.4l10.6-2.8l3.7-0.6l5.6-0.9L607,130.2z M579.8,73.6l0.9,2.8
					l10.6,4.1l1.2,7.2l10.6,5l5-4.1l4.4,2.2l-3.7,3.1l3.1,2.8l-4.4,4.1l1.2,6.2l8.7,7.5l-6.9,5.3l-2.5,5.6l1.9,2.2l-3.1,2.5
					l-8.1,0.3l-5.6,0.9l-0.6-1.2l1.9-2.2l1.9-4.4l-2.5,0.3l-3.1-3.4l-3.1-0.6l-1.9-2.8l-3.1-0.9l-2.5-2.5l-3.1,0.9l-2.5,5.6
					l-4.4,1.2l1.2-1.6l-6.2-3.4l-5.6-1.9l-2.5-2.5l-5-2.8l4.4-0.9l2.5-8.1l-8.7-6.6l4.4-7.8l-6.2,0.3l6.9-6.6l-5.6-5l-0.6-0.9H579.8
					z M567,125.5l-5,1.6l-0.6-3.4l-7.5,8.7l1.2,5.3l-3.7-1.2l-5-5.6l-7.5-3.4l1.9-3.1l2.5-9.4l5.6-4.1l3.1-1.6l5,2.8l2.5,2.5
					l5.6,1.9l6.2,3.4l-1.2,1.6L567,125.5z M575.7,138l-0.6-6.2l-4.4-1.6l-3.7-4.7l3.1-4.1l4.4-1.2l2.5-5.6l3.1-0.9l2.5,2.5l3.1,0.9
					l1.9,2.8l3.1,0.6l3.1,3.4l2.5-0.3l-1.9,4.4l-1.9,2.2l0.6,1.2l-3.7,0.6l-10.6,2.8l-0.6,3.4L575.7,138z"/>
			</g>
			<g>
				<path class="st4" d="M790.6,250.4l12.5,0.3l15.6-5.3l-11.9,7.5l1.9,4.4l-17.5,7.2l-8.7-2.2l-4.4-6.9l10-0.9L790.6,250.4
					 M675,252l-2.5,5l-25,1.6l0.6-2.8l-21.2-3.4l3.1-7.5l9.4,5.9l13.7-0.9l12.5,1.2v2.8L675,252 M369.6,154.8l8.7-5.6l10.6,12.5
					l-2.5,22.8l-8.1-0.9l-6.9,5.6l-6.2-4.4l-1.2-21.2l-3.7-9.7L369.6,154.8 M370.2,124.9l11.2-6.9l3.1,15l-5.6,13.4l-8.1-3.4
					l-3.7-11.9L370.2,124.9 M474.5,202.6l13.7-1.6l-6.2,13.4l2.5,5.6l-3.7,8.7l-13.1-6.6l-8.7-1.9l-24.4-8.7l2.5-8.7l20,1.6
					L474.5,202.6 M869.9,89.6l8.1,2.6 M80,282.5l6-2.7l13.1-7.2l11.2-18.1l5.6-10.6h12.5l10.6,7.5l16.2-1.2l18.1,3.7l7.5,0.3
					l16.9-9.4l18.7-3.1l10.6-7.2l16.9-5.3l29.4-3.1l28.7-1.2l8.7,2.5l16.2-6.9h18.7l6.9,3.7l11.9-0.9l19.4-6.9l11.9,1.9l-0.6,8.7
					l15-6.2l1.2,3.4l-8.7,8.4v8.1l5.6,4.1l-1.9,15l-11.9,8.7l3.7,9.7l8.7,0.3l4.4,8.1l6.9,2.8l20,5.9l7.5-1.6l14.4,2.8l23.1,7.8
					l8.1,15.6l15.6,3.1l24.4,7.5l12.6,5.7 M555.2,336.4l3-1.6l8.1-8.1l-3.7-13.1l5.6-8.4l12.5-8.1l11.9-2.5l23.1,3.4l6.2,7.8h6.2
					l5.6,3.1l17.5,1.9l3.7,5.9l23.1-0.3L695,321l17.5,5l8.1,2.8l13.1-5.6l6.9-5l15.6-1.2l12.5,2.2l4.4,8.4l4.4-5.6l13.7,4.1
					l13.7,0.9l8.1-4.4l5-5.6l-1.2-0.9l5-8.1l3.1-13.1l2.5-4.4l0.6-0.3l6.2-14.1l8.7-12.2v-0.6l-1.2-13.4l4.4-6.9l-6.9-8.1l6.9-6.2
					l-10.6,1.2l-14.4-3.7l-11.9,9.7l-26.9,2.2l-13.7-9.4l-18.7-0.6l-3.7,7.2l-12.5,2.2l-16.2-9.4l-19.4,0.3l-10-17.2l-13.1-9.7
					l8.7-13.4l-11.2-8.4l19.4-16.6l26.9-0.6l7.5-13.1l33.1,2.2l20.6-11.2l20-5l28.7-0.3l30.6,12.2l18.7,5.1 M878,92.2l-8.1-2.6
					l-15-10.3l12.5-2.8l2.8-2.8 M828.9,73.6l6,2.8l17.5-0.9l-3.1,5.9L830,84.6l-23.1,10l-10-3.4l3.7-8.1l-18.7-5l3.1-3.4l2.5-0.9
					 M737.3,73.6l-4.8,4.7V83l-8.1,3.7l-5.6-1.6l-4.4,20.9l-9.4,7.2l-6.2,12.2l5.6,10l1.9,6.6l15.6,5.6l-3.1,4.4l-20.6,0.9l-7.5,5.3
					l-14.4,9.4l-5.6-8.1v-3.4l-10.6-0.6l-8.7-1.6l-21.2,4.4l11.9,10l-8.7,2.8h-9.4l-9.4-9.1l-3.1,3.7l3.7,10.3l8.7,8.1l-6.2,4.1
					l9.4,7.8l8.7,5v10l-15.6-4.7l5,8.7l-11.2,1.9l6.9,15.3l-11.9,0.3l-14.4-7.5l-6.2-14.1l-3.1-11.6l-6.9-7.8l-8.7-10l-1.2-5
					l-3.1-1.2v-3.7l-9.4-5.6l-1.9-8.4l1.2-11.9l2.5-5.3l-2.5-2.8l-3.7-1.2l-5-5.6l-7.5-3.4l-16.2-6.6l-10-6.2l-16.2-5L482,96.8
					l3.7-1.2l-8.1-7.5l-0.6-5.6l-10.6-2.8l-5.6,7.5l-5-5.9v-5.9l0.6-0.3l3.5-1.2 M440.6,73.6l-7.9,3.4l0.6,8.4l-1.9,5l5.6,8.7
					l16.2,8.7l8.7,14.4l19.4,14.1h13.7l4.4,3.7l-5,3.4l15.6,6.2l12.5,5.3l15,9.1l1.9,3.1l-3.1,6.2l-10-8.1l-15-2.8l-7.5,11.2
					l12.5,6.2l-1.9,9.1l-6.9,1.2l-9.4,14.7l-7.5,1.6v-5.3l3.7-9.4l3.7-3.7l-6.9-10l-5-8.7l-7.5-2.2l-5-7.5l-11.2-3.1l-7.5-7.2
					l-13.1-0.9l-13.1-7.8l-16.2-11.2l-11.9-10l-5-17.2l-8.7-2.2l-14.4-5.6l-7.5,2.2l-10,8.1l-7.5,1.2l-15.6,10l-34.4-4.7l-25,5.6
					l-2.5,10.3l1.2,10l-16.2,11.6l-22.5,3.7l-1.2,5.9l-11.2,9.7l-6.2,14.1l6.9,10l-10,7.5l-3.7,11.2l-13.1,3.7l-12.5,13.1l-21.9,0.3
					l-16.9-0.3l-10.6,6.2l-6.9,6.6l-8.1-1.6l-6.9-5.9l-5-10l-16.2-2.5l-6.9,4.4l-2.3-0.7 M80,105.4l0.4-0.2l21.2,3.1h23.1l18.7,2.8
					l14.4-0.6l28.1,0.3l8.7-10.3l2.4-26.9"/>
			</g>
			<g>
				<g>
					<g>
						<path class="st5" d="M80,105.4l0.4-0.2l21.2,3.1h23.1l18.7,2.8l14.4-0.6l28.1,0.3l6.9,6.9l31.9,7.8l6.2-3.7l19.4,7.8l20-2.2
							l1.2,10l-16.2,11.6l-22.5,3.7l-1.2,5.9l-11.2,9.7l-6.2,14.1l6.9,10l-10,7.5l-3.7,11.2l-13.1,3.7l-12.5,13.1l-21.9,0.3
							l-16.9-0.3l-10.6,6.2l-6.9,6.6l-8.1-1.6l-6.9-5.9l-5-10l-16.2-2.5l0,0l-1.2-5.9l6.2-6.6l2.5-4.7l-5.6-5l4.4-11.6l-6.9-10.3
							l7.5-1.2l0.6-8.4l3.1-2.5v-13.4l8.1-4.7l-5-8.7l-10-0.6l-3.1,2.2H80V105.4z"/>
						<path class="st6" d="M675,252l-2.5,5l-25,1.6l0.6-2.8l-21.2-3.4l3.1-7.5l9.4,5.9l13.7-0.9l12.5,1.2v2.8L675,252z M617,147
							l13.1,0.6l13.7-4.7l11.9,5.9l16.2-1.6v-8.7l8.1,4.7l-5,10.6l-4.4,2.2l-10.6-0.6l-8.7-1.6l-21.2,4.4l11.9,10l-8.7,2.8h-9.4
							l-9.4-9.1l-3.1,3.7l3.7,10.3l8.7,8.1l-6.2,4.1l9.4,7.8l8.7,5v10l-15.6-4.7l5,8.7l-11.2,1.9l6.9,15.3l-11.9,0.3l-14.4-7.5
							l-6.2-14.1l-3.1-11.6l-6.9-7.8l-8.7-10l-1.2-5l8.1-8.4l1.2-5.6l5.6-2.5v-4.4l11.2-1.6l6.9-3.7l9.4,0.3l3.1-3.1L617,147z"/>
						<path class="st7" d="M440.6,73.6l-7.9,3.4l0.6,8.4l-1.9,5l5.6,8.7l16.2,8.7l8.7,14.4l19.4,14.1h13.7l4.4,3.7l-5,3.4l15.6,6.2
							l12.5,5.3l15,9.1l1.9,3.1l-3.1,6.2l-10-8.1l-15-2.8l-7.5,11.2l12.5,6.2l-1.9,9.1l-6.9,1.2l-9.4,14.7l-7.5,1.6v-5.3l3.7-9.4
							l3.7-3.7l-6.9-10l-5-8.7l-7.5-2.2l-5-7.5l-11.2-3.1l-7.5-7.2l-13.1-0.9l-13.1-7.8l-16.2-11.2l-11.9-10l-5-17.2l-8.7-2.2
							l-14.4-5.6l-7.5,2.2l-10,8.1l-7.5,1.2l1.9-7.5l-9.4-2.2L335.9,83l6.2-5.3l-3.5-4.1H440.6z M474.5,202.6l13.7-1.6l-6.2,13.4
							l2.5,5.6l-3.7,8.7l-13.1-6.6l-8.7-1.9l-24.4-8.7l2.5-8.7l20,1.6L474.5,202.6z M369.6,154.8l8.7-5.6l10.6,12.5l-2.5,22.8
							l-8.1-0.9l-6.9,5.6l-6.2-4.4l-1.2-21.2l-3.7-9.7L369.6,154.8z"/>
						<path class="st8" d="M786.9,254.5l3.1,0.9l4.4-1.2h3.7l1.2,1.2v1.6l1.2-0.6l2.5,0.3l3.1-1.2l1.9,0.6l0.6,1.2l-17.5,7.2
							l-8.7-2.2l-4.4-6.9L786.9,254.5z"/>
						<path class="st8" d="M80,336.4"/>
					</g>
				</g>
			</g>
			<g>
				<path class="st8" d="M80,336.4"/>
			</g>
		</g>
	</g>
</g>
<g transform="translate(0,32)">
	
		<linearGradient id="SVGID_00000054253438924381106890000009930032209778688388_" gradientUnits="userSpaceOnUse" x1="-448.674" y1="703.0641" x2="-448.674" y2="704.2305" gradientTransform="matrix(1.836970e-15 -30 -378 -2.314582e-14 266636.25 -13100.7578)">
		<stop  offset="0" style="stop-color:#F7FCF5"/>
		<stop  offset="0.125" style="stop-color:#E5F5E0"/>
		<stop  offset="0.25" style="stop-color:#C7E9C0"/>
		<stop  offset="0.375" style="stop-color:#A1D99B"/>
		<stop  offset="0.5" style="stop-color:#74C476"/>
		<stop  offset="0.625" style="stop-color:#41AB5D"/>
		<stop  offset="0.75" style="stop-color:#238B45"/>
		<stop  offset="0.875" style="stop-color:#006D2C"/>
		<stop  offset="1" style="stop-color:#00441B"/>
	</linearGradient>
	
		<rect x="437.1" y="344.5" style="fill:url(#SVGID_00000054253438924381106890000009930032209778688388_);" width="440.9" height="30"/>
</g>
<g transform="translate(0,32)">
</g>
<text transform="matrix(0.8573 0 0 1 812.3682 368.208)" class="st10 st11 st12">2k</text>
<text transform="matrix(0.8573 0 0 1 751.7139 368.208)" class="st10 st11 st12">4k</text>
<text transform="matrix(0.8573 0 0 1 691.0596 368.2079)" class="st10 st11 st12">6k</text>
<text transform="matrix(0.8573 0 0 1 630.4033 368.208)" class="st10 st11 st12">8k</text>
<text transform="matrix(0.8573 0 0 1 562.1201 368.208)" class="st10 st11 st12">10k</text>
<text transform="matrix(0.8573 0 0 1 501.4658 368.208)" class="st10 st11 st12">12k</text>
<text transform="matrix(0.8573 0 0 1 440.8115 368.2072)" class="st10 st11 st12">14k</text>
<rect x="437.1" y="376.5" class="st13" width="440.9" height="30"/>
<text transform="matrix(1 0 0 1 104.6826 292.8535)" class="st14 st15">Morocco</text>
<text transform="matrix(1 0 0 1 138.3374 165.5964)" class="st1 st14 st15">Spain</text>
<text transform="matrix(1 0 0 1 249.0498 284.2979)" class="st14 st15">Algeria</text>
<text transform="matrix(1 0 0 1 369.8789 292.8535)" class="st14 st15">Tunisia</text>
<text transform="matrix(1 0 0 1 437.1002 321.5674)" class="st14 st15">Lybia</text>
<text transform="matrix(1 0 0 1 437.1002 134.5842)" class="st14 st15">Italy</text>
<text transform="matrix(1 0 0 1 579.1064 188.7732)" class="st14 st15">Greece</text>
<text transform="matrix(1 0 0 1 779.465 275.7783)" class="st14 st15">Cyprus</text>
</svg>
