<svg class="main-svg" xmlns="http://www.w3.org/2000/svg" xmlns:xlink="http://www.w3.org/1999/xlink" width="1000" height="600" style="" viewBox="0 0 1000 600"><rect x="0" y="0" width="1000" height="600" style="fill: rgb(255, 255, 255); fill-opacity: 1;"/><defs id="defs-bbb4a5"><g class="clips"><clipPath id="clipbbb4a5geo"><rect x="79.99999999999994" y="178.64963032193543" width="798" height="262.700739356129"/></clipPath></g><g class="gradients"><linearGradient x1="0" x2="0" y1="1" y2="0" id="gbbb4a5-cbcoloraxis"><stop offset="0%" stop-color="rgb(247, 251, 255)" stop-opacity="1"/><stop offset="12.5%" stop-color="rgb(222, 235, 247)" stop-opacity="1"/><stop offset="25%" stop-color="rgb(198, 219, 239)" stop-opacity="1"/><stop offset="37.5%" stop-color="rgb(158, 202, 225)" stop-opacity="1"/><stop offset="50%" stop-color="rgb(107, 174, 214)" stop-opacity="1"/><stop offset="62.5%" stop-color="rgb(66, 146, 198)" stop-opacity="1"/><stop offset="75%" stop-color="rgb(33, 113, 181)" stop-opacity="1"/><stop offset="87.5%" stop-color="rgb(8, 81, 156)" stop-opacity="1"/><stop offset="100%" stop-color="rgb(8, 48, 107)" stop-opacity="1"/></linearGradient></g><g class="patterns"/></defs><g class="bglayer"/><g class="layer-below"><g class="imagelayer"/><g class="shapelayer"/></g><g class="cartesianlayer"/><g class="polarlayer"/><g class="smithlayer"/><g class="ternarylayer"/><g class="geolayer"><g class="geo geo" clip-path="url(#clipbbb4a5geo)"><g class="layer bg"><rect x="79.99999999999994" y="178.64963032193543" width="798" height="262.700739356129" style="pointer-events: all; fill: rgb(255, 255, 255); fill-opacity: 1;"/></g><g class="layer land"><path d="M806.8428847276226,357.9076908951819L808.0921074367536,361.0307476680098L808.7167187913192,362.2799703771411L791.2276008634824,369.4630009546455L782.4830418995637,367.2768612136658L778.1107624176043,360.40613631344434L786.855321381523,359.469219281596L788.1045440906541,359.469219281596L790.6029895089168,355.4092454769194L803.0952166002288,355.7215511542022L818.710500464369,350.4123546403945ZM675.0498889142797,356.97077386333353L672.551443496017,361.9676646998581L647.5669893133929,363.52919308627224L648.1916006679585,360.718441990727L626.9548146127279,357.2830795406163L630.0778713855561,349.7877432858289L639.4470417040399,355.7215511542022L653.1884915044834,354.78463412235385L665.6807185957954,356.03385683148497L665.6807185957954,358.8446079270302ZM474.54964409872025,307.6264768526503L488.2910938991634,306.06494846623673L482.04498035350736,319.49409258939704L484.54342577177005,325.1155947804874L480.79575764437624,333.8601537444059L467.67891919849876,327.3017345214671L458.93436023458,325.4279004577702L434.57451740652164,316.6833414938518L437.0729628247838,307.9387825299334L457.0605261708834,309.50031091634753ZM369.6149365316985,259.8437082283815L378.35949549561667,254.22220603729113L388.97788852323197,266.71443312860356L386.4794431049698,289.51274757024794L378.35949549561667,288.5758305383998L371.4887705953951,294.1973327294902L365.24265704973914,289.82505324753095L363.993434340608,268.58826719230024L360.2457662132142,258.9067911965335ZM370.239547886264,229.86236320923263L381.4825522684449,222.99163830901114L384.60560904127317,237.98231081858523L378.9841068501827,251.4114549417459L370.86415924082957,247.9760924916351L367.1164911134358,236.10847675488867ZM79.99999999999994,387.4630244803036L86.04138155891349,384.76597914150295L99.15822000479108,377.58294856399834L110.40122438697193,359.469219281596L116.02272657806242,348.8508262539806L128.5149536693744,348.8508262539806L139.13334669698975,356.34616250876775L155.37324191569553,355.09693979963663L173.48697119809844,358.8446079270302L180.98230745288555,359.156913604313L197.84681402615686,349.7877432858289L216.58515466312485,346.6646865130009L227.20354769074018,339.4816559354964L244.06805426401152,334.1724594216887L273.4247879285954,331.0494026488607L302.15691023861314,329.8001799397297L310.9014692025313,332.298625357992L327.1413644212371,325.4279004577702L345.8797050582056,325.4279004577702L352.75042995842716,329.4878742624469L364.6180456951736,328.23865155331544L383.9809976867071,321.36792665309395L395.848613423454,323.24176071679074L395.224002068888,331.98631968070924L410.2146745784627,325.740206135053L411.4638972875938,329.1755685851641L402.71933832367563,337.60782187179973L402.71933832367563,345.72776948115256L408.34084051476606,349.7877432858289L406.4670064510694,364.77841579540336L394.59939071432245,373.522974759322L398.34705884171626,383.2044507550888L407.09161780563494,383.5167564323716L411.4638972875938,391.63670404172444L418.33462218781585,394.4474551372697L438.32218553391493,400.38126300564284L445.8175217887025,398.81973461922905L460.18358294371114,401.6304857147743L483.2942030626385,409.43812764684435L491.4141506719916,425.05341151098435L507.0294345361319,428.17646828381237L531.3892773641903,435.67180453859976L544.0083110074451,441.35036967806445L79.99999999999994,441.35036967806445ZM555.2416102744756,441.35036967806445L558.2475656105114,439.731778343276L566.367513219864,431.6118307339234L562.6198450924708,418.4949922880455L568.2413472835613,410.0627390014099L580.7335743748732,401.9427913920571L592.6011901116196,399.4443459737945L615.7118102305469,402.8797084239054L621.957923776203,410.68735035597547L628.2040373218589,410.68735035597547L633.8255395129494,413.8104071288035L651.3146574407867,415.6842411925004L655.0623255681801,421.61804906087355L678.1729456871074,421.30574338359077L695.0374522603793,425.990328542833L712.526570188216,430.9872193793576L720.6465177975688,433.79797047490285L733.7633562434464,428.17646828381237L740.6340811436683,423.1795774472878L756.2493650078086,421.9303547381563L768.7415920991206,424.116494479136L773.11387158108,432.54874776577174L777.4861510630387,426.92724557468136L791.2276008634824,430.9872193793576L804.9690506639255,431.9241364112062L813.0889982732785,427.5518569292469L818.0858891098035,421.9303547381563L816.8366664006719,420.993437706308L821.8335572371968,412.87349009695515L824.9566140100251,399.7566516510773L827.4550594282873,395.38437216911825L828.0796707828529,395.07206649183524L834.3257843285093,381.01831101410914L843.0703432924274,368.83838960007995L843.0703432924274,368.2137782455144L841.8211205832963,354.78463412235385L846.1934000652557,347.913909222132L839.3226751650341,339.7939616127792L846.1934000652557,333.54784806712314L835.5750070376404,334.7970707762545L821.2089458826313,331.0494026488607L809.3413301458847,340.73087864462775L782.4830418995637,342.9170183856073L768.7415920991206,333.54784806712314L750.0032514621521,332.9232367125576L746.2555833347587,340.1062672900622L733.7633562434464,342.29240703104153L717.523461024741,332.9232367125576L698.160509033207,333.23554238984036L688.1667273601572,316.05873013928624L675.0498889142797,306.37725414351917L683.7944478781978,292.94811002035874L672.551443496017,284.5158567337229L691.914395487551,267.9636558377347L718.7726837338721,267.3390444831691L726.2680199886593,254.22220603729113L759.3724217806364,256.4083457782707L779.9845964813014,245.16534139608996L799.9721598274004,240.16845055956503L828.7042821374189,239.85614488228248L859.3102385111333,252.03606629631145L878,257.17575070575003L878,441.35036967806445ZM878,197.220239452624L869.9286315387487,194.57182167627593L854.937959029174,184.26573432594353L867.4301861204865,181.45498323039828L870.2355390289492,178.64963032193543L878,178.64963032193543ZM828.9080971110013,178.64963032193543L834.9503956830748,181.45498323039828L852.4395136109117,180.51806619854972L849.3164568380835,186.45187406692332L829.95350484655,189.5749308397509L806.8428847276226,199.56871251280074L796.8491030545729,196.13335006269006L800.5967711819667,188.01340245333688L781.8584305449981,183.01651161681195L784.9814873178263,179.58114916670115L787.5309073140274,178.64963032193543L828.9080971110013,178.64963032193543ZM737.307447017991,178.64963032193543L732.5141335343153,183.32881729409496L732.5141335343153,188.01340245333688L724.3941859249626,191.7610705807307L718.7726837338721,190.19954219431645L714.4004042519127,211.12402257226472L705.0312339334284,218.30705314976876L698.7851203877725,230.48697456379819L704.4066225788629,240.48075623684804L706.2804566425602,247.03917545978697L721.8957405066999,252.66067765087746L718.7726837338721,257.03295713283626L698.160509033207,257.9698741646848L690.6651727784199,263.2790706784923L676.2991116234108,272.6482409969766L670.6776094323203,264.5282933876239L670.6776094323203,261.0929309375132L660.059216404705,260.46831958294706L651.3146574407867,258.9067911965335L630.0778713855561,263.2790706784923L641.9454871223026,273.27285235154216L633.2009281583838,276.0836034470873L623.8317578399001,276.0836034470873L614.4625875214159,267.0267388058861L611.3395307485875,270.7744069332799L615.0871988759814,281.0804942836122L623.8317578399001,289.2004418929654L617.585644294244,293.26041569764175L626.9548146127279,301.0680576297118L635.6993735766466,306.06494846623673L635.6993735766466,316.05873013928624L620.0840897125063,311.3741449800442L625.0809805490312,320.1187039439626L613.8379761668504,321.9925380076595L620.7087010670718,337.29551619451695L608.8410853303254,337.60782187179973L594.4750241753163,330.11248561701245L588.2289106296603,316.05873013928624L585.1058538568325,304.5034200798225L578.2351289566104,296.69577814775243L569.4905699926923,286.7019964747027L568.2413472835613,281.70510563817777L565.1182905107329,280.45588292904665L565.1182905107329,276.70821480165284L555.7491201922487,271.0867126105625L553.875286128552,262.65445932392674L555.1245088376832,250.78684358718033L557.6229542559458,245.47764707337285L555.1245088376832,242.66689597782772L551.3768407102899,241.4176732686966L546.379949873765,235.79617107760566L538.8846136189774,232.36080862749486L522.6447184002716,225.80238940455638L512.6509367272223,219.55627585890034L496.4110415085165,214.55938502237552L482.04498035350736,201.75485225378043L485.79264848090116,200.5056295446493L477.67270087154805,193.0102932898618L477.0480895169825,187.38879109877132L466.42969648936713,184.57804000322608L460.8081942982767,192.0733762580137L455.81130346175183,186.1395683896402L455.81130346175183,180.2057605212667L456.43591481631785,179.89345484398416L459.918623478054,178.64963032193543L737.307447017991,178.64963032193543ZM440.58960114779006,178.64963032193543L432.70068334282445,182.07959458496384L433.32529469739,190.51184787159957L431.4514606336934,195.5087387081245L437.0729628247838,204.25329767204266L453.3128580434896,212.9978566359614L462.0574170074083,227.36391779096994L481.4203689989418,241.4176732686966L495.1618187993849,241.4176732686966L499.53409828134426,245.16534139608996L494.5372074448194,248.60070384620064L510.1524913089596,254.8468173918567L522.6447184002716,260.1560139056646L537.6353909098463,269.2128785468658L539.5092249735429,272.33593531969404L536.3861682007151,278.58204886535L526.3923865276654,270.4621012559969L511.4017140180907,267.65135016045167L503.90637776330357,278.8943545426325L516.3986048546155,285.14046808828846L514.524770790919,294.1973327294902L507.65404589069743,295.4465554386213L498.2848755722132,310.1249222709131L490.78953931742603,311.686450657327L490.78953931742603,306.37725414351917L494.5372074448194,297.00808382503544L498.2848755722132,293.26041569764175L491.4141506719916,283.2666340245919L486.4172598354667,274.5220750606733L478.9219235806796,272.33593531969404L473.92503274415475,264.84059906490654L462.68202836197383,261.71754229207875L455.1866921071863,254.53451171457414L442.0698536613087,253.59759468272557L428.95301521543115,245.78995275065552L412.71311999672537,234.54694836847455L400.84550425997844,224.5531666954248L395.848613423454,207.3763544448708L387.10405445953535,205.19021470389123L372.73799330452624,199.56871251280074L365.24265704973914,201.75485225378043L355.24887537668934,209.87479986313303L347.75353912190224,211.12402257226472L332.138255257762,221.117804245314L297.78463075665377,216.4332190860722L272.8001765740293,222.05472127716257L270.30173115576713,232.36080862749486L271.55095386489825,242.35459030054471L255.31105864619244,253.90990036000858L232.82504988183064,257.6575684874018L231.57582717269955,263.5913763557754L220.33282279051866,273.27285235154216L214.08670924486267,287.32660782926826L220.95743414508422,297.320389502318L210.96365247203443,304.81572575710504L207.2159843446411,316.05873013928624L194.09914589876306,319.8063982666798L181.60691880745105,332.9232367125576L159.7455213976549,333.23554238984036L142.8810148243835,332.9232367125576L132.26262179676814,339.1693502582136L125.39189689654665,345.72776948115256L117.27194928719354,344.16624109473844L110.40122438697193,338.2324332263653L105.40433355044706,328.23865155331544L89.16443833174128,325.740206135053L82.29371343151973,330.11248561701245L79.99999999999994,329.4571389222925L79.99999999999994,210.40242829314585L79.99999999999994,210.40242829314585L80.41987936782306,210.18710554041604L101.65666542305377,213.31016231324384L124.7672855419811,213.31016231324384L143.50562617894906,216.12091340878908L157.87168733395822,215.49630205422363L185.97919828941042,215.80860773150664L194.7237572533286,205.50252038117424L197.14293653794488,178.64963032193543L440.58960114779006,178.64963032193543Z" style="stroke: none; fill: rgb(229, 236, 246); fill-opacity: 1;"/></g><g class="layer coastlines"><path d="M790.6029895089168,355.4092454769194L803.0952166002288,355.7215511542022L818.710500464369,350.4123546403945L806.8428847276226,357.9076908951819L808.7167187913192,362.2799703771411L791.2276008634824,369.4630009546455L782.4830418995637,367.2768612136658L778.1107624176043,360.40613631344434L788.1045440906541,359.469219281596L790.6029895089168,355.4092454769194M675.0498889142797,356.97077386333353L672.551443496017,361.9676646998581L647.5669893133929,363.52919308627224L648.1916006679585,360.718441990727L626.9548146127279,357.2830795406163L630.0778713855561,349.7877432858289L639.4470417040399,355.7215511542022L653.1884915044834,354.78463412235385L665.6807185957954,356.03385683148497L665.6807185957954,358.8446079270302L675.0498889142797,356.97077386333353M369.6149365316985,259.8437082283815L378.35949549561667,254.22220603729113L388.97788852323197,266.71443312860356L386.4794431049698,289.51274757024794L378.35949549561667,288.5758305383998L371.4887705953951,294.1973327294902L365.24265704973914,289.82505324753095L363.993434340608,268.58826719230024L360.2457662132142,258.9067911965335L369.6149365316985,259.8437082283815M370.239547886264,229.86236320923263L381.4825522684449,222.99163830901114L384.60560904127317,237.98231081858523L378.9841068501827,251.4114549417459L370.86415924082957,247.9760924916351L367.1164911134358,236.10847675488867L370.239547886264,229.86236320923263M474.54964409872025,307.6264768526503L488.2910938991634,306.06494846623673L482.04498035350736,319.49409258939704L484.54342577177005,325.1155947804874L480.79575764437624,333.8601537444059L467.67891919849876,327.3017345214671L458.93436023458,325.4279004577702L434.57451740652164,316.6833414938518L437.0729628247838,307.9387825299334L457.0605261708834,309.50031091634753L474.54964409872025,307.6264768526503M869.9286315387487,194.57182167627593L878,197.220239452624M79.99999999999994,387.4630244803036L86.04138155891349,384.76597914150295L99.15822000479108,377.58294856399834L110.40122438697193,359.469219281596L116.02272657806242,348.8508262539806L128.5149536693744,348.8508262539806L139.13334669698975,356.34616250876775L155.37324191569553,355.09693979963663L173.48697119809844,358.8446079270302L180.98230745288555,359.156913604313L197.84681402615686,349.7877432858289L216.58515466312485,346.6646865130009L227.20354769074018,339.4816559354964L244.06805426401152,334.1724594216887L273.4247879285954,331.0494026488607L302.15691023861314,329.8001799397297L310.9014692025313,332.298625357992L327.1413644212371,325.4279004577702L345.8797050582056,325.4279004577702L352.75042995842716,329.1755685851641L364.6180456951736,328.23865155331544L383.9809976867071,321.36792665309395L395.848613423454,323.24176071679074L395.224002068888,331.98631968070924L410.2146745784627,325.740206135053L411.4638972875938,329.1755685851641L402.71933832367563,337.60782187179973L402.71933832367563,345.72776948115256L408.34084051476606,349.7877432858289L406.4670064510694,364.77841579540336L394.59939071432245,373.522974759322L398.34705884171626,383.2044507550888L407.09161780563494,383.5167564323716L411.4638972875938,391.63670404172444L418.33462218781585,394.4474551372697L438.32218553391493,400.38126300564284L445.8175217887025,398.81973461922905L460.18358294371114,401.6304857147743L483.2942030626385,409.43812764684435L491.4141506719916,425.05341151098435L507.0294345361319,428.17646828381237L531.3892773641903,435.67180453859976L544.0083110074451,441.35036967806445M555.2416102744756,441.35036967806445L558.2475656105114,439.731778343276L566.367513219864,431.6118307339234L562.6198450924708,418.4949922880455L568.2413472835613,410.0627390014099L580.7335743748732,401.9427913920571L592.6011901116196,399.4443459737945L615.7118102305469,402.8797084239054L621.957923776203,410.68735035597547L628.2040373218589,410.68735035597547L633.8255395129494,413.8104071288035L651.3146574407867,415.6842411925004L655.0623255681801,421.61804906087355L678.1729456871074,421.30574338359077L695.0374522603793,425.990328542833L712.526570188216,430.9872193793576L720.6465177975688,433.79797047490285L733.7633562434464,428.17646828381237L740.6340811436683,423.1795774472878L756.2493650078086,421.9303547381563L768.7415920991206,424.116494479136L773.11387158108,432.54874776577174L777.4861510630387,426.92724557468136L791.2276008634824,430.9872193793576L804.9690506639255,431.9241364112062L813.0889982732785,427.5518569292469L818.0858891098035,421.9303547381563L816.8366664006719,420.993437706308L821.8335572371968,412.87349009695515L824.9566140100251,399.7566516510773L827.4550594282873,395.38437216911825L828.0796707828529,395.07206649183524L834.3257843285093,381.01831101410914L843.0703432924274,368.83838960007995L843.0703432924274,368.2137782455144L841.8211205832963,354.78463412235385L846.1934000652557,347.913909222132L839.3226751650341,339.7939616127792L846.1934000652557,333.54784806712314L835.5750070376404,334.7970707762545L821.2089458826313,331.0494026488607L809.3413301458847,340.73087864462775L782.4830418995637,342.9170183856073L768.7415920991206,333.54784806712314L750.0032514621521,332.9232367125576L746.2555833347587,340.1062672900622L733.7633562434464,342.29240703104153L717.523461024741,332.9232367125576L698.160509033207,333.23554238984036L688.1667273601572,316.05873013928624L675.0498889142797,306.37725414351917L683.7944478781978,292.94811002035874L672.551443496017,284.5158567337229L691.914395487551,267.9636558377347L718.7726837338721,267.3390444831691L726.2680199886593,254.22220603729113L759.3724217806364,256.4083457782707L779.9845964813014,245.16534139608996L799.9721598274004,240.16845055956503L828.7042821374189,239.85614488228248L859.3102385111333,252.03606629631145L878,257.17575070575003M878,197.220239452624L869.9286315387487,194.57182167627593L854.937959029174,184.26573432594353L867.4301861204865,181.45498323039828L870.2355390289492,178.64963032193543M828.9080971110013,178.64963032193543L834.9503956830748,181.45498323039828L852.4395136109117,180.51806619854972L849.3164568380835,186.45187406692332L829.95350484655,189.5749308397509L806.8428847276226,199.56871251280074L796.8491030545729,196.13335006269006L800.5967711819667,188.01340245333688L781.8584305449981,183.01651161681195L784.9814873178263,179.58114916670115L787.5309073140274,178.64963032193543M737.307447017991,178.64963032193543L732.5141335343153,183.32881729409496L732.5141335343153,188.01340245333688L724.3941859249626,191.7610705807307L718.7726837338721,190.19954219431645L714.4004042519127,211.12402257226472L705.0312339334284,218.30705314976876L698.7851203877725,230.48697456379819L704.4066225788629,240.48075623684804L706.2804566425602,247.03917545978697L721.8957405066999,252.66067765087746L718.7726837338721,257.03295713283626L698.160509033207,257.9698741646848L690.6651727784199,263.2790706784923L676.2991116234108,272.6482409969766L670.6776094323203,264.5282933876239L670.6776094323203,261.0929309375132L660.059216404705,260.46831958294706L651.3146574407867,258.9067911965335L630.0778713855561,263.2790706784923L641.9454871223026,273.27285235154216L633.2009281583838,276.0836034470873L623.8317578399001,276.0836034470873L614.4625875214159,267.0267388058861L611.3395307485875,270.7744069332799L615.0871988759814,281.0804942836122L623.8317578399001,289.2004418929654L617.585644294244,293.26041569764175L626.9548146127279,301.0680576297118L635.6993735766466,306.06494846623673L635.6993735766466,316.05873013928624L620.0840897125063,311.3741449800442L625.0809805490312,320.1187039439626L613.8379761668504,321.9925380076595L620.7087010670718,337.29551619451695L608.8410853303254,337.60782187179973L594.4750241753163,330.11248561701245L588.2289106296603,316.05873013928624L585.1058538568325,304.5034200798225L578.2351289566104,296.69577814775243L569.4905699926923,286.7019964747027L568.2413472835613,281.70510563817777L565.1182905107329,280.45588292904665L565.1182905107329,276.70821480165284L555.7491201922487,271.0867126105625L553.875286128552,262.65445932392674L555.1245088376832,250.78684358718033L557.6229542559458,245.47764707337285L555.1245088376832,242.66689597782772L551.3768407102899,241.4176732686966L546.379949873765,235.79617107760566L538.8846136189774,232.36080862749486L522.6447184002716,225.80238940455638L512.6509367272223,219.55627585890034L496.4110415085165,214.55938502237552L482.04498035350736,201.75485225378043L485.79264848090116,200.5056295446493L477.67270087154805,193.0102932898618L477.0480895169825,187.38879109877132L466.42969648936713,184.57804000322608L460.8081942982767,192.0733762580137L455.81130346175183,186.1395683896402L455.81130346175183,180.2057605212667L456.43591481631785,179.89345484398416L459.918623478054,178.64963032193543M440.58960114779006,178.64963032193543L432.70068334282445,182.07959458496384L433.32529469739,190.51184787159957L431.4514606336934,195.5087387081245L437.0729628247838,204.25329767204266L453.3128580434896,212.9978566359614L462.0574170074083,227.36391779096994L481.4203689989418,241.4176732686966L495.1618187993849,241.4176732686966L499.53409828134426,245.16534139608996L494.5372074448194,248.60070384620064L510.1524913089596,254.8468173918567L522.6447184002716,260.1560139056646L537.6353909098463,269.2128785468658L539.5092249735429,272.33593531969404L536.3861682007151,278.58204886535L526.3923865276654,270.4621012559969L511.4017140180907,267.65135016045167L503.90637776330357,278.8943545426325L516.3986048546155,285.14046808828846L514.524770790919,294.1973327294902L507.65404589069743,295.4465554386213L498.2848755722132,310.1249222709131L490.78953931742603,311.686450657327L490.78953931742603,306.37725414351917L494.5372074448194,297.00808382503544L498.2848755722132,293.26041569764175L491.4141506719916,283.2666340245919L486.4172598354667,274.5220750606733L478.9219235806796,272.33593531969404L473.92503274415475,264.84059906490654L462.68202836197383,261.71754229207875L455.1866921071863,254.53451171457414L442.0698536613087,253.59759468272557L428.95301521543115,245.78995275065552L412.71311999672537,234.54694836847455L400.84550425997844,224.5531666954248L395.848613423454,207.3763544448708L387.10405445953535,205.19021470389123L372.73799330452624,199.56871251280074L365.24265704973914,201.75485225378043L355.24887537668934,209.87479986313303L347.75353912190224,211.12402257226472L332.138255257762,221.117804245314L297.78463075665377,216.4332190860722L272.8001765740293,222.05472127716257L270.30173115576713,232.36080862749486L271.55095386489825,242.35459030054471L255.31105864619244,253.90990036000858L232.82504988183064,257.6575684874018L231.57582717269955,263.5913763557754L220.33282279051866,273.27285235154216L214.08670924486267,287.32660782926826L220.95743414508422,297.320389502318L210.96365247203443,304.81572575710504L207.2159843446411,316.05873013928624L194.09914589876306,319.8063982666798L181.60691880745105,332.9232367125576L159.7455213976549,333.23554238984036L142.8810148243835,332.9232367125576L132.26262179676814,339.1693502582136L125.39189689654665,345.72776948115256L117.27194928719354,344.16624109473844L110.40122438697193,338.2324332263653L105.40433355044706,328.23865155331544L89.16443833174128,325.740206135053L82.29371343151973,330.11248561701245L79.99999999999994,329.4571389222925M79.99999999999994,210.40242829314585L80.41987936782306,210.18710554041604L101.65666542305377,213.31016231324384L124.7672855419811,213.31016231324384L143.50562617894906,216.12091340878908L157.87168733395822,215.49630205422363L185.97919828941042,215.80860773150664L194.7237572533286,205.50252038117424L197.14293653794488,178.64963032193543" style="fill: none; stroke-miterlimit: 2; stroke: rgb(68, 68, 68); stroke-opacity: 1; stroke-width: 1px;"/></g><g class="layer backplot"><g class="choroplethlayer"><g class="trace choropleth"><path class="choroplethlocation" fill="rgb(8, 48, 107)" d="M79.99999999999994,210.40242829314585L80.41987936782306,210.18710554041604L101.65666542305377,213.31016231324384L124.7672855419811,213.31016231324384L143.50562617894906,216.12091340878908L157.87168733395822,215.49630205422363L185.97919828941042,215.80860773150664L192.84992318963202,222.67933263172813L224.705102272478,230.48697456379819L230.95121581813402,226.7393064364045L250.31416780966754,234.54694836847455L270.30173115576713,232.36080862749486L271.55095386489825,242.35459030054471L255.31105864619244,253.90990036000858L232.82504988183064,257.6575684874018L231.57582717269955,263.5913763557754L220.33282279051866,273.27285235154216L214.08670924486267,287.32660782926826L220.95743414508422,297.320389502318L210.96365247203443,304.81572575710504L207.2159843446411,316.05873013928624L194.09914589876306,319.8063982666798L181.60691880745105,332.9232367125576L159.7455213976549,333.23554238984036L142.8810148243835,332.9232367125576L132.26262179676814,339.1693502582136L125.39189689654665,345.72776948115256L117.27194928719354,344.16624109473844L110.40122438697193,338.2324332263653L105.40433355044706,328.23865155331544L89.16443833174128,325.740206135053L89.16443833174128,325.740206135053L87.91521562261016,319.8063982666798L94.16132916826615,313.247979043741L96.6597745865289,308.56339388449896L91.03827239543841,303.5665030479739L95.41055187739727,292.01119298851063L88.53982697717572,281.70510563817777L96.03516323196334,280.45588292904665L96.6597745865289,272.02362964241104L99.78283135935663,269.5251842241488L99.78283135935663,256.09604010098826L107.9027789687097,251.4114549417459L102.90588813218488,242.66689597782772L92.91210645913509,242.04228462326216L89.78904968630678,244.22842436424185L79.99999999999994,244.22842436424185L79.99999999999994,210.40242829314585Z" style="stroke: rgb(68, 68, 68); stroke-opacity: 1; stroke-width: 1px; opacity: 1;"/><path class="choroplethlocation" fill="rgb(86, 160, 206)" d="M675.0498889142797,356.97077386333353L672.551443496017,361.9676646998581L647.5669893133929,363.52919308627224L648.1916006679585,360.718441990727L626.9548146127279,357.2830795406163L630.0778713855561,349.7877432858289L639.4470417040399,355.7215511542022L653.1884915044834,354.78463412235385L665.6807185957954,356.03385683148497L665.6807185957954,358.8446079270302ZM616.961032939678,252.03606629631145L630.0778713855561,252.66067765087746L643.8193211859992,247.9760924916351L655.6869369227456,253.90990036000858L671.9268321414514,252.34837197359445L671.9268321414514,243.60381300967583L680.0467797508045,248.2883981689181L675.0498889142797,258.9067911965335L670.6776094323203,261.0929309375132L660.059216404705,260.46831958294706L651.3146574407867,258.9067911965335L630.0778713855561,263.2790706784923L641.9454871223026,273.27285235154216L633.2009281583838,276.0836034470873L623.8317578399001,276.0836034470873L614.4625875214159,267.0267388058861L611.3395307485875,270.7744069332799L615.0871988759814,281.0804942836122L623.8317578399001,289.2004418929654L617.585644294244,293.26041569764175L626.9548146127279,301.0680576297118L635.6993735766466,306.06494846623673L635.6993735766466,316.05873013928624L620.0840897125063,311.3741449800442L625.0809805490312,320.1187039439626L613.8379761668504,321.9925380076595L620.7087010670718,337.29551619451695L608.8410853303254,337.60782187179973L594.4750241753163,330.11248561701245L588.2289106296603,316.05873013928624L585.1058538568325,304.5034200798225L578.2351289566104,296.69577814775243L569.4905699926923,286.7019964747027L568.2413472835613,281.70510563817777L576.3612948929139,273.27285235154216L577.6105176020449,267.65135016045167L583.2320197931354,265.15290474218943L583.2320197931354,260.7806252602302L594.4750241753163,259.21909687381594L601.3457490755384,255.4714287464227L610.714919394022,255.78373442370514L613.8379761668504,252.66067765087746Z" style="stroke: rgb(68, 68, 68); stroke-opacity: 1; stroke-width: 1px; opacity: 1;"/><path class="choroplethlocation" fill="rgb(177, 210, 232)" d="M440.58960114779006,178.64963032193543L432.70068334282445,182.07959458496384L433.32529469739,190.51184787159957L431.4514606336934,195.5087387081245L437.0729628247838,204.25329767204266L453.3128580434896,212.9978566359614L462.0574170074083,227.36391779096994L481.4203689989418,241.4176732686966L495.1618187993849,241.4176732686966L499.53409828134426,245.16534139608996L494.5372074448194,248.60070384620064L510.1524913089596,254.8468173918567L522.6447184002716,260.1560139056646L537.6353909098463,269.2128785468658L539.5092249735429,272.33593531969404L536.3861682007151,278.58204886535L526.3923865276654,270.4621012559969L511.4017140180907,267.65135016045167L503.90637776330357,278.8943545426325L516.3986048546155,285.14046808828846L514.524770790919,294.1973327294902L507.65404589069743,295.4465554386213L498.2848755722132,310.1249222709131L490.78953931742603,311.686450657327L490.78953931742603,306.37725414351917L494.5372074448194,297.00808382503544L498.2848755722132,293.26041569764175L491.4141506719916,283.2666340245919L486.4172598354667,274.5220750606733L478.9219235806796,272.33593531969404L473.92503274415475,264.84059906490654L462.68202836197383,261.71754229207875L455.1866921071863,254.53451171457414L442.0698536613087,253.59759468272557L428.95301521543115,245.78995275065552L412.71311999672537,234.54694836847455L400.84550425997844,224.5531666954248L395.848613423454,207.3763544448708L387.10405445953535,205.19021470389123L372.73799330452624,199.56871251280074L365.24265704973914,201.75485225378043L355.24887537668934,209.87479986313303L347.75353912190224,211.12402257226472L349.6273731855989,203.6286863174771L340.25820286711513,201.44254657649742L335.8859233851558,188.01340245333688L342.1320369308118,182.7042059395294L338.6566864014456,178.64963032193543L440.58960114779006,178.64963032193543ZM474.54964409872025,307.6264768526503L488.2910938991634,306.06494846623673L482.04498035350736,319.49409258939704L484.54342577177005,325.1155947804874L480.79575764437624,333.8601537444059L467.67891919849876,327.3017345214671L458.93436023458,325.4279004577702L434.57451740652164,316.6833414938518L437.0729628247838,307.9387825299334L457.0605261708834,309.50031091634753ZM369.6149365316985,259.8437082283815L378.35949549561667,254.22220603729113L388.97788852323197,266.71443312860356L386.4794431049698,289.51274757024794L378.35949549561667,288.5758305383998L371.4887705953951,294.1973327294902L365.24265704973914,289.82505324753095L363.993434340608,268.58826719230024L360.2457662132142,258.9067911965335Z" style="stroke: rgb(68, 68, 68); stroke-opacity: 1; stroke-width: 1px; opacity: 1;"/><path class="choroplethlocation" fill="rgb(223, 236, 247)" d="M786.855321381523,359.469219281596L789.9783781543513,360.40613631344434L794.3506576363101,359.156913604313L798.0983257637039,359.156913604313L799.3475484728349,360.40613631344434L799.3475484728349,361.9676646998581L800.5967711819667,361.34305334529256L803.0952166002288,361.65535902257534L806.2182733730571,360.40613631344434L808.0921074367536,361.0307476680098L808.7167187913192,362.2799703771411L791.2276008634824,369.4630009546455L782.4830418995637,367.2768612136658L778.1107624176043,360.40613631344434Z" style="stroke: rgb(68, 68, 68); stroke-opacity: 1; stroke-width: 1px; opacity: 1;"/><path class="choroplethlocation" fill="rgb(247, 251, 255)" style="stroke: rgb(68, 68, 68); stroke-opacity: 1; stroke-width: 1px; opacity: 1;"/></g></g></g><g class="layer lakes"><path style="stroke: none; fill: rgb(255, 255, 255); fill-opacity: 1;"/></g><g class="layer frontplot"><g class="scatterlayer"/></g></g></g><g class="funnelarealayer"/><g class="pielayer"/><g class="iciclelayer"/><g class="treemaplayer"/><g class="sunburstlayer"/><g class="glimages"/><defs id="topdefs-bbb4a5"><g class="clips"/></defs><g class="layer-above"><g class="imagelayer"/><g class="shapelayer"/></g><g class="infolayer"><g class="cbcoloraxis colorbar" transform="translate(80,100)"><rect class="cbbg" x="814" y="0" width="94.484375" height="420" style="fill: rgb(0, 0, 0); fill-opacity: 0; stroke: rgb(68, 68, 68); stroke-opacity: 1; stroke-width: 0;"/><g class="cbfills" transform="translate(0,32)"><rect class="cbfill gradient_filled" style="fill: url('#gbbb4a5-cbcoloraxis');" x="824" y="0" width="30" height="378"/></g><g class="cblines" transform="translate(0,32)"/><g class="cbaxis crisp" transform="translate(0,-100)"><g class="ycbcoloraxistick"><text text-anchor="start" x="856.9" y="4.199999999999999" transform="translate(0,459.21000000000004)" style="font-family: 'Open Sans', verdana, arial, sans-serif; font-size: 12px; fill: rgb(42, 63, 95); fill-opacity: 1; white-space: pre; opacity: 1;">2k</text></g><g class="ycbcoloraxistick"><text text-anchor="start" x="856.9" y="4.199999999999999" style="font-family: 'Open Sans', verdana, arial, sans-serif; font-size: 12px; fill: rgb(42, 63, 95); fill-opacity: 1; white-space: pre; opacity: 1;" transform="translate(0,406.6700000000001)">4k</text></g><g class="ycbcoloraxistick"><text text-anchor="start" x="856.9" y="4.199999999999999" style="font-family: 'Open Sans', verdana, arial, sans-serif; font-size: 12px; fill: rgb(42, 63, 95); fill-opacity: 1; white-space: pre; opacity: 1;" transform="translate(0,354.12)">6k</text></g><g class="ycbcoloraxistick"><text text-anchor="start" x="856.9" y="4.199999999999999" style="font-family: 'Open Sans', verdana, arial, sans-serif; font-size: 12px; fill: rgb(42, 63, 95); fill-opacity: 1; white-space: pre; opacity: 1;" transform="translate(0,301.57000000000005)">8k</text></g><g class="ycbcoloraxistick"><text text-anchor="start" x="856.9" y="4.199999999999999" style="font-family: 'Open Sans', verdana, arial, sans-serif; font-size: 12px; fill: rgb(42, 63, 95); fill-opacity: 1; white-space: pre; opacity: 1;" transform="translate(0,249.02000000000004)">10k</text></g><g class="ycbcoloraxistick"><text text-anchor="start" x="856.9" y="4.199999999999999" style="font-family: 'Open Sans', verdana, arial, sans-serif; font-size: 12px; fill: rgb(42, 63, 95); fill-opacity: 1; white-space: pre; opacity: 1;" transform="translate(0,196.48000000000002)">12k</text></g><g class="ycbcoloraxistick"><text text-anchor="start" x="856.9" y="4.199999999999999" style="font-family: 'Open Sans', verdana, arial, sans-serif; font-size: 12px; fill: rgb(42, 63, 95); fill-opacity: 1; white-space: pre; opacity: 1;" transform="translate(0,143.93000000000004)">14k</text></g></g><g class="cbtitleunshift" transform="translate(-80,-100)"><g class="cbtitle" transform=""><text class="ycbcoloraxistitle" x="903.96" y="123.5" text-anchor="start" style="font-family: 'Open Sans', verdana, arial, sans-serif; font-size: 14px; fill: rgb(42, 63, 95); opacity: 1; font-weight: normal; white-space: pre;">individuals</text></g></g><rect class="cboutline" x="824" y="32" width="30" height="378" style="stroke: rgb(68, 68, 68); stroke-opacity: 1; fill: none; stroke-width: 0;"/></g><g class="g-gtitle"><text class="gtitle" x="50" y="50" text-anchor="start" dy="0em" style="font-family: 'Open Sans', verdana, arial, sans-serif; font-size: 17px; fill: rgb(42, 63, 95); opacity: 1; font-weight: normal; white-space: pre;">Mediterranean Situation Arrivals by Country</text></g></g></svg>