<?xml version="1.0" encoding="utf-8"?>
<!-- Generator: Adobe Illustrator 28.2.0, SVG Export Plug-In . SVG Version: 6.00 Build 0)  -->
<svg version="1.1" id="Layer_1" xmlns="http://www.w3.org/2000/svg" xmlns:xlink="http://www.w3.org/1999/xlink" x="0px" y="0px"
	 viewBox="0 0 852.4 291.5" style="enable-background:new 0 0 852.4 291.5;" xml:space="preserve">
<style type="text/css">
	.st0{fill:#74C2FF;}
	.st1{clip-path:url(#SVGID_00000112595371770753024260000007405136263869637015_);}
	.st2{fill:#E5ECF6;}
	.st3{fill:none;stroke:#000000;stroke-miterlimit:2;}
	.st4{fill:none;stroke:#444444;stroke-miterlimit:2;}
	.st5{fill:#00441B;stroke:#444444;}
	.st6{fill:#5AB769;stroke:#444444;}
	.st7{fill:#B3E1AD;stroke:#444444;}
	.st8{fill:#E6F5E1;stroke:#444444;}
	.st9{fill:url(#SVGID_00000021097435588256481730000011780334208567699113_);}
	.st10{fill:none;}
	.st11{font-family:'MyriadPro-Regular';}
	.st12{font-size:13.271px;}
	.st13{fill:#FFFFFF;}
	.st14{font-size:12px;}
</style>
<rect x="0.5" y="0.5" class="st0" width="851.9" height="291"/>
<g>
	<g>
		<defs>
			<rect id="SVGID_1_" x="0.5" y="0.5" width="851.4" height="290.5"/>
		</defs>
		<clipPath id="SVGID_00000181062844075801977210000007657851022338660028_">
			<use xlink:href="#SVGID_1_"  style="overflow:visible;"/>
		</clipPath>
		<g style="clip-path:url(#SVGID_00000181062844075801977210000007657851022338660028_);">
			<g>
				<path class="st2" d="M776,198.7l1.3,3.5l0.7,1.4l-18.7,7.9l-9.3-2.4l-4.7-7.6l9.3-1h1.3l2.7-4.5l13.3,0.3l16.7-5.9L776,198.7z
					 M635.4,197.7l-2.7,5.5L606,205l0.7-3.1l-22.7-3.8l3.3-8.3l10,6.6l14.7-1l13.3,1.4v3.1L635.4,197.7z M421.4,143.1l14.7-1.7
					l-6.7,14.9l2.7,6.2l-4,9.7l-14-7.3l-9.3-2.1l-26-9.7l2.7-9.7l21.3,1.7L421.4,143.1z M309.5,90.3l9.3-6.2l11.3,13.8l-2.7,25.2
					l-8.7-1l-7.3,6.2l-6.7-4.8l-1.3-23.5l-4-10.7L309.5,90.3z M310.2,57.1l12-7.6l3.3,16.6l-6,14.9l-8.7-3.8l-4-13.1L310.2,57.1z
					 M0.5,231.4l6.4-3l14-7.9l12-20l6-11.7h13.3l11.3,8.3l17.3-1.4l19.3,4.1l8,0.3l18-10.4l20-3.5l11.3-7.9l18-5.9l31.3-3.5
					l30.7-1.4l9.3,2.8l17.3-7.6h20l7.3,4.5l12.7-1.4l20.7-7.6l12.7,2.1l-0.7,9.7l16-6.9l1.3,3.8l-9.3,9.3v9l6,4.5l-2,16.6l-12.7,9.7
					l4,10.7l9.3,0.3l4.7,9l7.3,3.1l21.3,6.6l8-1.7l15.3,3.1l24.7,8.6l8.7,17.3l16.7,3.5l26,8.3l13.5,6.3H0.5V231.4z M507.5,291
					l3.2-1.8l8.7-9l-4-14.5l6-9.3l13.3-9l12.7-2.8l24.7,3.8l6.7,8.6h6.7l6,3.5l18.7,2.1l4,6.6l24.7-0.3l18,5.2l18.7,5.5l8.7,3.1
					l14-6.2l7.3-5.5l16.7-1.4l13.3,2.4l4.7,9.3l4.7-6.2l14.7,4.5l14.7,1l8.7-4.8l5.3-6.2l-1.3-1l5.3-9l3.3-14.5l2.7-4.8l0.7-0.3
					l6.7-15.5l9.3-13.5v-0.7l-1.3-14.9l4.7-7.6l-7.3-9l7.3-6.9l-11.3,1.4l-15.3-4.1l-12.7,10.7l-28.7,2.4l-14.7-10.4l-20-0.7l-4,7.9
					l-13.3,2.4l-17.3-10.4l-20.7,0.3l-10.7-19l-14-10.7l9.3-14.9l-12-9.3l20.7-18.3l28.7-0.7l8-14.5l35.3,2.4l22-12.4l21.3-5.5
					l30.7-0.3l32.7,13.5l19.9,5.7V291H507.5z M851.9,21l-8.6-2.9l-16-11.4l13.3-3.1l3-3.1h8.3V21z M799.5,0.5l6.4,3.1l18.7-1
					l-3.3,6.6l-20.7,3.5L776,23.6l-10.7-3.8l4-9l-20-5.5l3.3-3.8l2.7-1H799.5z M701.8,0.5l-5.1,5.2v5.2L688,15l-6-1.7l-4.7,23.1
					l-10,7.9l-6.7,13.5l6,11.1l2,7.3l16.7,6.2l-3.3,4.8l-22,1l-8,5.9l-15.3,10.4l-6-9v-3.8L619.4,91l-9.3-1.7l-22.7,4.8l12.7,11.1
					l-9.3,3.1h-10l-10-10l-3.3,4.1l4,11.4l9.3,9l-6.7,4.5l10,8.6l9.3,5.5v11.1l-16.7-5.2l5.3,9.7l-12,2.1l7.3,16.9l-12.7,0.3
					l-15.3-8.3l-6.7-15.5l-3.3-12.8l-7.3-8.6l-9.3-11.1l-1.3-5.5l-3.3-1.4v-4.1l-10-6.2l-2-9.3l1.3-13.1l2.7-5.9l-2.7-3.1l-4-1.4
					l-5.3-6.2l-8-3.8l-17.3-7.3l-10.7-6.9l-17.3-5.5l-15.3-14.2l4-1.4l-8.7-8.3l-0.7-6.2l-11.3-3.1l-6,8.3l-5.3-6.6V2.2l0.7-0.3
					l3.7-1.4H701.8z M385.2,0.5l-8.4,3.8l0.7,9.3l-2,5.5l6,9.7l17.3,9.7l9.3,15.9l20.7,15.5h14.7l4.7,4.1l-5.3,3.8l16.7,6.9
					l13.3,5.9l16,10l2,3.5l-3.3,6.9l-10.7-9l-16-3.1l-8,12.4l13.3,6.9l-2,10l-7.3,1.4l-10,16.2l-8,1.7v-5.9l4-10.4l4-4.1l-7.3-11.1
					l-5.3-9.7l-8-2.4l-5.3-8.3l-12-3.5l-8-7.9l-14-1l-14-8.6l-17.3-12.4l-12.7-11.1l-5.3-19l-9.3-2.4l-15.3-6.2l-8,2.4l-10.7,9
					l-8,1.4l-16.7,11.1l-36.7-5.2l-26.7,6.2l-2.7,11.4l1.3,11.1l-17.3,12.8l-24,4.1l-1.3,6.6l-12,10.7l-6.7,15.5l7.3,11.1l-10.7,8.3
					l-4,12.4l-14,4.1l-13.3,14.5l-23.3,0.3l-18-0.3L56.3,178l-7.3,7.3l-8.7-1.7l-7.3-6.6l-5.3-11.1l-17.3-2.8L2.9,168l-2.4-0.7V35.6
					l0,0l0.4-0.2l22.7,3.5h24.7l20,3.1l15.3-0.7l30,0.3l9.3-11.4l2.6-29.7H385.2z"/>
			</g>
			<g>
				<path class="st3" d="M851.9,21l-8.6-2.9l-16-11.4l13.3-3.1l3-3.1h8.3V21z M799.5,0.5l6.4,3.1l18.7-1l-3.3,6.6l-20.7,3.5
					L776,23.6l-10.7-3.8l4-9l-20-5.5l3.3-3.8l2.7-1H799.5z M276.5,0.5l3.7,4.5l-6.7,5.9l4.7,14.9l10,2.4l-2,8.3l-16.7,11.1
					l-36.7-5.2l-26.7,6.2l-2.7,11.4l-21.3,2.4l-20.7-8.6l-6.7,4.1l-34-8.6l-7.3-7.6l9.3-11.4l2.6-29.7H276.5z M310.2,57.1l12-7.6
					l3.3,16.6l-6,14.9l-8.7-3.8l-4-13.1L310.2,57.1z M788.4,291l-5.8-15.3l5.3-6.2l-1.3-1l5.3-9l3.3-14.5l2.7-4.8l0.7-0.3h6l2-3.1
					l4.7-0.3l0.7,7.9l-2.7,2.8l0.7,0.3l0,0l-3.3,5.9l-6.7-2.8l-4,12.8l4.7,2.4l-4.7,2.4l-0.7,5.2l8.7-2.8v7.6l-3.9,12.8H788.4z
					 M811.3,236.4l-4.7,0.3l-2,3.1h-6l6.7-15.5l9.3-13.5v-0.7l8.7,1l2.7,7.6l-10,7.3L811.3,236.4z M804,270.6l-8.7,2.8l0.7-5.2
					l4.7-2.4l-4.7-2.4l4-12.8l6.7,2.8v11.7L804,270.6z M323.6,291l-7.5-32.2l-11.3-7.6v-4.8L289.5,235l-2-14.5l12-10.7l4-15.5
					l-2.7-18.3l3.3-10l20.7-7.6l12.7,2.1l-0.7,9.7l16-6.9l1.3,3.8l-9.3,9.3v9l6,4.5l-2,16.6l-12.7,9.7l4,10.7l9.3,0.3l4.7,9l7.3,3.1
					l-1.3,14.5l-9.3,5.5l-5.3,6.2l-12.7,7.6l2,7.9l-2,7.9l-4.1,2.1H323.6z M57.8,291l1.1-1.4l21.3-7.6l0.7-14.2l10.7-1.7l8.7-6.9
					l24-3.5l3.3-7.3l-4.7-4.1l-6.7-20.4l-0.7-11.7l-7.3-12.1l18-10.4l20-3.5l11.3-7.9l18-5.9l31.3-3.5l30.7-1.4l9.3,2.8l17.3-7.6h20
					l7.3,4.1l12.7-1l-3.3,10l2.7,18.3l-4,15.5l-12,10.7l2,14.5l15.3,11.4v4.8l11.3,7.6l7.5,32.2H57.8z M851.9,265.4l-18.6,4.8
					l18.6,19.3v0.1l0,0l-2.7,1.4h-49.1l0,0l3.9-12.8v-7.6l2.7-5.5v-11.7l0,0l3.3-5.9l20.7,7.6l17.9-10.4l3.4-1.9V265.4z
					 M851.9,242.7l-3.4,1.9L830.6,255l-20.7-7.6l0,0l-0.7-0.3l2.7-2.8l-0.7-7.9l4.7-10.4l10-7.3l-2.7-7.6l-8.7-1l-1.3-14.9l4.7-7.6
					l4.7-4.5l4.7-4.1l1.3-10.7l6,3.8l17.3-4.3V242.7z M701.8,0.5l-5.1,5.2L688,2.6l-8.7,3.1l-8-3.5l3.9-1.7H701.8z M675.2,0.5
					l-3.9,1.7l-0.6-1.7H675.2z M670.7,0.5l0.6,1.7l0,0l8,3.5l8.7-3.1l8.7,3.1v5.2L688,15l-6-1.7l-4.7,23.1L666,34.3l-13.3-6.9
					l-22,4.1l-8.7,5.2l-27.3-1l-14-3.1l-7.3,1.4l-5.3-7.9l-3.3-3.1l4-3.5l-4.7-2.4l-5.3,4.5L547.4,16l-1.3-7.9l-11.3-4.5l-1-3.1
					H670.7z M568,26.1l5.3,7.9l7.3-1.4l14,3.1l27.3,1l8.7-5.2l22-4.1l13.3,6.9l11.3,2.1l-10,7.9l-6.7,13.5l6,11.1l-16-2.4L632,72.3
					V82l-17.3,1.7L602,77.2l-14.7,5.2l-14-0.7L572,68.9l-9.3-5.9l3.3-2.8l-2-2.4l2.7-6.2l7.3-5.9l-9.3-8.3l-1.3-6.9L568,26.1z
					 M635.4,197.7l-2.7,5.5L606,205l0.7-3.1l-22.7-3.8l3.3-8.3l10,6.6l14.7-1l13.3,1.4v3.1L635.4,197.7z M573.4,81.7l14,0.7
					l14.7-5.2l12.7,6.6L632,82v-9.7l8.7,5.2l-5.3,11.7l-4.7,2.4L619.4,91l-9.3-1.7l-22.7,4.8l12.7,11.1l-9.3,3.1h-10l-10-10
					l-3.3,4.1l4,11.4l9.3,9l-6.7,4.5l10,8.6l9.3,5.5v11.1l-16.7-5.2l5.3,9.7l-12,2.1l7.3,16.9l-12.7,0.3l-15.3-8.3l-6.7-15.5
					l-3.3-12.8l-7.3-8.6l-9.3-11.1l-1.3-5.5l8.7-9.3l1.3-6.2l6-2.8v-4.8l12-1.7l7.3-4.1l10,0.3l3.3-3.5L573.4,81.7z M851.9,167.8
					l-17.3,4.3l-6-3.8l-1.3,10.7l-4.7,4.1l-4.7,4.5l-7.3-9l7.3-6.9l-11.3,1.4l-15.3-4.1l-12.7,10.7l-28.7,2.4l-14.7-10.4l-20-0.7
					l-4,7.9l-13.3,2.4l-17.3-10.4l-20.7,0.3l-10.7-19l-14-10.7l9.3-14.9l-12-9.3l20.7-18.3l28.7-0.7l8-14.5l35.3,2.4l22-12.4
					l21.3-5.5l30.7-0.3l32.7,13.5l19.9,5.7V167.8z M632,72.3l18.7-5.9l16,2.4l2,7.3l16.7,6.2l-3.3,4.8l-22,1l-8,5.9l-15.3,10.4l-6-9
					v-3.8l4.7-2.4l5.3-11.7L632,72.3z M537.4,91.3v4.8l-6,2.8l-1.3,6.2l-8.7,9.3l-3.3-1.4v-4.1l-10-6.2l-2-9.3l1.3-13.1l2.7-5.9
					l-2.7-3.1l-1.3-5.9l8-9.7l0.7,3.8l5.3-1.7l4,5.2l4.7,1.7l0.7,6.9l-2,6.6l2.7,8.3L537.4,91.3z M500.8,0.5l0.6,1l6,5.5l-7.3,7.3
					l-8-4.5l-12.7,0.3l-16-3.1l-8.7,0.3l-4,4.1l-6.7-4.5l-4,7.9l9.3,9l4,5.9l8,7.3l7.3,4.1l6.7,7.9l16.7,7.3l-2,3.5l-17.3-7.3
					l-10.7-6.9l-17.3-5.5l-15.3-14.2l4-1.4l-8.7-8.3l-0.7-6.2l-11.3-3.1l-6,8.3l-5.3-6.6V2.2l0.7-0.3l13.3,0.7l2-2.1h3.7l0,0
					l3.6,2.1l7.3,0.3V0.5H500.8z M0.5,73h10.4l3.3-2.4l10.7,0.7l5.3,9.7l-8.7,5.2V101l-3.3,2.8l-0.7,9.3l-8,1.4l7.3,11.4l-4.7,12.8
					l6,5.5l-2.7,5.2l-6.7,7.3l1.3,6.6L2.9,168l-2.4-0.7V73z M0.5,35.6l0.4-0.2l22.7,3.5h24.7l20,3.1l15.3-0.7l30,0.3l7.3,7.6l34,8.6
					l6.7-4.1l20.7,8.6l21.3-2.4l1.3,11.1l-17.3,12.8l-24,4.1l-1.3,6.6l-12,10.7l-6.7,15.5l7.3,11.1l-10.7,8.3l-4,12.4l-14,4.1
					l-13.3,14.5l-23.3,0.3l-18-0.3L56.3,178l-7.3,7.3l-8.7-1.7l-7.3-6.6l-5.3-11.1l-17.3-2.8l0,0l-1.3-6.6l6.7-7.3l2.7-5.2l-6-5.5
					l4.7-12.8l-7.3-11.4l8-1.4l0.7-9.3l3.3-2.8V86.1l8.7-5.2l-5.3-9.7l-10.7-0.7L10.9,73H0.5V35.6z M385.2,0.5l-8.4,3.8l0.7,9.3
					l-2,5.5l6,9.7l17.3,9.7l9.3,15.9l20.7,15.5h14.7l4.7,4.1l-5.3,3.8l16.7,6.9l13.3,5.9l16,10l2,3.5l-3.3,6.9l-10.7-9l-16-3.1
					l-8,12.4l13.3,6.9l-2,10l-7.3,1.4l-10,16.2l-8,1.7v-5.9l4-10.4l4-4.1l-7.3-11.1l-5.3-9.7l-8-2.4l-5.3-8.3l-12-3.5l-8-7.9l-14-1
					l-14-8.6l-17.3-12.4l-12.7-11.1l-5.3-19l-9.3-2.4l-15.3-6.2l-8,2.4l-10.7,9l-8,1.4l2-8.3l-10-2.4l-4.7-14.9l6.7-5.9l-3.7-4.5
					H385.2z M421.4,143.1l14.7-1.7l-6.7,14.9l2.7,6.2l-4,9.7l-14-7.3l-9.3-2.1l-26-9.7l2.7-9.7l21.3,1.7L421.4,143.1z M309.5,90.3
					l9.3-6.2l11.3,13.8l-2.7,25.2l-8.7-1l-7.3,6.2l-6.7-4.8l-1.3-23.5l-4-10.7L309.5,90.3z M432.1,0.5v2.4l-7.3-0.3l-3.6-2.1H432.1z
					 M417.4,0.5l-2,2.1l-13.3-0.7l3.7-1.4H417.4z M849.1,291l2.7-1.4v1.4H849.1z M851.9,289.5l-18.6-19.3l18.6-4.8V289.5z
					 M754.6,200.5h1.3l2.7-4.5l13.3,0.3l16.7-5.9l-12.7,8.3l1.3,3.5l-2-0.7l-3.3,1.4l-2.7-0.3l-1.3,0.7v-1.7l-1.3-1.4h-4l-4.7,1.4
					L754.6,200.5z M754.6,200.5l3.3,1l4.7-1.4h4l1.3,1.4v1.7l1.3-0.7l2.7,0.3l3.3-1.4l2,0.7l0.7,1.4l-18.7,7.9l-9.3-2.4l-4.7-7.6
					L754.6,200.5z M0.5,231.4l6.4-3l14-7.9l12-20l6-11.7h13.3l11.3,8.3l17.3-1.4l19.3,4.1l8,0.3l0,0l7.3,12.1l0.7,11.7l6.7,20.4
					l4.7,4.1l-3.3,7.3l-24,3.5l-8.7,6.9l-10.7,1.7L80.2,282l-21.3,7.6l-1.1,1.4H0.5V231.4z M608.9,291l1.8-4.6l-3.3-8.3l6.7-9
					l24.7-0.3l18,5.2l18.7,5.5l8.7,3.1l14-6.2l7.3-5.5l16.7-1.4l13.3,2.4l4.7,9.3l4.7-6.2l14.7,4.5l14.7,1l8.7-4.8l5.8,15.3H608.9z
					 M328.7,291l4.1-2.1l2-7.9l-2-7.9l12.7-7.6l5.3-6.2l9.3-5.5l1.3-14.5l21.3,6.6l8-1.7l15.3,3.1l24.7,8.6l8.7,17.3l16.7,3.5
					l26,8.3l13.5,6.3H328.7z M507.5,291l3.2-1.8l8.7-9l-4-14.5l6-9.3l13.3-9l12.7-2.8l24.7,3.8l6.7,8.6h6.7l6,3.5l18.7,2.1l4,6.6
					l-6.7,9l3.3,8.3l-1.8,4.6H507.5z M492.1,56.4l-16.7-7.3l-6.7-7.9l-7.3-4.1l-8-7.3l-4-5.9l-9.3-9l4-7.9l6.7,4.5l4-4.1l8.7-0.3
					l16,3.1l12.7-0.3l8,4.5l6.7-0.3l-4.7,8.6l9.3,7.3l-2.7,9l-4.7,1l-3.3,1.7l-6,4.5L492.1,56.4z M562.7,63l9.3,5.9l1.3,12.8
					l-3.3,0.7l-3.3,3.5l-10-0.3l-7.3,4.1l-12,1.7l-7.3-4.8l-2.7-8.3l2-6.6l2.7,0.3l0.7-3.8l11.3-3.1l4-0.7l6-1L562.7,63z M533.7,0.5
					l1,3.1l11.3,4.5l1.3,7.9l11.3,5.5l5.3-4.5l4.7,2.4l-4,3.5l3.3,3.1l-4.7,4.5l1.3,6.9l9.3,8.3l-7.3,5.9l-2.7,6.2l2,2.4l-3.3,2.8
					l-8.7,0.3l-6,1l-0.7-1.4l2-2.4l2-4.8l-2.7,0.3l-3.3-3.8l-3.3-0.7l-2-3.1l-3.3-1l-2.7-2.8l-3.3,1l-2.7,6.2l-4.7,1.4l1.3-1.7
					l-6.7-3.8l-6-2.1l-2.7-2.8l-5.3-3.1l4.7-1l2.7-9l-9.3-7.3l4.7-8.6l-6.7,0.3l7.3-7.3l-6-5.5l-0.6-1H533.7z M520.1,57.8l-5.3,1.7
					l-0.7-3.8l-8,9.7l1.3,5.9l-4-1.4l-5.3-6.2l-8-3.8l2-3.5l2.7-10.4l6-4.5l3.3-1.7l5.3,3.1l2.7,2.8l6,2.1l6.7,3.8l-1.3,1.7
					L520.1,57.8z M529.4,71.6l-0.7-6.9l-4.7-1.7l-4-5.2l3.3-4.5l4.7-1.4l2.7-6.2l3.3-1l2.7,2.8l3.3,1l2,3.1l3.3,0.7l3.3,3.8l2.7-0.3
					l-2,4.8l-2,2.4l0.7,1.4l-4,0.7l-11.3,3.1l-0.7,3.8L529.4,71.6z"/>
			</g>
			<g>
				<path class="st4" d="M758.6,196l13.3,0.3l16.7-5.9l-12.7,8.3l2,4.8l-18.7,7.9l-9.3-2.4l-4.7-7.6l10.7-1L758.6,196 M635.4,197.7
					l-2.7,5.5L606,205l0.7-3.1l-22.7-3.8l3.3-8.3l10,6.6l14.7-1l13.3,1.4v3.1L635.4,197.7 M309.5,90.3l9.3-6.2l11.3,13.8l-2.7,25.2
					l-8.7-1l-7.3,6.2l-6.7-4.8l-1.3-23.5l-4-10.7L309.5,90.3 M310.2,57.1l12-7.6l3.3,16.6l-6,14.9l-8.7-3.8l-4-13.1L310.2,57.1
					 M421.4,143.1l14.7-1.7l-6.7,14.9l2.7,6.2l-4,9.7l-14-7.3l-9.3-2.1l-26-9.7l2.7-9.7l21.3,1.7L421.4,143.1 M843.3,18.1l8.6,2.9
					 M0.5,231.4l6.4-3l14-7.9l12-20l6-11.7h13.3l11.3,8.3l17.3-1.4l19.3,4.1l8,0.3l18-10.4l20-3.5l11.3-7.9l18-5.9l31.3-3.5
					l30.7-1.4l9.3,2.8l17.3-7.6h20l7.3,4.1l12.7-1l20.7-7.6l12.7,2.1l-0.7,9.7l16-6.9l1.3,3.8l-9.3,9.3v9l6,4.5l-2,16.6l-12.7,9.7
					l4,10.7l9.3,0.3l4.7,9l7.3,3.1l21.3,6.6l8-1.7l15.3,3.1l24.7,8.6l8.7,17.3l16.7,3.5l26,8.3l13.5,6.3 M507.5,291l3.2-1.8l8.7-9
					l-4-14.5l6-9.3l13.3-9l12.7-2.8l24.7,3.8l6.7,8.6h6.7l6,3.5l18.7,2.1l4,6.6l24.7-0.3l18,5.2l18.7,5.5l8.7,3.1l14-6.2l7.3-5.5
					l16.7-1.4l13.3,2.4l4.7,9.3l4.7-6.2l14.7,4.5l14.7,1l8.7-4.8l5.3-6.2l-1.3-1l5.3-9l3.3-14.5l2.7-4.8l0.7-0.3l6.7-15.5l9.3-13.5
					v-0.7l-1.3-14.9l4.7-7.6l-7.3-9l7.3-6.9l-11.3,1.4l-15.3-4.1l-12.7,10.7l-28.7,2.4l-14.7-10.4l-20-0.7l-4,7.9l-13.3,2.4
					l-17.3-10.4l-20.7,0.3l-10.7-19l-14-10.7l9.3-14.9l-12-9.3l20.7-18.3l28.7-0.7l8-14.5l35.3,2.4l22-12.4l21.3-5.5l30.7-0.3
					l32.7,13.5l19.9,5.7 M851.9,21l-8.6-2.9l-16-11.4l13.3-3.1l3-3.1 M799.5,0.5l6.4,3.1l18.7-1l-3.3,6.6l-20.7,3.5L776,23.6
					l-10.7-3.8l4-9l-20-5.5l3.3-3.8l2.7-1 M701.8,0.5l-5.1,5.2v5.2L688,15l-6-1.7l-4.7,23.1l-10,7.9l-6.7,13.5l6,11.1l2,7.3
					l16.7,6.2l-3.3,4.8l-22,1l-8,5.9l-15.3,10.4l-6-9v-3.8L619.4,91l-9.3-1.7l-22.7,4.8l12.7,11.1l-9.3,3.1h-10l-10-10l-3.3,4.1
					l4,11.4l9.3,9l-6.7,4.5l10,8.6l9.3,5.5v11.1l-16.7-5.2l5.3,9.7l-12,2.1l7.3,16.9l-12.7,0.3l-15.3-8.3l-6.7-15.5l-3.3-12.8
					l-7.3-8.6l-9.3-11.1l-1.3-5.5l-3.3-1.4v-4.1l-10-6.2l-2-9.3l1.3-13.1l2.7-5.9l-2.7-3.1l-4-1.4l-5.3-6.2l-8-3.8l-17.3-7.3
					l-10.7-6.9l-17.3-5.5l-15.3-14.2l4-1.4l-8.7-8.3l-0.7-6.2l-11.3-3.1l-6,8.3l-5.3-6.6V2.2l0.7-0.3l3.7-1.4 M385.2,0.5l-8.4,3.8
					l0.7,9.3l-2,5.5l6,9.7l17.3,9.7l9.3,15.9l20.7,15.5h14.7l4.7,4.1l-5.3,3.8l16.7,6.9l13.3,5.9l16,10l2,3.5l-3.3,6.9l-10.7-9
					l-16-3.1l-8,12.4l13.3,6.9l-2,10l-7.3,1.4l-10,16.2l-8,1.7v-5.9l4-10.4l4-4.1l-7.3-11.1l-5.3-9.7l-8-2.4l-5.3-8.3l-12-3.5
					l-8-7.9l-14-1l-14-8.6l-17.3-12.4l-12.7-11.1l-5.3-19l-9.3-2.4l-15.3-6.2l-8,2.4l-10.7,9l-8,1.4l-16.7,11.1l-36.7-5.2l-26.7,6.2
					l-2.7,11.4l1.3,11.1l-17.3,12.8l-24,4.1l-1.3,6.6l-12,10.7l-6.7,15.5l7.3,11.1l-10.7,8.3l-4,12.4l-14,4.1l-13.3,14.5l-23.3,0.3
					l-18-0.3L56.3,178l-7.3,7.3l-8.7-1.7l-7.3-6.6l-5.3-11.1l-17.3-2.8L2.9,168l-2.4-0.7 M0.5,35.6l0.4-0.2l22.7,3.5h24.7l20,3.1
					l15.3-0.7l30,0.3l9.3-11.4l2.6-29.7"/>
			</g>
			<g>
				<g>
					<g>
						<path class="st5" d="M0.5,35.6l0.4-0.2l22.7,3.5h24.7l20,3.1l15.3-0.7l30,0.3l7.3,7.6l34,8.6l6.7-4.1l20.7,8.6l21.3-2.4
							l1.3,11.1l-17.3,12.8l-24,4.1l-1.3,6.6l-12,10.7l-6.7,15.5l7.3,11.1l-10.7,8.3l-4,12.4l-14,4.1l-13.3,14.5l-23.3,0.3l-18-0.3
							L56.3,178l-7.3,7.3l-8.7-1.7l-7.3-6.6l-5.3-11.1l-17.3-2.8l0,0l-1.3-6.6l6.7-7.3l2.7-5.2l-6-5.5l4.7-12.8l-7.3-11.4l8-1.4
							l0.7-9.3l3.3-2.8V86.1l8.7-5.2l-5.3-9.7l-10.7-0.7L10.9,73H0.5V35.6z"/>
						<path class="st6" d="M635.4,197.7l-2.7,5.5L606,205l0.7-3.1l-22.7-3.8l3.3-8.3l10,6.6l14.7-1l13.3,1.4v3.1L635.4,197.7z
							 M573.4,81.7l14,0.7l14.7-5.2l12.7,6.6L632,82v-9.7l8.7,5.2l-5.3,11.7l-4.7,2.4L619.4,91l-9.3-1.7l-22.7,4.8l12.7,11.1
							l-9.3,3.1h-10l-10-10l-3.3,4.1l4,11.4l9.3,9l-6.7,4.5l10,8.6l9.3,5.5v11.1l-16.7-5.2l5.3,9.7l-12,2.1l7.3,16.9l-12.7,0.3
							l-15.3-8.3l-6.7-15.5l-3.3-12.8l-7.3-8.6l-9.3-11.1l-1.3-5.5l8.7-9.3l1.3-6.2l6-2.8v-4.8l12-1.7l7.3-4.1l10,0.3l3.3-3.5
							L573.4,81.7z"/>
						<path class="st7" d="M385.2,0.5l-8.4,3.8l0.7,9.3l-2,5.5l6,9.7l17.3,9.7l9.3,15.9l20.7,15.5h14.7l4.7,4.1l-5.3,3.8l16.7,6.9
							l13.3,5.9l16,10l2,3.5l-3.3,6.9l-10.7-9l-16-3.1l-8,12.4l13.3,6.9l-2,10l-7.3,1.4l-10,16.2l-8,1.7v-5.9l4-10.4l4-4.1
							l-7.3-11.1l-5.3-9.7l-8-2.4l-5.3-8.3l-12-3.5l-8-7.9l-14-1l-14-8.6l-17.3-12.4l-12.7-11.1l-5.3-19l-9.3-2.4l-15.3-6.2l-8,2.4
							l-10.7,9l-8,1.4l2-8.3l-10-2.4l-4.7-14.9l6.7-5.9l-3.7-4.5H385.2z M421.4,143.1l14.7-1.7l-6.7,14.9l2.7,6.2l-4,9.7l-14-7.3
							l-9.3-2.1l-26-9.7l2.7-9.7l21.3,1.7L421.4,143.1z M309.5,90.3l9.3-6.2l11.3,13.8l-2.7,25.2l-8.7-1l-7.3,6.2l-6.7-4.8
							l-1.3-23.5l-4-10.7L309.5,90.3z"/>
						<path class="st8" d="M754.6,200.5l3.3,1l4.7-1.4h4l1.3,1.4v1.7l1.3-0.7l2.7,0.3l3.3-1.4l2,0.7l0.7,1.4l-18.7,7.9l-9.3-2.4
							l-4.7-7.6L754.6,200.5z"/>
						<path class="st8" d="M0.5,291"/>
					</g>
				</g>
			</g>
			<g>
				<path class="st8" d="M0.5,291"/>
			</g>
		</g>
	</g>
</g>
<g transform="translate(0,32)">
	
		<linearGradient id="SVGID_00000180362099175703440270000017028132699997424551_" gradientUnits="userSpaceOnUse" x1="-474.7916" y1="657.7389" x2="-474.7916" y2="658.9053" gradientTransform="matrix(1.836970e-15 -30 -378 -2.314582e-14 249477.1875 -13929.6123)">
		<stop  offset="0" style="stop-color:#F7FCF5"/>
		<stop  offset="0.125" style="stop-color:#E5F5E0"/>
		<stop  offset="0.25" style="stop-color:#C7E9C0"/>
		<stop  offset="0.375" style="stop-color:#A1D99B"/>
		<stop  offset="0.5" style="stop-color:#74C476"/>
		<stop  offset="0.625" style="stop-color:#41AB5D"/>
		<stop  offset="0.75" style="stop-color:#238B45"/>
		<stop  offset="0.875" style="stop-color:#006D2C"/>
		<stop  offset="1" style="stop-color:#00441B"/>
	</linearGradient>
	
		<rect x="411" y="299.1" style="fill:url(#SVGID_00000180362099175703440270000017028132699997424551_);" width="440.9" height="30"/>
</g>
<g transform="translate(0,32)">
</g>
<text transform="matrix(0.8573 0 0 1 786.2505 322.8827)" style="fill:#2A3F5F; font-family:'Verdana'; font-size:13.9968px;">2k</text>
<text transform="matrix(0.8573 0 0 1 725.5963 322.8827)" style="fill:#2A3F5F; font-family:'Verdana'; font-size:13.9968px;">4k</text>
<text transform="matrix(0.8573 0 0 1 664.942 322.8827)" style="fill:#2A3F5F; font-family:'Verdana'; font-size:13.9968px;">6k</text>
<text transform="matrix(0.8573 0 0 1 604.2857 322.8827)" style="fill:#2A3F5F; font-family:'Verdana'; font-size:13.9968px;">8k</text>
<text transform="matrix(0.8573 0 0 1 536.0025 322.8827)" style="fill:#2A3F5F; font-family:'Verdana'; font-size:13.9968px;">10k</text>
<text transform="matrix(0.8573 0 0 1 475.3482 322.8827)" style="fill:#2A3F5F; font-family:'Verdana'; font-size:13.9968px;">12k</text>
<text transform="matrix(0.8573 0 0 1 414.6939 322.882)" style="fill:#2A3F5F; font-family:'Verdana'; font-size:13.9968px;">14k</text>
<rect x="411" y="331.1" class="st10" width="440.9" height="30"/>
<text transform="matrix(0.9647 0 0 1 26.834 242.9209)" class="st11 st12">Morocco</text>
<text transform="matrix(0.9647 0 0 1 62.7398 102.185)" class="st13 st11 st12">Spain</text>
<text transform="matrix(0.9647 0 0 1 180.8584 233.4589)" class="st11 st12">Algeria</text>
<text transform="matrix(0.9647 0 0 1 309.771 242.9209)" class="st11 st12">Tunisia</text>
<text transform="matrix(0.9647 0 0 1 381.4888 274.6757)" class="st11 st12">Lybia</text>
<text transform="matrix(0.9647 0 0 1 381.4893 67.8886)" class="st11 st12">Italy</text>
<text transform="matrix(0.9647 0 0 1 532.9947 127.8173)" class="st11 st12">Greece</text>
<text transform="matrix(1 0 0 1 753.3474 230.4531)" class="st11 st14">Cyprus</text>
</svg>
