<?xml version="1.0" encoding="utf-8"?>
<!-- Generator: Adobe Illustrator 28.2.0, SVG Export Plug-In . SVG Version: 6.00 Build 0)  -->
<svg version="1.1" id="Layer_1" xmlns="http://www.w3.org/2000/svg" xmlns:xlink="http://www.w3.org/1999/xlink" x="0px" y="0px"
	 viewBox="0 0 1000 600" style="enable-background:new 0 0 1000 600;" xml:space="preserve">
<style type="text/css">
	.st0{clip-path:url(#SVGID_00000044882112304158799100000013214821133240786818_);}
	.st1{fill:#FFFFFF;}
	.st2{fill:#E5ECF6;}
	.st3{fill:none;stroke:#000000;stroke-miterlimit:2;}
	.st4{fill:none;stroke:#444444;stroke-miterlimit:2;}
	.st5{fill:#00441B;stroke:#444444;}
	.st6{fill:#5AB769;stroke:#444444;}
	.st7{fill:#B3E1AD;stroke:#444444;}
	.st8{fill:#E6F5E1;stroke:#444444;}
	.st9{fill-opacity:0;}
	.st10{fill:url(#SVGID_00000127003962114820050370000002683905487607717515_);}
	.st11{fill:#2A3F5F;}
	.st12{font-family:'Verdana';}
	.st13{font-size:12px;}
	.st14{font-size:14px;}
	.st15{fill:none;}
	.st16{font-size:17px;}
</style>
<g>
	<g>
		<defs>
			<rect id="SVGID_1_" x="96" y="148.1" width="798" height="262.7"/>
		</defs>
		<clipPath id="SVGID_00000065055917288325482990000012442342590125197212_">
			<use xlink:href="#SVGID_1_"  style="overflow:visible;"/>
		</clipPath>
		<g style="clip-path:url(#SVGID_00000065055917288325482990000012442342590125197212_);">
			<g>
				<rect x="96" y="148.1" class="st1" width="798" height="262.7"/>
			</g>
			<g>
				<path class="st2" d="M822.8,327.4l1.2,3.1l0.6,1.2l-17.5,7.2l-8.7-2.2l-4.4-6.9l8.7-0.9h1.2l2.5-4.1l12.5,0.3l15.6-5.3
					L822.8,327.4z M691,326.5l-2.5,5l-25,1.6l0.6-2.8l-21.2-3.4l3.1-7.5l9.4,5.9l13.7-0.9l12.5,1.2v2.8L691,326.5z M490.5,277.1
					l13.7-1.6L498,289l2.5,5.6l-3.7,8.7l-13.1-6.6l-8.7-1.9l-24.4-8.7l2.5-8.7l20,1.6L490.5,277.1z M385.6,229.3l8.7-5.6l10.6,12.5
					l-2.5,22.8l-8.1-0.9l-6.9,5.6l-6.2-4.4l-1.2-21.2l-3.7-9.7L385.6,229.3z M386.2,199.3l11.2-6.9l3.1,15l-5.6,13.4l-8.1-3.4
					l-3.7-11.9L386.2,199.3z M96,356.9l6-2.7l13.1-7.2l11.2-18.1l5.6-10.6h12.5l10.6,7.5l16.2-1.2l18.1,3.7l7.5,0.3l16.9-9.4
					l18.7-3.1l10.6-7.2l16.9-5.3l29.4-3.1l28.7-1.2l8.7,2.5l16.2-6.9h18.7l6.9,4.1l11.9-1.2l19.4-6.9l11.9,1.9l-0.6,8.7l15-6.2
					l1.2,3.4l-8.7,8.4v8.1l5.6,4.1l-1.9,15l-11.9,8.7l3.7,9.7l8.7,0.3l4.4,8.1l6.9,2.8l20,5.9l7.5-1.6l14.4,2.8l23.1,7.8l8.1,15.6
					l15.6,3.1l24.4,7.5l12.6,5.7H96V356.9z M571.2,410.8l3-1.6l8.1-8.1l-3.7-13.1l5.6-8.4l12.5-8.1l11.9-2.5l23.1,3.4l6.2,7.8h6.2
					l5.6,3.1l17.5,1.9l3.7,5.9l23.1-0.3l16.9,4.7l17.5,5l8.1,2.8l13.1-5.6l6.9-5l15.6-1.2l12.5,2.2l4.4,8.4l4.4-5.6l13.7,4.1
					l13.7,0.9l8.1-4.4l5-5.6l-1.2-0.9l5-8.1l3.1-13.1l2.5-4.4l0.6-0.3l6.2-14.1l8.7-12.2v-0.6l-1.2-13.4l4.4-6.9l-6.9-8.1l6.9-6.2
					l-10.6,1.2l-14.4-3.7l-11.9,9.7l-26.9,2.2l-13.7-9.4l-18.7-0.6l-3.7,7.2l-12.5,2.2l-16.2-9.4l-19.4,0.3l-10-17.2l-13.1-9.7
					l8.7-13.4l-11.2-8.4l19.4-16.6l26.9-0.6l7.5-13.1l33.1,2.2l20.6-11.2l20-5l28.7-0.3l30.6,12.2l18.7,5.1v184.2H571.2z M894,166.7
					l-8.1-2.6l-15-10.3l12.5-2.8l2.8-2.8h7.8V166.7z M844.9,148.1l6,2.8l17.5-0.9l-3.1,5.9l-19.4,3.1l-23.1,10l-10-3.4l3.7-8.1
					l-18.7-5l3.1-3.4l2.5-0.9H844.9z M753.3,148.1l-4.8,4.7v4.7l-8.1,3.7l-5.6-1.6l-4.4,20.9l-9.4,7.2l-6.2,12.2l5.6,10l1.9,6.6
					l15.6,5.6l-3.1,4.4l-20.6,0.9l-7.5,5.3l-14.4,9.4l-5.6-8.1v-3.4l-10.6-0.6l-8.7-1.6l-21.2,4.4l11.9,10l-8.7,2.8h-9.4l-9.4-9.1
					l-3.1,3.7l3.7,10.3l8.7,8.1l-6.2,4.1l9.4,7.8l8.7,5v10l-15.6-4.7l5,8.7l-11.2,1.9l6.9,15.3l-11.9,0.3l-14.4-7.5l-6.2-14.1
					l-3.1-11.6l-6.9-7.8l-8.7-10l-1.2-5l-3.1-1.2v-3.7l-9.4-5.6l-1.9-8.4l1.2-11.9l2.5-5.3l-2.5-2.8l-3.7-1.2l-5-5.6l-7.5-3.4
					l-16.2-6.6l-10-6.2l-16.2-5L498,171.2l3.7-1.2l-8.1-7.5l-0.6-5.6l-10.6-2.8l-5.6,7.5l-5-5.9v-5.9l0.6-0.3l3.5-1.2H753.3z
					 M456.6,148.1l-7.9,3.4l0.6,8.4l-1.9,5l5.6,8.7l16.2,8.7l8.7,14.4l19.4,14.1h13.7l4.4,3.7l-5,3.4l15.6,6.2l12.5,5.3l15,9.1
					l1.9,3.1l-3.1,6.2l-10-8.1l-15-2.8l-7.5,11.2l12.5,6.2l-1.9,9.1l-6.9,1.2l-9.4,14.7l-7.5,1.6v-5.3l3.7-9.4l3.7-3.7l-6.9-10
					l-5-8.7l-7.5-2.2l-5-7.5l-11.2-3.1l-7.5-7.2l-13.1-0.9l-13.1-7.8L428.7,204l-11.9-10l-5-17.2l-8.7-2.2l-14.4-5.6l-7.5,2.2
					l-10,8.1l-7.5,1.2l-15.6,10l-34.4-4.7l-25,5.6l-2.5,10.3l1.2,10l-16.2,11.6l-22.5,3.7l-1.2,5.9l-11.2,9.7l-6.2,14.1l6.9,10
					l-10,7.5l-3.7,11.2l-13.1,3.7l-12.5,13.1l-21.9,0.3l-16.9-0.3l-10.6,6.2l-6.9,6.6l-8.1-1.6l-6.9-5.9l-5-10l-16.2-2.5l-6.9,4.4
					l-2.3-0.7V179.9l0,0l0.4-0.2l21.2,3.1h23.1l18.7,2.8l14.4-0.6l28.1,0.3l8.7-10.3l2.4-26.9H456.6z"/>
			</g>
			<g>
				<path class="st3" d="M894,166.7l-8.1-2.6l-15-10.3l12.5-2.8l2.8-2.8h7.8V166.7z M844.9,148.1l6,2.8l17.5-0.9l-3.1,5.9l-19.4,3.1
					l-23.1,10l-10-3.4l3.7-8.1l-18.7-5l3.1-3.4l2.5-0.9H844.9z M354.7,148.1l3.5,4.1l-6.2,5.3l4.4,13.4l9.4,2.2l-1.9,7.5l-15.6,10
					l-34.4-4.7l-25,5.6l-2.5,10.3l-20,2.2l-19.4-7.8l-6.2,3.7l-31.9-7.8l-6.9-6.9l8.7-10.3l2.4-26.9H354.7z M386.2,199.3l11.2-6.9
					l3.1,15l-5.6,13.4l-8.1-3.4l-3.7-11.9L386.2,199.3z M834.5,410.8l-5.5-13.8l5-5.6l-1.2-0.9l5-8.1l3.1-13.1l2.5-4.4l0.6-0.3h5.6
					l1.9-2.8l4.4-0.3l0.6,7.2l-2.5,2.5l0.6,0.3l0,0l-3.1,5.3l-6.2-2.5l-3.7,11.6l4.4,2.2l-4.4,2.2l-0.6,4.7l8.1-2.5v6.9l-3.7,11.6
					H834.5z M855.9,361.4l-4.4,0.3l-1.9,2.8h-5.6l6.2-14.1l8.7-12.2v-0.6l8.1,0.9l2.5,6.9l-9.4,6.6L855.9,361.4z M849.1,392.3
					l-8.1,2.5l0.6-4.7l4.4-2.2l-4.4-2.2l3.7-11.6l6.2,2.5v10.6L849.1,392.3z M398.8,410.8l-7-29.1l-10.6-6.9v-4.4l-14.4-10.3
					l-1.9-13.1l11.2-9.7l3.7-14.1l-2.5-16.6l3.1-9.1l19.4-6.9l11.9,1.9l-0.6,8.7l15-6.2l1.2,3.4l-8.7,8.4v8.1l5.6,4.1l-1.9,15
					l-11.9,8.7l3.7,9.7l8.7,0.3l4.4,8.1l6.9,2.8l-1.2,13.1l-8.7,5l-5,5.6l-11.9,6.9l1.9,7.2l-1.9,7.2l-3.9,1.9H398.8z M149.7,410.8
					l1-1.3l20-6.9l0.6-12.8l10-1.6l8.1-6.2l22.5-3.1l3.1-6.6l-4.4-3.7l-6.2-18.4l-0.6-10.6l-6.9-10.9l16.9-9.4l18.7-3.1l10.6-7.2
					l16.9-5.3l29.4-3.1l28.7-1.2l8.7,2.5l16.2-6.9h18.7l6.9,3.7l11.9-0.9l-3.1,9.1l2.5,16.6l-3.7,14.1l-11.2,9.7l1.9,13.1l14.4,10.3
					v4.4l10.6,6.9l7,29.1H149.7z M894,387.7l-17.4,4.4l17.4,17.4v0.1l0,0l-2.6,1.3h-46l0,0l3.7-11.6v-6.9l2.5-5v-10.6l0,0l3.1-5.3
					l19.4,6.9l16.8-9.4l3.2-1.7V387.7z M894,367.1l-3.2,1.7l-16.8,9.4l-19.4-6.9l0,0l-0.6-0.3l2.5-2.5l-0.6-7.2l4.4-9.4l9.4-6.6
					l-2.5-6.9l-8.1-0.9l-1.2-13.4l4.4-6.9l4.4-4.1l4.4-3.7l1.2-9.7l5.6,3.4l16.2-3.9V367.1z M753.3,148.1l-4.8,4.7l-8.1-2.8
					l-8.1,2.8l-7.5-3.1l3.6-1.6H753.3z M728.4,148.1l-3.6,1.6l-0.6-1.6H728.4z M724.2,148.1l0.6,1.6l0,0l7.5,3.1l8.1-2.8l8.1,2.8
					v4.7l-8.1,3.7l-5.6-1.6l-4.4,20.9l-10.6-1.9l-12.5-6.2l-20.6,3.7l-8.1,4.7l-25.6-0.9l-13.1-2.8l-6.9,1.2l-5-7.2l-3.1-2.8
					l3.7-3.1l-4.4-2.2l-5,4.1l-10.6-5l-1.2-7.2l-10.6-4.1l-0.9-2.8H724.2z M628,171.2l5,7.2l6.9-1.2l13.1,2.8l25.6,0.9l8.1-4.7
					l20.6-3.7l12.5,6.2l10.6,1.9l-9.4,7.2l-6.2,12.2l5.6,10l-15-2.2l-17.5,5.3v8.7l-16.2,1.6l-11.9-5.9l-13.7,4.7l-13.1-0.6
					l-1.2-11.6l-8.7-5.3l3.1-2.5l-1.9-2.2l2.5-5.6l6.9-5.3l-8.7-7.5l-1.2-6.2L628,171.2z M691,326.5l-2.5,5l-25,1.6l0.6-2.8
					l-21.2-3.4l3.1-7.5l9.4,5.9l13.7-0.9l12.5,1.2v2.8L691,326.5z M633,221.5l13.1,0.6l13.7-4.7l11.9,5.9l16.2-1.6v-8.7l8.1,4.7
					l-5,10.6l-4.4,2.2l-10.6-0.6l-8.7-1.6l-21.2,4.4l11.9,10l-8.7,2.8h-9.4l-9.4-9.1l-3.1,3.7l3.7,10.3l8.7,8.1l-6.2,4.1l9.4,7.8
					l8.7,5v10l-15.6-4.7l5,8.7l-11.2,1.9l6.9,15.3l-11.9,0.3l-14.4-7.5l-6.2-14.1l-3.1-11.6l-6.9-7.8l-8.7-10l-1.2-5l8.1-8.4
					l1.2-5.6l5.6-2.5v-4.4l11.2-1.6l6.9-3.7l9.4,0.3l3.1-3.1L633,221.5z M894,299.4l-16.2,3.9l-5.6-3.4l-1.2,9.7l-4.4,3.7l-4.4,4.1
					l-6.9-8.1l6.9-6.2l-10.6,1.2l-14.4-3.7l-11.9,9.7l-26.9,2.2l-13.7-9.4l-18.7-0.6l-3.7,7.2l-12.5,2.2l-16.2-9.4l-19.4,0.3
					l-10-17.2l-13.1-9.7l8.7-13.4l-11.2-8.4l19.4-16.6l26.9-0.6l7.5-13.1l33.1,2.2l20.6-11.2l20-5l28.7-0.3l30.6,12.2l18.7,5.1
					V299.4z M687.9,213.1l17.5-5.3l15,2.2l1.9,6.6l15.6,5.6l-3.1,4.4l-20.6,0.9l-7.5,5.3l-14.4,9.4l-5.6-8.1v-3.4l4.4-2.2l5-10.6
					L687.9,213.1z M599.2,230.3v4.4l-5.6,2.5l-1.2,5.6l-8.1,8.4l-3.1-1.2v-3.7l-9.4-5.6l-1.9-8.4l1.2-11.9l2.5-5.3l-2.5-2.8
					l-1.2-5.3l7.5-8.7l0.6,3.4l5-1.6l3.7,4.7l4.4,1.6l0.6,6.2l-1.9,5.9l2.5,7.5L599.2,230.3z M564.9,148.1l0.6,0.9l5.6,5l-6.9,6.6
					l-7.5-4.1l-11.9,0.3l-15-2.8l-8.1,0.3l-3.7,3.7l-6.2-4.1l-3.7,7.2l8.7,8.1l3.7,5.3l7.5,6.6l6.9,3.7l6.2,7.2l15.6,6.6l-1.9,3.1
					l-16.2-6.6l-10-6.2l-16.2-5L498,171.2l3.7-1.2l-8.1-7.5l-0.6-5.6l-10.6-2.8l-5.6,7.5l-5-5.9v-5.9l0.6-0.3l12.5,0.6l1.9-1.9h3.5
					l0,0l3.4,1.9l6.9,0.3v-2.2H564.9z M96,213.7h9.8l3.1-2.2l10,0.6l5,8.7l-8.1,4.7V239l-3.1,2.5l-0.6,8.4l-7.5,1.2l6.9,10.3
					L107,273l5.6,5l-2.5,4.7l-6.2,6.6l1.2,5.9l-6.9,4.4l-2.3-0.7V213.7z M96,179.9l0.4-0.2l21.2,3.1h23.1l18.7,2.8l14.4-0.6
					l28.1,0.3l6.9,6.9l31.9,7.8l6.2-3.7l19.4,7.8l20-2.2l1.2,10l-16.2,11.6l-22.5,3.7l-1.2,5.9l-11.2,9.7l-6.2,14.1l6.9,10l-10,7.5
					l-3.7,11.2l-13.1,3.7l-12.5,13.1l-21.9,0.3l-16.9-0.3l-10.6,6.2l-6.9,6.6l-8.1-1.6l-6.9-5.9l-5-10l-16.2-2.5l0,0l-1.2-5.9
					l6.2-6.6l2.5-4.7l-5.6-5l4.4-11.6l-6.9-10.3l7.5-1.2l0.6-8.4l3.1-2.5v-13.4l8.1-4.7l-5-8.7l-10-0.6l-3.1,2.2H96V179.9z
					 M456.6,148.1l-7.9,3.4l0.6,8.4l-1.9,5l5.6,8.7l16.2,8.7l8.7,14.4l19.4,14.1h13.7l4.4,3.7l-5,3.4l15.6,6.2l12.5,5.3l15,9.1
					l1.9,3.1l-3.1,6.2l-10-8.1l-15-2.8l-7.5,11.2l12.5,6.2l-1.9,9.1l-6.9,1.2l-9.4,14.7l-7.5,1.6v-5.3l3.7-9.4l3.7-3.7l-6.9-10
					l-5-8.7l-7.5-2.2l-5-7.5l-11.2-3.1l-7.5-7.2l-13.1-0.9l-13.1-7.8L428.7,204l-11.9-10l-5-17.2l-8.7-2.2l-14.4-5.6l-7.5,2.2
					l-10,8.1l-7.5,1.2l1.9-7.5l-9.4-2.2l-4.4-13.4l6.2-5.3l-3.5-4.1H456.6z M490.5,277.1l13.7-1.6L498,289l2.5,5.6l-3.7,8.7
					l-13.1-6.6l-8.7-1.9l-24.4-8.7l2.5-8.7l20,1.6L490.5,277.1z M385.6,229.3l8.7-5.6l10.6,12.5l-2.5,22.8l-8.1-0.9l-6.9,5.6
					l-6.2-4.4l-1.2-21.2l-3.7-9.7L385.6,229.3z M500.5,148.1v2.2l-6.9-0.3l-3.4-1.9H500.5z M486.8,148.1l-1.9,1.9l-12.5-0.6l3.5-1.2
					H486.8z M891.4,410.8l2.6-1.3v1.3H891.4z M894,409.5L876.6,392l17.4-4.4V409.5z M802.9,328.9h1.2l2.5-4.1l12.5,0.3l15.6-5.3
					l-11.9,7.5l1.2,3.1l-1.9-0.6l-3.1,1.2l-2.5-0.3l-1.2,0.6v-1.6l-1.2-1.2h-3.7l-4.4,1.2L802.9,328.9z M802.9,328.9l3.1,0.9
					l4.4-1.2h3.7l1.2,1.2v1.6l1.2-0.6l2.5,0.3l3.1-1.2l1.9,0.6l0.6,1.2l-17.5,7.2l-8.7-2.2l-4.4-6.9L802.9,328.9z M96,356.9l6-2.7
					l13.1-7.2l11.2-18.1l5.6-10.6h12.5l10.6,7.5l16.2-1.2l18.1,3.7l7.5,0.3l0,0l6.9,10.9l0.6,10.6l6.2,18.4l4.4,3.7l-3.1,6.6
					l-22.5,3.1l-8.1,6.2l-10,1.6l-0.6,12.8l-20,6.9l-1,1.3H96V356.9z M666.3,410.8l1.6-4.1l-3.1-7.5l6.2-8.1l23.1-0.3l16.9,4.7
					l17.5,5l8.1,2.8l13.1-5.6l6.9-5l15.6-1.2l12.5,2.2l4.4,8.4l4.4-5.6l13.7,4.1l13.7,0.9l8.1-4.4l5.5,13.8H666.3z M403.6,410.8
					l3.9-1.9l1.9-7.2l-1.9-7.2l11.9-6.9l5-5.6l8.7-5l1.2-13.1l20,5.9l7.5-1.6l14.4,2.8l23.1,7.8l8.1,15.6l15.6,3.1l24.4,7.5
					l12.6,5.7H403.6z M571.2,410.8l3-1.6l8.1-8.1l-3.7-13.1l5.6-8.4l12.5-8.1l11.9-2.5l23.1,3.4l6.2,7.8h6.2l5.6,3.1l17.5,1.9
					l3.7,5.9l-6.2,8.1l3.1,7.5l-1.6,4.1H571.2z M556.8,198.7l-15.6-6.6l-6.2-7.2l-6.9-3.7l-7.5-6.6l-3.7-5.3l-8.7-8.1l3.7-7.2
					l6.2,4.1l3.7-3.7l8.1-0.3l15,2.8l11.9-0.3l7.5,4.1l6.2-0.3l-4.4,7.8l8.7,6.6l-2.5,8.1l-4.4,0.9l-3.1,1.6l-5.6,4.1L556.8,198.7z
					 M623,204.7l8.7,5.3l1.2,11.6l-3.1,0.6l-3.1,3.1l-9.4-0.3l-6.9,3.7l-11.2,1.6l-6.9-4.4l-2.5-7.5l1.9-5.9l2.5,0.3l0.6-3.4
					l10.6-2.8l3.7-0.6l5.6-0.9L623,204.7z M595.8,148.1l0.9,2.8l10.6,4.1l1.2,7.2l10.6,5l5-4.1l4.4,2.2l-3.7,3.1l3.1,2.8l-4.4,4.1
					l1.2,6.2l8.7,7.5l-6.9,5.3l-2.5,5.6l1.9,2.2l-3.1,2.5l-8.1,0.3l-5.6,0.9l-0.6-1.2l1.9-2.2l1.9-4.4l-2.5,0.3l-3.1-3.4l-3.1-0.6
					l-1.9-2.8l-3.1-0.9l-2.5-2.5L593,189l-2.5,5.6l-4.4,1.2l1.2-1.6l-6.2-3.4l-5.6-1.9l-2.5-2.5l-5-2.8l4.4-0.9l2.5-8.1l-8.7-6.6
					l4.4-7.8l-6.2,0.3l6.9-6.6l-5.6-5l-0.6-0.9H595.8z M583,200l-5,1.6l-0.6-3.4l-7.5,8.7l1.2,5.3l-3.7-1.2l-5-5.6l-7.5-3.4l1.9-3.1
					l2.5-9.4l5.6-4.1l3.1-1.6l5,2.8l2.5,2.5l5.6,1.9l6.2,3.4l-1.2,1.6L583,200z M591.7,212.5l-0.6-6.2l-4.4-1.6L583,200l3.1-4.1
					l4.4-1.2l2.5-5.6l3.1-0.9l2.5,2.5l3.1,0.9l1.9,2.8l3.1,0.6l3.1,3.4l2.5-0.3l-1.9,4.4l-1.9,2.2l0.6,1.2l-3.7,0.6l-10.6,2.8
					l-0.6,3.4L591.7,212.5z"/>
			</g>
			<g>
				<path class="st4" d="M806.6,324.9l12.5,0.3l15.6-5.3l-11.9,7.5l1.9,4.4l-17.5,7.2l-8.7-2.2l-4.4-6.9l10-0.9L806.6,324.9
					 M691,326.5l-2.5,5l-25,1.6l0.6-2.8l-21.2-3.4l3.1-7.5l9.4,5.9l13.7-0.9l12.5,1.2v2.8L691,326.5 M385.6,229.3l8.7-5.6l10.6,12.5
					l-2.5,22.8l-8.1-0.9l-6.9,5.6l-6.2-4.4l-1.2-21.2l-3.7-9.7L385.6,229.3 M386.2,199.3l11.2-6.9l3.1,15l-5.6,13.4l-8.1-3.4
					l-3.7-11.9L386.2,199.3 M490.5,277.1l13.7-1.6L498,289l2.5,5.6l-3.7,8.7l-13.1-6.6l-8.7-1.9l-24.4-8.7l2.5-8.7l20,1.6
					L490.5,277.1 M885.9,164.1l8.1,2.6 M96,356.9l6-2.7l13.1-7.2l11.2-18.1l5.6-10.6h12.5l10.6,7.5l16.2-1.2l18.1,3.7l7.5,0.3
					l16.9-9.4l18.7-3.1l10.6-7.2l16.9-5.3l29.4-3.1l28.7-1.2l8.7,2.5l16.2-6.9h18.7l6.9,3.7l11.9-0.9l19.4-6.9l11.9,1.9l-0.6,8.7
					l15-6.2l1.2,3.4l-8.7,8.4v8.1l5.6,4.1l-1.9,15l-11.9,8.7l3.7,9.7l8.7,0.3l4.4,8.1l6.9,2.8l20,5.9l7.5-1.6l14.4,2.8l23.1,7.8
					l8.1,15.6l15.6,3.1l24.4,7.5l12.6,5.7 M571.2,410.8l3-1.6l8.1-8.1l-3.7-13.1l5.6-8.4l12.5-8.1l11.9-2.5l23.1,3.4l6.2,7.8h6.2
					l5.6,3.1l17.5,1.9l3.7,5.9l23.1-0.3l16.9,4.7l17.5,5l8.1,2.8l13.1-5.6l6.9-5l15.6-1.2l12.5,2.2l4.4,8.4l4.4-5.6l13.7,4.1
					l13.7,0.9l8.1-4.4l5-5.6l-1.2-0.9l5-8.1l3.1-13.1l2.5-4.4l0.6-0.3l6.2-14.1l8.7-12.2v-0.6l-1.2-13.4l4.4-6.9l-6.9-8.1l6.9-6.2
					l-10.6,1.2l-14.4-3.7l-11.9,9.7l-26.9,2.2l-13.7-9.4l-18.7-0.6l-3.7,7.2l-12.5,2.2l-16.2-9.4l-19.4,0.3l-10-17.2l-13.1-9.7
					l8.7-13.4l-11.2-8.4l19.4-16.6l26.9-0.6l7.5-13.1l33.1,2.2l20.6-11.2l20-5l28.7-0.3l30.6,12.2l18.7,5.1 M894,166.7l-8.1-2.6
					l-15-10.3l12.5-2.8l2.8-2.8 M844.9,148.1l6,2.8l17.5-0.9l-3.1,5.9l-19.4,3.1l-23.1,10l-10-3.4l3.7-8.1l-18.7-5l3.1-3.4l2.5-0.9
					 M753.3,148.1l-4.8,4.7v4.7l-8.1,3.7l-5.6-1.6l-4.4,20.9l-9.4,7.2l-6.2,12.2l5.6,10l1.9,6.6l15.6,5.6l-3.1,4.4l-20.6,0.9
					l-7.5,5.3l-14.4,9.4l-5.6-8.1v-3.4l-10.6-0.6l-8.7-1.6l-21.2,4.4l11.9,10l-8.7,2.8h-9.4l-9.4-9.1l-3.1,3.7l3.7,10.3l8.7,8.1
					l-6.2,4.1l9.4,7.8l8.7,5v10l-15.6-4.7l5,8.7l-11.2,1.9l6.9,15.3l-11.9,0.3l-14.4-7.5l-6.2-14.1l-3.1-11.6l-6.9-7.8l-8.7-10
					l-1.2-5l-3.1-1.2v-3.7l-9.4-5.6l-1.9-8.4l1.2-11.9l2.5-5.3l-2.5-2.8l-3.7-1.2l-5-5.6l-7.5-3.4l-16.2-6.6l-10-6.2l-16.2-5
					L498,171.2l3.7-1.2l-8.1-7.5l-0.6-5.6l-10.6-2.8l-5.6,7.5l-5-5.9v-5.9l0.6-0.3l3.5-1.2 M456.6,148.1l-7.9,3.4l0.6,8.4l-1.9,5
					l5.6,8.7l16.2,8.7l8.7,14.4l19.4,14.1h13.7l4.4,3.7l-5,3.4l15.6,6.2l12.5,5.3l15,9.1l1.9,3.1l-3.1,6.2l-10-8.1l-15-2.8
					l-7.5,11.2l12.5,6.2l-1.9,9.1l-6.9,1.2l-9.4,14.7l-7.5,1.6v-5.3l3.7-9.4l3.7-3.7l-6.9-10l-5-8.7l-7.5-2.2l-5-7.5l-11.2-3.1
					l-7.5-7.2l-13.1-0.9l-13.1-7.8L428.7,204l-11.9-10l-5-17.2l-8.7-2.2l-14.4-5.6l-7.5,2.2l-10,8.1l-7.5,1.2l-15.6,10l-34.4-4.7
					l-25,5.6l-2.5,10.3l1.2,10l-16.2,11.6l-22.5,3.7l-1.2,5.9l-11.2,9.7l-6.2,14.1l6.9,10l-10,7.5l-3.7,11.2l-13.1,3.7l-12.5,13.1
					l-21.9,0.3l-16.9-0.3l-10.6,6.2l-6.9,6.6l-8.1-1.6l-6.9-5.9l-5-10l-16.2-2.5l-6.9,4.4l-2.3-0.7 M96,179.9l0.4-0.2l21.2,3.1h23.1
					l18.7,2.8l14.4-0.6l28.1,0.3l8.7-10.3l2.4-26.9"/>
			</g>
			<g>
				<g>
					<g>
						<path class="st5" d="M96,179.9l0.4-0.2l21.2,3.1h23.1l18.7,2.8l14.4-0.6l28.1,0.3l6.9,6.9l31.9,7.8l6.2-3.7l19.4,7.8l20-2.2
							l1.2,10l-16.2,11.6l-22.5,3.7l-1.2,5.9l-11.2,9.7l-6.2,14.1l6.9,10l-10,7.5l-3.7,11.2l-13.1,3.7l-12.5,13.1l-21.9,0.3
							l-16.9-0.3l-10.6,6.2l-6.9,6.6l-8.1-1.6l-6.9-5.9l-5-10l-16.2-2.5l0,0l-1.2-5.9l6.2-6.6l2.5-4.7l-5.6-5l4.4-11.6l-6.9-10.3
							l7.5-1.2l0.6-8.4l3.1-2.5v-13.4l8.1-4.7l-5-8.7l-10-0.6l-3.1,2.2H96V179.9z"/>
						<path class="st6" d="M691,326.5l-2.5,5l-25,1.6l0.6-2.8l-21.2-3.4l3.1-7.5l9.4,5.9l13.7-0.9l12.5,1.2v2.8L691,326.5z
							 M633,221.5l13.1,0.6l13.7-4.7l11.9,5.9l16.2-1.6v-8.7l8.1,4.7l-5,10.6l-4.4,2.2l-10.6-0.6l-8.7-1.6l-21.2,4.4l11.9,10
							l-8.7,2.8h-9.4l-9.4-9.1l-3.1,3.7l3.7,10.3l8.7,8.1l-6.2,4.1l9.4,7.8l8.7,5v10l-15.6-4.7l5,8.7l-11.2,1.9l6.9,15.3l-11.9,0.3
							l-14.4-7.5l-6.2-14.1l-3.1-11.6l-6.9-7.8l-8.7-10l-1.2-5l8.1-8.4l1.2-5.6l5.6-2.5v-4.4l11.2-1.6l6.9-3.7l9.4,0.3l3.1-3.1
							L633,221.5z"/>
						<path class="st7" d="M456.6,148.1l-7.9,3.4l0.6,8.4l-1.9,5l5.6,8.7l16.2,8.7l8.7,14.4l19.4,14.1h13.7l4.4,3.7l-5,3.4l15.6,6.2
							l12.5,5.3l15,9.1l1.9,3.1l-3.1,6.2l-10-8.1l-15-2.8l-7.5,11.2l12.5,6.2l-1.9,9.1l-6.9,1.2l-9.4,14.7l-7.5,1.6v-5.3l3.7-9.4
							l3.7-3.7l-6.9-10l-5-8.7l-7.5-2.2l-5-7.5l-11.2-3.1l-7.5-7.2l-13.1-0.9l-13.1-7.8L428.7,204l-11.9-10l-5-17.2l-8.7-2.2
							l-14.4-5.6l-7.5,2.2l-10,8.1l-7.5,1.2l1.9-7.5l-9.4-2.2l-4.4-13.4l6.2-5.3l-3.5-4.1H456.6z M490.5,277.1l13.7-1.6L498,289
							l2.5,5.6l-3.7,8.7l-13.1-6.6l-8.7-1.9l-24.4-8.7l2.5-8.7l20,1.6L490.5,277.1z M385.6,229.3l8.7-5.6l10.6,12.5l-2.5,22.8
							l-8.1-0.9l-6.9,5.6l-6.2-4.4l-1.2-21.2l-3.7-9.7L385.6,229.3z"/>
						<path class="st8" d="M802.9,328.9l3.1,0.9l4.4-1.2h3.7l1.2,1.2v1.6l1.2-0.6l2.5,0.3l3.1-1.2l1.9,0.6l0.6,1.2l-17.5,7.2
							l-8.7-2.2l-4.4-6.9L802.9,328.9z"/>
						<path class="st8" d="M96,410.8"/>
					</g>
				</g>
			</g>
			<g>
				<path class="st8" d="M96,410.8"/>
			</g>
		</g>
	</g>
</g>
<g>
	<g transform="translate(80,100)">
		<rect x="814" class="st9" width="94.5" height="420"/>
		<g transform="translate(0,32)">
			
				<linearGradient id="SVGID_00000008136334832062903210000014804903527023197864_" gradientUnits="userSpaceOnUse" x1="-523.2" y1="707.3677" x2="-523.2" y2="708.3677" gradientTransform="matrix(30 0 0 -378 16535 267763)">
				<stop  offset="0" style="stop-color:#F7FCF5"/>
				<stop  offset="0.125" style="stop-color:#E5F5E0"/>
				<stop  offset="0.25" style="stop-color:#C7E9C0"/>
				<stop  offset="0.375" style="stop-color:#A1D99B"/>
				<stop  offset="0.5" style="stop-color:#74C476"/>
				<stop  offset="0.625" style="stop-color:#41AB5D"/>
				<stop  offset="0.75" style="stop-color:#238B45"/>
				<stop  offset="0.875" style="stop-color:#006D2C"/>
				<stop  offset="1" style="stop-color:#00441B"/>
			</linearGradient>
			<rect x="824" style="fill:url(#SVGID_00000008136334832062903210000014804903527023197864_);" width="30" height="378"/>
		</g>
		<g transform="translate(0,32)">
		</g>
		<g transform="translate(0,-100)">
			<g>
				<text transform="matrix(1 0 0 1 856.9 463.41)" class="st11 st12 st13">2k</text>
			</g>
			<g>
				<text transform="matrix(1 0 0 1 856.9 410.87)" class="st11 st12 st13">4k</text>
			</g>
			<g>
				<text transform="matrix(1 0 0 1 856.9 358.32)" class="st11 st12 st13">6k</text>
			</g>
			<g>
				<text transform="matrix(1 0 0 1 856.9 305.77)" class="st11 st12 st13">8k</text>
			</g>
			<g>
				<text transform="matrix(1 0 0 1 856.9 253.22)" class="st11 st12 st13">10k</text>
			</g>
			<g>
				<text transform="matrix(1 0 0 1 856.9 200.68)" class="st11 st12 st13">12k</text>
			</g>
			<g>
				<text transform="matrix(1 0 0 1 856.9 148.13)" class="st11 st12 st13">14k</text>
			</g>
		</g>
		<g transform="translate(-80,-100)">
			<g transform="">
				<text transform="matrix(1 0 0 1 903.96 123.5)" class="st11 st12 st14">individuals</text>
			</g>
		</g>
		<rect x="824" y="32" class="st15" width="30" height="378"/>
	</g>
	<g>
		<text transform="matrix(1 0 0 1 50 50)" class="st11 st12 st16">Mediterranean Situation Arrivals by Country</text>
	</g>
</g>
</svg>
