<svg class="main-svg" xmlns="http://www.w3.org/2000/svg" xmlns:xlink="http://www.w3.org/1999/xlink" width="1000" height="600" style="" viewBox="0 0 1000 600"><rect x="0" y="0" width="1000" height="600" style="fill: rgb(255, 255, 255); fill-opacity: 1;"/><defs id="defs-456dfe"><g class="clips"><clipPath id="clip456dfegeo"><rect x="79.99999999999994" y="178.64963032193543" width="798" height="262.700739356129"/></clipPath></g><g class="gradients"><linearGradient x1="0" x2="0" y1="1" y2="0" id="g456dfe-cbcoloraxis"><stop offset="0%" stop-color="rgb(247, 252, 245)" stop-opacity="1"/><stop offset="12.5%" stop-color="rgb(229, 245, 224)" stop-opacity="1"/><stop offset="25%" stop-color="rgb(199, 233, 192)" stop-opacity="1"/><stop offset="37.5%" stop-color="rgb(161, 217, 155)" stop-opacity="1"/><stop offset="50%" stop-color="rgb(116, 196, 118)" stop-opacity="1"/><stop offset="62.5%" stop-color="rgb(65, 171, 93)" stop-opacity="1"/><stop offset="75%" stop-color="rgb(35, 139, 69)" stop-opacity="1"/><stop offset="87.5%" stop-color="rgb(0, 109, 44)" stop-opacity="1"/><stop offset="100%" stop-color="rgb(0, 68, 27)" stop-opacity="1"/></linearGradient></g><g class="patterns"/></defs><g class="bglayer"/><g class="layer-below"><g class="imagelayer"/><g class="shapelayer"/></g><g class="cartesianlayer"/><g class="polarlayer"/><g class="smithlayer"/><g class="ternarylayer"/><g class="geolayer"><g class="geo geo" clip-path="url(#clip456dfegeo)"><g class="layer bg"><rect x="79.99999999999994" y="178.64963032193543" width="798" height="262.700739356129" style="pointer-events: all; fill: rgb(255, 255, 255); fill-opacity: 1;"/></g><g class="layer land"><path d="M806.8428847276226,357.9076908951819L808.0921074367536,361.0307476680098L808.7167187913192,362.2799703771411L791.2276008634824,369.4630009546455L782.4830418995637,367.2768612136658L778.1107624176043,360.40613631344434L786.855321381523,359.469219281596L788.1045440906541,359.469219281596L790.6029895089168,355.4092454769194L803.0952166002288,355.7215511542022L818.710500464369,350.4123546403945ZM675.0498889142797,356.97077386333353L672.551443496017,361.9676646998581L647.5669893133929,363.52919308627224L648.1916006679585,360.718441990727L626.9548146127279,357.2830795406163L630.0778713855561,349.7877432858289L639.4470417040399,355.7215511542022L653.1884915044834,354.78463412235385L665.6807185957954,356.03385683148497L665.6807185957954,358.8446079270302ZM474.54964409872025,307.6264768526503L488.2910938991634,306.06494846623673L482.04498035350736,319.49409258939704L484.54342577177005,325.1155947804874L480.79575764437624,333.8601537444059L467.67891919849876,327.3017345214671L458.93436023458,325.4279004577702L434.57451740652164,316.6833414938518L437.0729628247838,307.9387825299334L457.0605261708834,309.50031091634753ZM369.6149365316985,259.8437082283815L378.35949549561667,254.22220603729113L388.97788852323197,266.71443312860356L386.4794431049698,289.51274757024794L378.35949549561667,288.5758305383998L371.4887705953951,294.1973327294902L365.24265704973914,289.82505324753095L363.993434340608,268.58826719230024L360.2457662132142,258.9067911965335ZM370.239547886264,229.86236320923263L381.4825522684449,222.99163830901114L384.60560904127317,237.98231081858523L378.9841068501827,251.4114549417459L370.86415924082957,247.9760924916351L367.1164911134358,236.10847675488867ZM79.99999999999994,387.4630244803036L86.04138155891349,384.76597914150295L99.15822000479108,377.58294856399834L110.40122438697193,359.469219281596L116.02272657806242,348.8508262539806L128.5149536693744,348.8508262539806L139.13334669698975,356.34616250876775L155.37324191569553,355.09693979963663L173.48697119809844,358.8446079270302L180.98230745288555,359.156913604313L197.84681402615686,349.7877432858289L216.58515466312485,346.6646865130009L227.20354769074018,339.4816559354964L244.06805426401152,334.1724594216887L273.4247879285954,331.0494026488607L302.15691023861314,329.8001799397297L310.9014692025313,332.298625357992L327.1413644212371,325.4279004577702L345.8797050582056,325.4279004577702L352.75042995842716,329.4878742624469L364.6180456951736,328.23865155331544L383.9809976867071,321.36792665309395L395.848613423454,323.24176071679074L395.224002068888,331.98631968070924L410.2146745784627,325.740206135053L411.4638972875938,329.1755685851641L402.71933832367563,337.60782187179973L402.71933832367563,345.72776948115256L408.34084051476606,349.7877432858289L406.4670064510694,364.77841579540336L394.59939071432245,373.522974759322L398.34705884171626,383.2044507550888L407.09161780563494,383.5167564323716L411.4638972875938,391.63670404172444L418.33462218781585,394.4474551372697L438.32218553391493,400.38126300564284L445.8175217887025,398.81973461922905L460.18358294371114,401.6304857147743L483.2942030626385,409.43812764684435L491.4141506719916,425.05341151098435L507.0294345361319,428.17646828381237L531.3892773641903,435.67180453859976L544.0083110074451,441.35036967806445L79.99999999999994,441.35036967806445ZM555.2416102744756,441.35036967806445L558.2475656105114,439.731778343276L566.367513219864,431.6118307339234L562.6198450924708,418.4949922880455L568.2413472835613,410.0627390014099L580.7335743748732,401.9427913920571L592.6011901116196,399.4443459737945L615.7118102305469,402.8797084239054L621.957923776203,410.68735035597547L628.2040373218589,410.68735035597547L633.8255395129494,413.8104071288035L651.3146574407867,415.6842411925004L655.0623255681801,421.61804906087355L678.1729456871074,421.30574338359077L695.0374522603793,425.990328542833L712.526570188216,430.9872193793576L720.6465177975688,433.79797047490285L733.7633562434464,428.17646828381237L740.6340811436683,423.1795774472878L756.2493650078086,421.9303547381563L768.7415920991206,424.116494479136L773.11387158108,432.54874776577174L777.4861510630387,426.92724557468136L791.2276008634824,430.9872193793576L804.9690506639255,431.9241364112062L813.0889982732785,427.5518569292469L818.0858891098035,421.9303547381563L816.8366664006719,420.993437706308L821.8335572371968,412.87349009695515L824.9566140100251,399.7566516510773L827.4550594282873,395.38437216911825L828.0796707828529,395.07206649183524L834.3257843285093,381.01831101410914L843.0703432924274,368.83838960007995L843.0703432924274,368.2137782455144L841.8211205832963,354.78463412235385L846.1934000652557,347.913909222132L839.3226751650341,339.7939616127792L846.1934000652557,333.54784806712314L835.5750070376404,334.7970707762545L821.2089458826313,331.0494026488607L809.3413301458847,340.73087864462775L782.4830418995637,342.9170183856073L768.7415920991206,333.54784806712314L750.0032514621521,332.9232367125576L746.2555833347587,340.1062672900622L733.7633562434464,342.29240703104153L717.523461024741,332.9232367125576L698.160509033207,333.23554238984036L688.1667273601572,316.05873013928624L675.0498889142797,306.37725414351917L683.7944478781978,292.94811002035874L672.551443496017,284.5158567337229L691.914395487551,267.9636558377347L718.7726837338721,267.3390444831691L726.2680199886593,254.22220603729113L759.3724217806364,256.4083457782707L779.9845964813014,245.16534139608996L799.9721598274004,240.16845055956503L828.7042821374189,239.85614488228248L859.3102385111333,252.03606629631145L878,257.17575070575003L878,441.35036967806445ZM878,197.220239452624L869.9286315387487,194.57182167627593L854.937959029174,184.26573432594353L867.4301861204865,181.45498323039828L870.2355390289492,178.64963032193543L878,178.64963032193543ZM828.9080971110013,178.64963032193543L834.9503956830748,181.45498323039828L852.4395136109117,180.51806619854972L849.3164568380835,186.45187406692332L829.95350484655,189.5749308397509L806.8428847276226,199.56871251280074L796.8491030545729,196.13335006269006L800.5967711819667,188.01340245333688L781.8584305449981,183.01651161681195L784.9814873178263,179.58114916670115L787.5309073140274,178.64963032193543L828.9080971110013,178.64963032193543ZM737.307447017991,178.64963032193543L732.5141335343153,183.32881729409496L732.5141335343153,188.01340245333688L724.3941859249626,191.7610705807307L718.7726837338721,190.19954219431645L714.4004042519127,211.12402257226472L705.0312339334284,218.30705314976876L698.7851203877725,230.48697456379819L704.4066225788629,240.48075623684804L706.2804566425602,247.03917545978697L721.8957405066999,252.66067765087746L718.7726837338721,257.03295713283626L698.160509033207,257.9698741646848L690.6651727784199,263.2790706784923L676.2991116234108,272.6482409969766L670.6776094323203,264.5282933876239L670.6776094323203,261.0929309375132L660.059216404705,260.46831958294706L651.3146574407867,258.9067911965335L630.0778713855561,263.2790706784923L641.9454871223026,273.27285235154216L633.2009281583838,276.0836034470873L623.8317578399001,276.0836034470873L614.4625875214159,267.0267388058861L611.3395307485875,270.7744069332799L615.0871988759814,281.0804942836122L623.8317578399001,289.2004418929654L617.585644294244,293.26041569764175L626.9548146127279,301.0680576297118L635.6993735766466,306.06494846623673L635.6993735766466,316.05873013928624L620.0840897125063,311.3741449800442L625.0809805490312,320.1187039439626L613.8379761668504,321.9925380076595L620.7087010670718,337.29551619451695L608.8410853303254,337.60782187179973L594.4750241753163,330.11248561701245L588.2289106296603,316.05873013928624L585.1058538568325,304.5034200798225L578.2351289566104,296.69577814775243L569.4905699926923,286.7019964747027L568.2413472835613,281.70510563817777L565.1182905107329,280.45588292904665L565.1182905107329,276.70821480165284L555.7491201922487,271.0867126105625L553.875286128552,262.65445932392674L555.1245088376832,250.78684358718033L557.6229542559458,245.47764707337285L555.1245088376832,242.66689597782772L551.3768407102899,241.4176732686966L546.379949873765,235.79617107760566L538.8846136189774,232.36080862749486L522.6447184002716,225.80238940455638L512.6509367272223,219.55627585890034L496.4110415085165,214.55938502237552L482.04498035350736,201.75485225378043L485.79264848090116,200.5056295446493L477.67270087154805,193.0102932898618L477.0480895169825,187.38879109877132L466.42969648936713,184.57804000322608L460.8081942982767,192.0733762580137L455.81130346175183,186.1395683896402L455.81130346175183,180.2057605212667L456.43591481631785,179.89345484398416L459.918623478054,178.64963032193543L737.307447017991,178.64963032193543ZM440.58960114779006,178.64963032193543L432.70068334282445,182.07959458496384L433.32529469739,190.51184787159957L431.4514606336934,195.5087387081245L437.0729628247838,204.25329767204266L453.3128580434896,212.9978566359614L462.0574170074083,227.36391779096994L481.4203689989418,241.4176732686966L495.1618187993849,241.4176732686966L499.53409828134426,245.16534139608996L494.5372074448194,248.60070384620064L510.1524913089596,254.8468173918567L522.6447184002716,260.1560139056646L537.6353909098463,269.2128785468658L539.5092249735429,272.33593531969404L536.3861682007151,278.58204886535L526.3923865276654,270.4621012559969L511.4017140180907,267.65135016045167L503.90637776330357,278.8943545426325L516.3986048546155,285.14046808828846L514.524770790919,294.1973327294902L507.65404589069743,295.4465554386213L498.2848755722132,310.1249222709131L490.78953931742603,311.686450657327L490.78953931742603,306.37725414351917L494.5372074448194,297.00808382503544L498.2848755722132,293.26041569764175L491.4141506719916,283.2666340245919L486.4172598354667,274.5220750606733L478.9219235806796,272.33593531969404L473.92503274415475,264.84059906490654L462.68202836197383,261.71754229207875L455.1866921071863,254.53451171457414L442.0698536613087,253.59759468272557L428.95301521543115,245.78995275065552L412.71311999672537,234.54694836847455L400.84550425997844,224.5531666954248L395.848613423454,207.3763544448708L387.10405445953535,205.19021470389123L372.73799330452624,199.56871251280074L365.24265704973914,201.75485225378043L355.24887537668934,209.87479986313303L347.75353912190224,211.12402257226472L332.138255257762,221.117804245314L297.78463075665377,216.4332190860722L272.8001765740293,222.05472127716257L270.30173115576713,232.36080862749486L271.55095386489825,242.35459030054471L255.31105864619244,253.90990036000858L232.82504988183064,257.6575684874018L231.57582717269955,263.5913763557754L220.33282279051866,273.27285235154216L214.08670924486267,287.32660782926826L220.95743414508422,297.320389502318L210.96365247203443,304.81572575710504L207.2159843446411,316.05873013928624L194.09914589876306,319.8063982666798L181.60691880745105,332.9232367125576L159.7455213976549,333.23554238984036L142.8810148243835,332.9232367125576L132.26262179676814,339.1693502582136L125.39189689654665,345.72776948115256L117.27194928719354,344.16624109473844L110.40122438697193,338.2324332263653L105.40433355044706,328.23865155331544L89.16443833174128,325.740206135053L82.29371343151973,330.11248561701245L79.99999999999994,329.4571389222925L79.99999999999994,210.40242829314585L79.99999999999994,210.40242829314585L80.41987936782306,210.18710554041604L101.65666542305377,213.31016231324384L124.7672855419811,213.31016231324384L143.50562617894906,216.12091340878908L157.87168733395822,215.49630205422363L185.97919828941042,215.80860773150664L194.7237572533286,205.50252038117424L197.14293653794488,178.64963032193543L440.58960114779006,178.64963032193543Z" style="stroke: none; fill: rgb(229, 236, 246); fill-opacity: 1;"/></g><g class="layer countries"><path d="M878,197.220239452624L869.9286315387487,194.57182167627593L854.937959029174,184.26573432594353L867.4301861204865,181.45498323039828L870.2355390289492,178.64963032193543L878,178.64963032193543ZM828.9080971110013,178.64963032193543L834.9503956830748,181.45498323039828L852.4395136109117,180.51806619854972L849.3164568380835,186.45187406692332L829.95350484655,189.5749308397509L806.8428847276226,199.56871251280074L796.8491030545729,196.13335006269006L800.5967711819667,188.01340245333688L781.8584305449981,183.01651161681195L784.9814873178263,179.58114916670115L787.5309073140274,178.64963032193543L828.9080971110013,178.64963032193543ZM338.6566864014456,178.64963032193543L342.1320369308118,182.7042059395294L335.8859233851558,188.01340245333688L340.25820286711513,201.44254657649742L349.6273731855989,203.6286863174771L347.75353912190224,211.12402257226472L332.138255257762,221.117804245314L297.78463075665377,216.4332190860722L272.8001765740293,222.05472127716257L270.30173115576713,232.36080862749486L250.31416780966754,234.54694836847455L230.95121581813402,226.7393064364045L224.705102272478,230.48697456379819L192.84992318963202,222.67933263172813L185.97919828941042,215.80860773150664L194.7237572533286,205.50252038117424L197.14293653794488,178.64963032193543L338.6566864014456,178.64963032193543ZM370.239547886264,229.86236320923263L381.4825522684449,222.99163830901114L384.60560904127317,237.98231081858523L378.9841068501827,251.4114549417459L370.86415924082957,247.9760924916351L367.1164911134358,236.10847675488867ZM818.5402625691078,441.35036967806445L813.0889982732785,427.5518569292469L818.0858891098035,421.9303547381563L816.8366664006719,420.993437706308L821.8335572371968,412.87349009695515L824.9566140100251,399.7566516510773L827.4550594282873,395.38437216911825L828.0796707828529,395.07206649183524L833.7011729739432,395.07206649183524L835.5750070376404,392.26131539629L839.9472865195996,391.9490097190072L840.5718978741652,399.1320402965117L838.0734524559025,401.6304857147743L838.698063810468,401.9427913920571L838.698063810468,401.9427913920571L835.5750070376404,407.2519879058648L829.3288934919844,404.7535424876023L825.5812253645906,416.30885254706595L829.95350484655,418.4949922880455L825.5812253645906,420.6811320290252L824.9566140100251,425.3657171882671L833.0765616193777,422.86727177000466L833.0765616193777,429.7379966702265L829.4232307854513,441.35036967806445L818.5402625691078,441.35036967806445ZM839.9472865195996,391.9490097190072L835.5750070376404,392.26131539629L833.7011729739432,395.07206649183524L828.0796707828529,395.07206649183524L834.3257843285093,381.01831101410914L843.0703432924274,368.83838960007995L843.0703432924274,368.2137782455144L851.1902909017806,369.15069527736273L853.6887363200428,376.02142017758456L844.3195660015585,382.57983940052327ZM833.0765616193777,422.86727177000466L824.9566140100251,425.3657171882671L825.5812253645906,420.6811320290252L829.95350484655,418.4949922880455L825.5812253645906,416.30885254706595L829.3288934919844,404.7535424876023L835.5750070376404,407.2519879058648L835.5750070376404,417.8703809334801ZM382.84540790191625,441.35036967806445L375.8610500773545,412.2488787423896L365.24265704973914,405.3781538421679L365.24265704973914,401.00587436020874L350.87659589473003,390.6997870098761L349.00276183103335,377.58294856399834L360.2457662132142,367.9014725682316L363.993434340608,353.8477170905055L361.4949889223453,337.29551619451695L364.6180456951736,328.23865155331544L383.9809976867071,321.36792665309395L395.848613423454,323.24176071679074L395.224002068888,331.98631968070924L410.2146745784627,325.740206135053L411.4638972875938,329.1755685851641L402.71933832367563,337.60782187179973L402.71933832367563,345.72776948115256L408.34084051476606,349.7877432858289L406.4670064510694,364.77841579540336L394.59939071432245,373.522974759322L398.34705884171626,383.2044507550888L407.09161780563494,383.5167564323716L411.4638972875938,391.63670404172444L418.33462218781585,394.4474551372697L417.0853994786842,407.56429358314756L408.34084051476606,412.5611844196724L403.34394967824113,418.18268661076274L391.4763339414947,425.05341151098435L393.35016800519134,432.23644208848896L391.4763339414947,439.4194726659932L387.61453991735226,441.35036967806445L382.84540790191625,441.35036967806445ZM133.73469991270514,441.35036967806445L134.7610672150309,440.044084020559L154.74863056112997,433.1733591203373L155.37324191569553,420.3688263517424L165.36702358874533,418.8072979653283L173.48697119809844,412.5611844196724L195.97297996246022,409.43812764684435L199.09603673528798,402.8797084239054L194.7237572533286,399.1320402965117L188.47764370767266,380.70600533682637L187.8530323531071,370.08761230921107L180.98230745288555,359.156913604313L197.84681402615686,349.7877432858289L216.58515466312485,346.6646865130009L227.20354769074018,339.4816559354964L244.06805426401152,334.1724594216887L273.4247879285954,331.0494026488607L302.15691023861314,329.8001799397297L310.9014692025313,332.298625357992L327.1413644212371,325.4279004577702L345.8797050582056,325.4279004577702L352.75042995842716,329.1755685851641L364.6180456951736,328.23865155331544L361.4949889223453,337.29551619451695L363.993434340608,353.8477170905055L360.2457662132142,367.9014725682316L349.00276183103335,377.58294856399834L350.87659589473003,390.6997870098761L365.24265704973914,401.00587436020874L365.24265704973914,405.3781538421679L375.8610500773545,412.2488787423896L382.84540790191625,441.35036967806445L133.73469991270514,441.35036967806445ZM878,418.1948313977881L860.5594612202644,422.5549660927219L878,439.9955048724578L878,440.0683735946096L878,440.0683735946096L875.4360078330903,441.35036967806445L829.4232307854513,441.35036967806445L829.4232307854513,441.35036967806445L833.0765616193777,429.7379966702265L833.0765616193777,422.86727177000466L835.5750070376404,417.8703809334801L835.5750070376404,407.2519879058648L835.5750070376404,407.2519879058648L838.698063810468,401.9427913920571L858.0610158020022,408.81351629227856L874.8228927025592,399.37915465238996L878,397.6369785339038L878,418.1948313977881ZM878,397.6369785339038L874.8228927025592,399.37915465238996L858.0610158020022,408.81351629227856L838.698063810468,401.9427913920571L838.698063810468,401.9427913920571L838.0734524559025,401.6304857147743L840.5718978741652,399.1320402965117L839.9472865195996,391.9490097190072L844.3195660015585,382.57983940052327L853.6887363200428,376.02142017758456L851.1902909017806,369.15069527736273L843.0703432924274,368.2137782455144L841.8211205832963,354.78463412235385L846.1934000652557,347.913909222132L850.565679547215,343.85393541745566L854.937959029174,340.1062672900622L856.1871817383055,330.4247912942951L861.8086839293959,333.8601537444059L878,329.9428998563567L878,397.6369785339038ZM737.307447017991,178.64963032193543L732.5141335343153,183.32881729409496L724.3941859249626,180.51806619854972L716.2742383156094,183.32881729409496L708.7789020608224,180.2057605212667L712.4098725259291,178.64963032193543L737.307447017991,178.64963032193543ZM712.4098725259291,178.64963032193543L708.7789020608224,180.2057605212667L708.1803904456949,178.64963032193543L712.4098725259291,178.64963032193543ZM708.1803904456949,178.64963032193543L708.7789020608224,180.2057605212667L708.7789020608224,180.2057605212667L716.2742383156094,183.32881729409496L724.3941859249626,180.51806619854972L732.5141335343153,183.32881729409496L732.5141335343153,188.01340245333688L724.3941859249626,191.7610705807307L718.7726837338721,190.19954219431645L714.4004042519127,211.12402257226472L703.7820112242973,209.25018850856748L691.2897841329855,203.00407496291155L670.6776094323203,206.75174309030535L662.5576618229677,211.43632824954716L636.9485962857776,210.4994112176986L623.8317578399001,207.68866012215346L616.961032939678,208.93788283128504L611.9641421031537,201.75485225378043L608.8410853303254,198.94410115823518L612.5887534577192,195.82104438540705L608.2164739757599,193.63490464442737L603.2195831392349,197.69487844910407L592.6011901116196,192.69798761257925L591.3519674024885,185.51495703507464L580.7335743748732,181.45498323039828L579.798456738719,178.64963032193543L708.1803904456949,178.64963032193543ZM611.9641421031537,201.75485225378043L616.961032939678,208.93788283128504L623.8317578399001,207.68866012215346L636.9485962857776,210.4994112176986L662.5576618229677,211.43632824954716L670.6776094323203,206.75174309030535L691.2897841329855,203.00407496291155L703.7820112242973,209.25018850856748L714.4004042519127,211.12402257226472L705.0312339334284,218.30705314976876L698.7851203877725,230.48697456379819L704.4066225788629,240.48075623684804L689.4159500692883,238.29461649586835L671.9268321414514,243.60381300967583L671.9268321414514,252.34837197359445L655.6869369227456,253.90990036000858L643.8193211859992,247.9760924916351L630.0778713855561,252.66067765087746L616.961032939678,252.03606629631145L615.7118102305469,240.48075623684804L606.9672512666288,235.1715597230401L610.0903080394565,232.67311430477787L608.2164739757599,230.48697456379819L610.714919394022,224.8654723727078L617.585644294244,219.55627585890034L608.8410853303254,212.06093960411272L607.5918626211943,205.8148260584568ZM675.0498889142797,356.97077386333353L672.551443496017,361.9676646998581L647.5669893133929,363.52919308627224L648.1916006679585,360.718441990727L626.9548146127279,357.2830795406163L630.0778713855561,349.7877432858289L639.4470417040399,355.7215511542022L653.1884915044834,354.78463412235385L665.6807185957954,356.03385683148497L665.6807185957954,358.8446079270302ZM616.961032939678,252.03606629631145L630.0778713855561,252.66067765087746L643.8193211859992,247.9760924916351L655.6869369227456,253.90990036000858L671.9268321414514,252.34837197359445L671.9268321414514,243.60381300967583L680.0467797508045,248.2883981689181L675.0498889142797,258.9067911965335L670.6776094323203,261.0929309375132L660.059216404705,260.46831958294706L651.3146574407867,258.9067911965335L630.0778713855561,263.2790706784923L641.9454871223026,273.27285235154216L633.2009281583838,276.0836034470873L623.8317578399001,276.0836034470873L614.4625875214159,267.0267388058861L611.3395307485875,270.7744069332799L615.0871988759814,281.0804942836122L623.8317578399001,289.2004418929654L617.585644294244,293.26041569764175L626.9548146127279,301.0680576297118L635.6993735766466,306.06494846623673L635.6993735766466,316.05873013928624L620.0840897125063,311.3741449800442L625.0809805490312,320.1187039439626L613.8379761668504,321.9925380076595L620.7087010670718,337.29551619451695L608.8410853303254,337.60782187179973L594.4750241753163,330.11248561701245L588.2289106296603,316.05873013928624L585.1058538568325,304.5034200798225L578.2351289566104,296.69577814775243L569.4905699926923,286.7019964747027L568.2413472835613,281.70510563817777L576.3612948929139,273.27285235154216L577.6105176020449,267.65135016045167L583.2320197931354,265.15290474218943L583.2320197931354,260.7806252602302L594.4750241753163,259.21909687381594L601.3457490755384,255.4714287464227L610.714919394022,255.78373442370514L613.8379761668504,252.66067765087746ZM878,329.9428998563567L861.8086839293959,333.8601537444059L856.1871817383055,330.4247912942951L854.937959029174,340.1062672900622L850.565679547215,343.85393541745566L846.1934000652557,347.913909222132L839.3226751650341,339.7939616127792L846.1934000652557,333.54784806712314L835.5750070376404,334.7970707762545L821.2089458826313,331.0494026488607L809.3413301458847,340.73087864462775L782.4830418995637,342.9170183856073L768.7415920991206,333.54784806712314L750.0032514621521,332.9232367125576L746.2555833347587,340.1062672900622L733.7633562434464,342.29240703104153L717.523461024741,332.9232367125576L698.160509033207,333.23554238984036L688.1667273601572,316.05873013928624L675.0498889142797,306.37725414351917L683.7944478781978,292.94811002035874L672.551443496017,284.5158567337229L691.914395487551,267.9636558377347L718.7726837338721,267.3390444831691L726.2680199886593,254.22220603729113L759.3724217806364,256.4083457782707L779.9845964813014,245.16534139608996L799.9721598274004,240.16845055956503L828.7042821374189,239.85614488228248L859.3102385111333,252.03606629631145L878,257.17575070575003L878,329.9428998563567ZM671.9268321414514,243.60381300967583L689.4159500692883,238.29461649586835L704.4066225788629,240.48075623684804L706.2804566425602,247.03917545978697L721.8957405066999,252.66067765087746L718.7726837338721,257.03295713283626L698.160509033207,257.9698741646848L690.6651727784199,263.2790706784923L676.2991116234108,272.6482409969766L670.6776094323203,264.5282933876239L670.6776094323203,261.0929309375132L675.0498889142797,258.9067911965335L680.0467797508045,248.2883981689181ZM583.2320197931354,260.7806252602302L583.2320197931354,265.15290474218943L577.6105176020449,267.65135016045167L576.3612948929139,273.27285235154216L568.2413472835613,281.70510563817777L565.1182905107329,280.45588292904665L565.1182905107329,276.70821480165284L555.7491201922487,271.0867126105625L553.875286128552,262.65445932392674L555.1245088376832,250.78684358718033L557.6229542559458,245.47764707337285L555.1245088376832,242.66689597782772L553.875286128552,237.35769946401967L561.3706223833392,228.6131405001015L561.9952337379052,232.0485029502123L566.9921245744296,230.48697456379819L570.7397927018234,235.1715597230401L575.1120721837827,236.73308810945412L575.7366835383483,242.97920165511027L573.8628494746516,248.91300952348365L576.3612948929139,256.4083457782707ZM548.9102219271963,178.64963032193543L549.5030066465927,179.58114916670115L555.1245088376832,184.57804000322608L548.2537839374617,191.13645922616513L540.7584476826745,187.07648542148888L528.8908319459281,187.38879109877132L513.9001594363534,184.57804000322608L505.78021182700024,184.89034568050909L502.03254369960695,188.63801380790244L495.78643015395096,184.57804000322608L492.03876202655715,191.7610705807307L500.78332099047583,199.88101819008375L504.5309891178691,205.19021470389123L512.0263253726567,211.74863392683028L518.8970502728783,215.49630205422363L525.1431638185343,222.67933263172813L540.7584476826745,229.23775185466707L538.8846136189774,232.36080862749486L522.6447184002716,225.80238940455638L512.6509367272223,219.55627585890034L496.4110415085165,214.55938502237552L482.04498035350736,201.75485225378043L485.79264848090116,200.5056295446493L477.67270087154805,193.0102932898618L477.0480895169825,187.38879109877132L466.42969648936713,184.57804000322608L460.8081942982767,192.0733762580137L455.81130346175183,186.1395683896402L455.81130346175183,180.2057605212667L456.43591481631785,179.89345484398416L468.9281419076298,180.51806619854972L470.7965777842439,178.64963032193543L474.30951629364245,178.64963032193543L474.30951629364245,178.64963032193543L477.67270087154805,180.51806619854972L484.54342577177005,180.83037187583272L484.54342577177005,178.64963032193543L548.9102219271963,178.64963032193543ZM79.99999999999994,244.22842436424185L89.78904968630678,244.22842436424185L92.91210645913509,242.04228462326216L102.90588813218488,242.66689597782772L107.9027789687097,251.4114549417459L99.78283135935663,256.09604010098826L99.78283135935663,269.5251842241488L96.6597745865289,272.02362964241104L96.03516323196334,280.45588292904665L88.53982697717572,281.70510563817777L95.41055187739727,292.01119298851063L91.03827239543841,303.5665030479739L96.6597745865289,308.56339388449896L94.16132916826615,313.247979043741L87.91521562261016,319.8063982666798L89.16443833174128,325.740206135053L82.29371343151973,330.11248561701245L79.99999999999994,329.4571389222925L79.99999999999994,244.22842436424185ZM79.99999999999994,210.40242829314585L80.41987936782306,210.18710554041604L101.65666542305377,213.31016231324384L124.7672855419811,213.31016231324384L143.50562617894906,216.12091340878908L157.87168733395822,215.49630205422363L185.97919828941042,215.80860773150664L192.84992318963202,222.67933263172813L224.705102272478,230.48697456379819L230.95121581813402,226.7393064364045L250.31416780966754,234.54694836847455L270.30173115576713,232.36080862749486L271.55095386489825,242.35459030054471L255.31105864619244,253.90990036000858L232.82504988183064,257.6575684874018L231.57582717269955,263.5913763557754L220.33282279051866,273.27285235154216L214.08670924486267,287.32660782926826L220.95743414508422,297.320389502318L210.96365247203443,304.81572575710504L207.2159843446411,316.05873013928624L194.09914589876306,319.8063982666798L181.60691880745105,332.9232367125576L159.7455213976549,333.23554238984036L142.8810148243835,332.9232367125576L132.26262179676814,339.1693502582136L125.39189689654665,345.72776948115256L117.27194928719354,344.16624109473844L110.40122438697193,338.2324332263653L105.40433355044706,328.23865155331544L89.16443833174128,325.740206135053L89.16443833174128,325.740206135053L87.91521562261016,319.8063982666798L94.16132916826615,313.247979043741L96.6597745865289,308.56339388449896L91.03827239543841,303.5665030479739L95.41055187739727,292.01119298851063L88.53982697717572,281.70510563817777L96.03516323196334,280.45588292904665L96.6597745865289,272.02362964241104L99.78283135935663,269.5251842241488L99.78283135935663,256.09604010098826L107.9027789687097,251.4114549417459L102.90588813218488,242.66689597782772L92.91210645913509,242.04228462326216L89.78904968630678,244.22842436424185L79.99999999999994,244.22842436424185L79.99999999999994,210.40242829314585ZM440.58960114779006,178.64963032193543L432.70068334282445,182.07959458496384L433.32529469739,190.51184787159957L431.4514606336934,195.5087387081245L437.0729628247838,204.25329767204266L453.3128580434896,212.9978566359614L462.0574170074083,227.36391779096994L481.4203689989418,241.4176732686966L495.1618187993849,241.4176732686966L499.53409828134426,245.16534139608996L494.5372074448194,248.60070384620064L510.1524913089596,254.8468173918567L522.6447184002716,260.1560139056646L537.6353909098463,269.2128785468658L539.5092249735429,272.33593531969404L536.3861682007151,278.58204886535L526.3923865276654,270.4621012559969L511.4017140180907,267.65135016045167L503.90637776330357,278.8943545426325L516.3986048546155,285.14046808828846L514.524770790919,294.1973327294902L507.65404589069743,295.4465554386213L498.2848755722132,310.1249222709131L490.78953931742603,311.686450657327L490.78953931742603,306.37725414351917L494.5372074448194,297.00808382503544L498.2848755722132,293.26041569764175L491.4141506719916,283.2666340245919L486.4172598354667,274.5220750606733L478.9219235806796,272.33593531969404L473.92503274415475,264.84059906490654L462.68202836197383,261.71754229207875L455.1866921071863,254.53451171457414L442.0698536613087,253.59759468272557L428.95301521543115,245.78995275065552L412.71311999672537,234.54694836847455L400.84550425997844,224.5531666954248L395.848613423454,207.3763544448708L387.10405445953535,205.19021470389123L372.73799330452624,199.56871251280074L365.24265704973914,201.75485225378043L355.24887537668934,209.87479986313303L347.75353912190224,211.12402257226472L349.6273731855989,203.6286863174771L340.25820286711513,201.44254657649742L335.8859233851558,188.01340245333688L342.1320369308118,182.7042059395294L338.6566864014456,178.64963032193543L440.58960114779006,178.64963032193543ZM474.54964409872025,307.6264768526503L488.2910938991634,306.06494846623673L482.04498035350736,319.49409258939704L484.54342577177005,325.1155947804874L480.79575764437624,333.8601537444059L467.67891919849876,327.3017345214671L458.93436023458,325.4279004577702L434.57451740652164,316.6833414938518L437.0729628247838,307.9387825299334L457.0605261708834,309.50031091634753ZM369.6149365316985,259.8437082283815L378.35949549561667,254.22220603729113L388.97788852323197,266.71443312860356L386.4794431049698,289.51274757024794L378.35949549561667,288.5758305383998L371.4887705953951,294.1973327294902L365.24265704973914,289.82505324753095L363.993434340608,268.58826719230024L360.2457662132142,258.9067911965335ZM484.54342577177005,178.64963032193543L484.54342577177005,180.83037187583272L477.67270087154805,180.51806619854972L474.30951629364245,178.64963032193543L484.54342577177005,178.64963032193543ZM470.7965777842439,178.64963032193543L468.9281419076298,180.51806619854972L456.43591481631785,179.89345484398416L459.918623478054,178.64963032193543L470.7965777842439,178.64963032193543ZM875.4360078330903,441.35036967806445L878,440.0683735946096L878,441.35036967806445ZM878,439.9955048724578L860.5594612202644,422.5549660927219L878,418.1948313977881L878,439.9955048724578ZM786.855321381523,359.469219281596L788.1045440906541,359.469219281596L790.6029895089168,355.4092454769194L803.0952166002288,355.7215511542022L818.710500464369,350.4123546403945L806.8428847276226,357.9076908951819L808.0921074367536,361.0307476680098L806.2182733730571,360.40613631344434L803.0952166002288,361.65535902257534L800.5967711819667,361.34305334529256L799.3475484728349,361.9676646998581L799.3475484728349,360.40613631344434L798.0983257637039,359.156913604313L794.3506576363101,359.156913604313L789.9783781543513,360.40613631344434ZM786.855321381523,359.469219281596L789.9783781543513,360.40613631344434L794.3506576363101,359.156913604313L798.0983257637039,359.156913604313L799.3475484728349,360.40613631344434L799.3475484728349,361.9676646998581L800.5967711819667,361.34305334529256L803.0952166002288,361.65535902257534L806.2182733730571,360.40613631344434L808.0921074367536,361.0307476680098L808.7167187913192,362.2799703771411L791.2276008634824,369.4630009546455L782.4830418995637,367.2768612136658L778.1107624176043,360.40613631344434ZM79.99999999999994,387.4630244803036L86.04138155891349,384.76597914150295L99.15822000479108,377.58294856399834L110.40122438697193,359.469219281596L116.02272657806242,348.8508262539806L128.5149536693744,348.8508262539806L139.13334669698975,356.34616250876775L155.37324191569553,355.09693979963663L173.48697119809844,358.8446079270302L180.98230745288555,359.156913604313L180.98230745288555,359.156913604313L187.8530323531071,370.08761230921107L188.47764370767266,380.70600533682637L194.7237572533286,399.1320402965117L199.09603673528798,402.8797084239054L195.97297996246022,409.43812764684435L173.48697119809844,412.5611844196724L165.36702358874533,418.8072979653283L155.37324191569553,420.3688263517424L154.74863056112997,433.1733591203373L134.7610672150309,440.044084020559L133.73469991270514,441.35036967806445L79.99999999999994,441.35036967806445ZM650.2924540941319,441.35036967806445L651.9392687953523,437.23333292501377L648.816212022524,429.7379966702265L655.0623255681801,421.61804906087355L678.1729456871074,421.30574338359077L695.0374522603793,425.990328542833L712.526570188216,430.9872193793576L720.6465177975688,433.79797047490285L733.7633562434464,428.17646828381237L740.6340811436683,423.1795774472878L756.2493650078086,421.9303547381563L768.7415920991206,424.116494479136L773.11387158108,432.54874776577174L777.4861510630387,426.92724557468136L791.2276008634824,430.9872193793576L804.9690506639255,431.9241364112062L813.0889982732785,427.5518569292469L818.5402625691078,441.35036967806445L650.2924540941319,441.35036967806445ZM387.61453991735226,441.35036967806445L391.4763339414947,439.4194726659932L393.35016800519134,432.23644208848896L391.4763339414947,425.05341151098435L403.34394967824113,418.18268661076274L408.34084051476606,412.5611844196724L417.0853994786842,407.56429358314756L418.33462218781585,394.4474551372697L438.32218553391493,400.38126300564284L445.8175217887025,398.81973461922905L460.18358294371114,401.6304857147743L483.2942030626385,409.43812764684435L491.4141506719916,425.05341151098435L507.0294345361319,428.17646828381237L531.3892773641903,435.67180453859976L544.0083110074451,441.35036967806445L387.61453991735226,441.35036967806445ZM555.2416102744756,441.35036967806445L558.2475656105114,439.731778343276L566.367513219864,431.6118307339234L562.6198450924708,418.4949922880455L568.2413472835613,410.0627390014099L580.7335743748732,401.9427913920571L592.6011901116196,399.4443459737945L615.7118102305469,402.8797084239054L621.957923776203,410.68735035597547L628.2040373218589,410.68735035597547L633.8255395129494,413.8104071288035L651.3146574407867,415.6842411925004L655.0623255681801,421.61804906087355L648.816212022524,429.7379966702265L651.9392687953523,437.23333292501377L650.2924540941319,441.35036967806445L555.2416102744756,441.35036967806445ZM540.7584476826745,229.23775185466707L525.1431638185343,222.67933263172813L518.8970502728783,215.49630205422363L512.0263253726567,211.74863392683028L504.5309891178691,205.19021470389123L500.78332099047583,199.88101819008375L492.03876202655715,191.7610705807307L495.78643015395096,184.57804000322608L502.03254369960695,188.63801380790244L505.78021182700024,184.89034568050909L513.9001594363534,184.57804000322608L528.8908319459281,187.38879109877132L540.7584476826745,187.07648542148888L548.2537839374617,191.13645922616513L554.4998974831176,190.824153548882L550.1276180011582,198.63179548095218L558.872176965077,205.19021470389123L556.3737315468147,213.31016231324384L552.0014520648555,214.24707934509252L548.8783952920271,215.80860773150664L543.2568931009367,219.8685815361829ZM606.9672512666288,235.1715597230401L615.7118102305469,240.48075623684804L616.961032939678,252.03606629631145L613.8379761668504,252.66067765087746L610.714919394022,255.78373442370514L601.3457490755384,255.4714287464227L594.4750241753163,259.21909687381594L583.2320197931354,260.7806252602302L576.3612948929139,256.4083457782707L573.8628494746516,248.91300952348365L575.7366835383483,242.97920165511027L578.2351289566104,243.29150733239328L578.8597403111766,239.85614488228248L589.4781333387914,237.04539378673724L593.2258014661852,236.42078243217168L598.8473036572756,235.48386540032323ZM579.798456738719,178.64963032193543L580.7335743748732,181.45498323039828L591.3519674024885,185.51495703507464L592.6011901116196,192.69798761257925L603.2195831392349,197.69487844910407L608.2164739757599,193.63490464442737L612.5887534577192,195.82104438540705L608.8410853303254,198.94410115823518L611.9641421031537,201.75485225378043L607.5918626211943,205.8148260584568L608.8410853303254,212.06093960411272L617.585644294244,219.55627585890034L610.714919394022,224.8654723727078L608.2164739757599,230.48697456379819L610.0903080394565,232.67311430477787L606.9672512666288,235.1715597230401L598.8473036572756,235.48386540032323L593.2258014661852,236.42078243217168L592.6011901116196,235.1715597230401L594.4750241753163,232.98541998206042L596.3488582390135,228.6131405001015L593.8504128207508,228.92544617738406L590.727356047923,225.49008372727337L587.6042992750947,224.8654723727078L585.730465211398,222.05472127716257L582.6074084385698,221.117804245314L580.1089630203077,218.61935882705177L576.9859062474793,219.55627585890034L574.4874608292172,225.17777804999082L570.1151813472578,226.42700075912182L571.3644040563889,224.8654723727078L565.1182905107329,221.430109922597L559.4967883196425,219.55627585890034L556.9983429013803,217.05783044063764L552.0014520648555,214.24707934509252L556.3737315468147,213.31016231324384L558.872176965077,205.19021470389123L550.1276180011582,198.63179548095218L554.4998974831176,190.824153548882L548.2537839374617,191.13645922616513L555.1245088376832,184.57804000322608L549.5030066465927,179.58114916670115L548.9102219271963,178.64963032193543L579.798456738719,178.64963032193543ZM566.9921245744296,230.48697456379819L561.9952337379052,232.0485029502123L561.3706223833392,228.6131405001015L553.875286128552,237.35769946401967L555.1245088376832,242.66689597782772L551.3768407102899,241.4176732686966L546.379949873765,235.79617107760566L538.8846136189774,232.36080862749486L540.7584476826745,229.23775185466707L543.2568931009367,219.8685815361829L548.8783952920271,215.80860773150664L552.0014520648555,214.24707934509252L556.9983429013803,217.05783044063764L559.4967883196425,219.55627585890034L565.1182905107329,221.430109922597L571.3644040563889,224.8654723727078L570.1151813472578,226.42700075912182ZM575.7366835383483,242.97920165511027L575.1120721837827,236.73308810945412L570.7397927018234,235.1715597230401L566.9921245744296,230.48697456379819L570.1151813472578,226.42700075912182L574.4874608292172,225.17777804999082L576.9859062474793,219.55627585890034L580.1089630203077,218.61935882705177L582.6074084385698,221.117804245314L585.730465211398,222.05472127716257L587.6042992750947,224.8654723727078L590.727356047923,225.49008372727337L593.8504128207508,228.92544617738406L596.3488582390135,228.6131405001015L594.4750241753163,232.98541998206042L592.6011901116196,235.1715597230401L593.2258014661852,236.42078243217168L589.4781333387914,237.04539378673724L578.8597403111766,239.85614488228248L578.2351289566104,243.29150733239328Z" style="fill: none; stroke-miterlimit: 2; stroke: rgb(0, 0, 0); stroke-opacity: 1; stroke-width: 1px;"/></g><g class="layer coastlines"><path d="M790.6029895089168,355.4092454769194L803.0952166002288,355.7215511542022L818.710500464369,350.4123546403945L806.8428847276226,357.9076908951819L808.7167187913192,362.2799703771411L791.2276008634824,369.4630009546455L782.4830418995637,367.2768612136658L778.1107624176043,360.40613631344434L788.1045440906541,359.469219281596L790.6029895089168,355.4092454769194M675.0498889142797,356.97077386333353L672.551443496017,361.9676646998581L647.5669893133929,363.52919308627224L648.1916006679585,360.718441990727L626.9548146127279,357.2830795406163L630.0778713855561,349.7877432858289L639.4470417040399,355.7215511542022L653.1884915044834,354.78463412235385L665.6807185957954,356.03385683148497L665.6807185957954,358.8446079270302L675.0498889142797,356.97077386333353M369.6149365316985,259.8437082283815L378.35949549561667,254.22220603729113L388.97788852323197,266.71443312860356L386.4794431049698,289.51274757024794L378.35949549561667,288.5758305383998L371.4887705953951,294.1973327294902L365.24265704973914,289.82505324753095L363.993434340608,268.58826719230024L360.2457662132142,258.9067911965335L369.6149365316985,259.8437082283815M370.239547886264,229.86236320923263L381.4825522684449,222.99163830901114L384.60560904127317,237.98231081858523L378.9841068501827,251.4114549417459L370.86415924082957,247.9760924916351L367.1164911134358,236.10847675488867L370.239547886264,229.86236320923263M474.54964409872025,307.6264768526503L488.2910938991634,306.06494846623673L482.04498035350736,319.49409258939704L484.54342577177005,325.1155947804874L480.79575764437624,333.8601537444059L467.67891919849876,327.3017345214671L458.93436023458,325.4279004577702L434.57451740652164,316.6833414938518L437.0729628247838,307.9387825299334L457.0605261708834,309.50031091634753L474.54964409872025,307.6264768526503M869.9286315387487,194.57182167627593L878,197.220239452624M79.99999999999994,387.4630244803036L86.04138155891349,384.76597914150295L99.15822000479108,377.58294856399834L110.40122438697193,359.469219281596L116.02272657806242,348.8508262539806L128.5149536693744,348.8508262539806L139.13334669698975,356.34616250876775L155.37324191569553,355.09693979963663L173.48697119809844,358.8446079270302L180.98230745288555,359.156913604313L197.84681402615686,349.7877432858289L216.58515466312485,346.6646865130009L227.20354769074018,339.4816559354964L244.06805426401152,334.1724594216887L273.4247879285954,331.0494026488607L302.15691023861314,329.8001799397297L310.9014692025313,332.298625357992L327.1413644212371,325.4279004577702L345.8797050582056,325.4279004577702L352.75042995842716,329.1755685851641L364.6180456951736,328.23865155331544L383.9809976867071,321.36792665309395L395.848613423454,323.24176071679074L395.224002068888,331.98631968070924L410.2146745784627,325.740206135053L411.4638972875938,329.1755685851641L402.71933832367563,337.60782187179973L402.71933832367563,345.72776948115256L408.34084051476606,349.7877432858289L406.4670064510694,364.77841579540336L394.59939071432245,373.522974759322L398.34705884171626,383.2044507550888L407.09161780563494,383.5167564323716L411.4638972875938,391.63670404172444L418.33462218781585,394.4474551372697L438.32218553391493,400.38126300564284L445.8175217887025,398.81973461922905L460.18358294371114,401.6304857147743L483.2942030626385,409.43812764684435L491.4141506719916,425.05341151098435L507.0294345361319,428.17646828381237L531.3892773641903,435.67180453859976L544.0083110074451,441.35036967806445M555.2416102744756,441.35036967806445L558.2475656105114,439.731778343276L566.367513219864,431.6118307339234L562.6198450924708,418.4949922880455L568.2413472835613,410.0627390014099L580.7335743748732,401.9427913920571L592.6011901116196,399.4443459737945L615.7118102305469,402.8797084239054L621.957923776203,410.68735035597547L628.2040373218589,410.68735035597547L633.8255395129494,413.8104071288035L651.3146574407867,415.6842411925004L655.0623255681801,421.61804906087355L678.1729456871074,421.30574338359077L695.0374522603793,425.990328542833L712.526570188216,430.9872193793576L720.6465177975688,433.79797047490285L733.7633562434464,428.17646828381237L740.6340811436683,423.1795774472878L756.2493650078086,421.9303547381563L768.7415920991206,424.116494479136L773.11387158108,432.54874776577174L777.4861510630387,426.92724557468136L791.2276008634824,430.9872193793576L804.9690506639255,431.9241364112062L813.0889982732785,427.5518569292469L818.0858891098035,421.9303547381563L816.8366664006719,420.993437706308L821.8335572371968,412.87349009695515L824.9566140100251,399.7566516510773L827.4550594282873,395.38437216911825L828.0796707828529,395.07206649183524L834.3257843285093,381.01831101410914L843.0703432924274,368.83838960007995L843.0703432924274,368.2137782455144L841.8211205832963,354.78463412235385L846.1934000652557,347.913909222132L839.3226751650341,339.7939616127792L846.1934000652557,333.54784806712314L835.5750070376404,334.7970707762545L821.2089458826313,331.0494026488607L809.3413301458847,340.73087864462775L782.4830418995637,342.9170183856073L768.7415920991206,333.54784806712314L750.0032514621521,332.9232367125576L746.2555833347587,340.1062672900622L733.7633562434464,342.29240703104153L717.523461024741,332.9232367125576L698.160509033207,333.23554238984036L688.1667273601572,316.05873013928624L675.0498889142797,306.37725414351917L683.7944478781978,292.94811002035874L672.551443496017,284.5158567337229L691.914395487551,267.9636558377347L718.7726837338721,267.3390444831691L726.2680199886593,254.22220603729113L759.3724217806364,256.4083457782707L779.9845964813014,245.16534139608996L799.9721598274004,240.16845055956503L828.7042821374189,239.85614488228248L859.3102385111333,252.03606629631145L878,257.17575070575003M878,197.220239452624L869.9286315387487,194.57182167627593L854.937959029174,184.26573432594353L867.4301861204865,181.45498323039828L870.2355390289492,178.64963032193543M828.9080971110013,178.64963032193543L834.9503956830748,181.45498323039828L852.4395136109117,180.51806619854972L849.3164568380835,186.45187406692332L829.95350484655,189.5749308397509L806.8428847276226,199.56871251280074L796.8491030545729,196.13335006269006L800.5967711819667,188.01340245333688L781.8584305449981,183.01651161681195L784.9814873178263,179.58114916670115L787.5309073140274,178.64963032193543M737.307447017991,178.64963032193543L732.5141335343153,183.32881729409496L732.5141335343153,188.01340245333688L724.3941859249626,191.7610705807307L718.7726837338721,190.19954219431645L714.4004042519127,211.12402257226472L705.0312339334284,218.30705314976876L698.7851203877725,230.48697456379819L704.4066225788629,240.48075623684804L706.2804566425602,247.03917545978697L721.8957405066999,252.66067765087746L718.7726837338721,257.03295713283626L698.160509033207,257.9698741646848L690.6651727784199,263.2790706784923L676.2991116234108,272.6482409969766L670.6776094323203,264.5282933876239L670.6776094323203,261.0929309375132L660.059216404705,260.46831958294706L651.3146574407867,258.9067911965335L630.0778713855561,263.2790706784923L641.9454871223026,273.27285235154216L633.2009281583838,276.0836034470873L623.8317578399001,276.0836034470873L614.4625875214159,267.0267388058861L611.3395307485875,270.7744069332799L615.0871988759814,281.0804942836122L623.8317578399001,289.2004418929654L617.585644294244,293.26041569764175L626.9548146127279,301.0680576297118L635.6993735766466,306.06494846623673L635.6993735766466,316.05873013928624L620.0840897125063,311.3741449800442L625.0809805490312,320.1187039439626L613.8379761668504,321.9925380076595L620.7087010670718,337.29551619451695L608.8410853303254,337.60782187179973L594.4750241753163,330.11248561701245L588.2289106296603,316.05873013928624L585.1058538568325,304.5034200798225L578.2351289566104,296.69577814775243L569.4905699926923,286.7019964747027L568.2413472835613,281.70510563817777L565.1182905107329,280.45588292904665L565.1182905107329,276.70821480165284L555.7491201922487,271.0867126105625L553.875286128552,262.65445932392674L555.1245088376832,250.78684358718033L557.6229542559458,245.47764707337285L555.1245088376832,242.66689597782772L551.3768407102899,241.4176732686966L546.379949873765,235.79617107760566L538.8846136189774,232.36080862749486L522.6447184002716,225.80238940455638L512.6509367272223,219.55627585890034L496.4110415085165,214.55938502237552L482.04498035350736,201.75485225378043L485.79264848090116,200.5056295446493L477.67270087154805,193.0102932898618L477.0480895169825,187.38879109877132L466.42969648936713,184.57804000322608L460.8081942982767,192.0733762580137L455.81130346175183,186.1395683896402L455.81130346175183,180.2057605212667L456.43591481631785,179.89345484398416L459.918623478054,178.64963032193543M440.58960114779006,178.64963032193543L432.70068334282445,182.07959458496384L433.32529469739,190.51184787159957L431.4514606336934,195.5087387081245L437.0729628247838,204.25329767204266L453.3128580434896,212.9978566359614L462.0574170074083,227.36391779096994L481.4203689989418,241.4176732686966L495.1618187993849,241.4176732686966L499.53409828134426,245.16534139608996L494.5372074448194,248.60070384620064L510.1524913089596,254.8468173918567L522.6447184002716,260.1560139056646L537.6353909098463,269.2128785468658L539.5092249735429,272.33593531969404L536.3861682007151,278.58204886535L526.3923865276654,270.4621012559969L511.4017140180907,267.65135016045167L503.90637776330357,278.8943545426325L516.3986048546155,285.14046808828846L514.524770790919,294.1973327294902L507.65404589069743,295.4465554386213L498.2848755722132,310.1249222709131L490.78953931742603,311.686450657327L490.78953931742603,306.37725414351917L494.5372074448194,297.00808382503544L498.2848755722132,293.26041569764175L491.4141506719916,283.2666340245919L486.4172598354667,274.5220750606733L478.9219235806796,272.33593531969404L473.92503274415475,264.84059906490654L462.68202836197383,261.71754229207875L455.1866921071863,254.53451171457414L442.0698536613087,253.59759468272557L428.95301521543115,245.78995275065552L412.71311999672537,234.54694836847455L400.84550425997844,224.5531666954248L395.848613423454,207.3763544448708L387.10405445953535,205.19021470389123L372.73799330452624,199.56871251280074L365.24265704973914,201.75485225378043L355.24887537668934,209.87479986313303L347.75353912190224,211.12402257226472L332.138255257762,221.117804245314L297.78463075665377,216.4332190860722L272.8001765740293,222.05472127716257L270.30173115576713,232.36080862749486L271.55095386489825,242.35459030054471L255.31105864619244,253.90990036000858L232.82504988183064,257.6575684874018L231.57582717269955,263.5913763557754L220.33282279051866,273.27285235154216L214.08670924486267,287.32660782926826L220.95743414508422,297.320389502318L210.96365247203443,304.81572575710504L207.2159843446411,316.05873013928624L194.09914589876306,319.8063982666798L181.60691880745105,332.9232367125576L159.7455213976549,333.23554238984036L142.8810148243835,332.9232367125576L132.26262179676814,339.1693502582136L125.39189689654665,345.72776948115256L117.27194928719354,344.16624109473844L110.40122438697193,338.2324332263653L105.40433355044706,328.23865155331544L89.16443833174128,325.740206135053L82.29371343151973,330.11248561701245L79.99999999999994,329.4571389222925M79.99999999999994,210.40242829314585L80.41987936782306,210.18710554041604L101.65666542305377,213.31016231324384L124.7672855419811,213.31016231324384L143.50562617894906,216.12091340878908L157.87168733395822,215.49630205422363L185.97919828941042,215.80860773150664L194.7237572533286,205.50252038117424L197.14293653794488,178.64963032193543" style="fill: none; stroke-miterlimit: 2; stroke: rgb(68, 68, 68); stroke-opacity: 1; stroke-width: 1px;"/></g><g class="layer backplot"><g class="choroplethlayer"><g class="trace choropleth"><path class="choroplethlocation" fill="rgb(0, 68, 27)" d="M79.99999999999994,210.40242829314585L80.41987936782306,210.18710554041604L101.65666542305377,213.31016231324384L124.7672855419811,213.31016231324384L143.50562617894906,216.12091340878908L157.87168733395822,215.49630205422363L185.97919828941042,215.80860773150664L192.84992318963202,222.67933263172813L224.705102272478,230.48697456379819L230.95121581813402,226.7393064364045L250.31416780966754,234.54694836847455L270.30173115576713,232.36080862749486L271.55095386489825,242.35459030054471L255.31105864619244,253.90990036000858L232.82504988183064,257.6575684874018L231.57582717269955,263.5913763557754L220.33282279051866,273.27285235154216L214.08670924486267,287.32660782926826L220.95743414508422,297.320389502318L210.96365247203443,304.81572575710504L207.2159843446411,316.05873013928624L194.09914589876306,319.8063982666798L181.60691880745105,332.9232367125576L159.7455213976549,333.23554238984036L142.8810148243835,332.9232367125576L132.26262179676814,339.1693502582136L125.39189689654665,345.72776948115256L117.27194928719354,344.16624109473844L110.40122438697193,338.2324332263653L105.40433355044706,328.23865155331544L89.16443833174128,325.740206135053L89.16443833174128,325.740206135053L87.91521562261016,319.8063982666798L94.16132916826615,313.247979043741L96.6597745865289,308.56339388449896L91.03827239543841,303.5665030479739L95.41055187739727,292.01119298851063L88.53982697717572,281.70510563817777L96.03516323196334,280.45588292904665L96.6597745865289,272.02362964241104L99.78283135935663,269.5251842241488L99.78283135935663,256.09604010098826L107.9027789687097,251.4114549417459L102.90588813218488,242.66689597782772L92.91210645913509,242.04228462326216L89.78904968630678,244.22842436424185L79.99999999999994,244.22842436424185L79.99999999999994,210.40242829314585Z" style="stroke: rgb(68, 68, 68); stroke-opacity: 1; stroke-width: 1px; opacity: 1;"/><path class="choroplethlocation" fill="rgb(90, 183, 105)" d="M675.0498889142797,356.97077386333353L672.551443496017,361.9676646998581L647.5669893133929,363.52919308627224L648.1916006679585,360.718441990727L626.9548146127279,357.2830795406163L630.0778713855561,349.7877432858289L639.4470417040399,355.7215511542022L653.1884915044834,354.78463412235385L665.6807185957954,356.03385683148497L665.6807185957954,358.8446079270302ZM616.961032939678,252.03606629631145L630.0778713855561,252.66067765087746L643.8193211859992,247.9760924916351L655.6869369227456,253.90990036000858L671.9268321414514,252.34837197359445L671.9268321414514,243.60381300967583L680.0467797508045,248.2883981689181L675.0498889142797,258.9067911965335L670.6776094323203,261.0929309375132L660.059216404705,260.46831958294706L651.3146574407867,258.9067911965335L630.0778713855561,263.2790706784923L641.9454871223026,273.27285235154216L633.2009281583838,276.0836034470873L623.8317578399001,276.0836034470873L614.4625875214159,267.0267388058861L611.3395307485875,270.7744069332799L615.0871988759814,281.0804942836122L623.8317578399001,289.2004418929654L617.585644294244,293.26041569764175L626.9548146127279,301.0680576297118L635.6993735766466,306.06494846623673L635.6993735766466,316.05873013928624L620.0840897125063,311.3741449800442L625.0809805490312,320.1187039439626L613.8379761668504,321.9925380076595L620.7087010670718,337.29551619451695L608.8410853303254,337.60782187179973L594.4750241753163,330.11248561701245L588.2289106296603,316.05873013928624L585.1058538568325,304.5034200798225L578.2351289566104,296.69577814775243L569.4905699926923,286.7019964747027L568.2413472835613,281.70510563817777L576.3612948929139,273.27285235154216L577.6105176020449,267.65135016045167L583.2320197931354,265.15290474218943L583.2320197931354,260.7806252602302L594.4750241753163,259.21909687381594L601.3457490755384,255.4714287464227L610.714919394022,255.78373442370514L613.8379761668504,252.66067765087746Z" style="stroke: rgb(68, 68, 68); stroke-opacity: 1; stroke-width: 1px; opacity: 1;"/><path class="choroplethlocation" fill="rgb(179, 225, 173)" d="M440.58960114779006,178.64963032193543L432.70068334282445,182.07959458496384L433.32529469739,190.51184787159957L431.4514606336934,195.5087387081245L437.0729628247838,204.25329767204266L453.3128580434896,212.9978566359614L462.0574170074083,227.36391779096994L481.4203689989418,241.4176732686966L495.1618187993849,241.4176732686966L499.53409828134426,245.16534139608996L494.5372074448194,248.60070384620064L510.1524913089596,254.8468173918567L522.6447184002716,260.1560139056646L537.6353909098463,269.2128785468658L539.5092249735429,272.33593531969404L536.3861682007151,278.58204886535L526.3923865276654,270.4621012559969L511.4017140180907,267.65135016045167L503.90637776330357,278.8943545426325L516.3986048546155,285.14046808828846L514.524770790919,294.1973327294902L507.65404589069743,295.4465554386213L498.2848755722132,310.1249222709131L490.78953931742603,311.686450657327L490.78953931742603,306.37725414351917L494.5372074448194,297.00808382503544L498.2848755722132,293.26041569764175L491.4141506719916,283.2666340245919L486.4172598354667,274.5220750606733L478.9219235806796,272.33593531969404L473.92503274415475,264.84059906490654L462.68202836197383,261.71754229207875L455.1866921071863,254.53451171457414L442.0698536613087,253.59759468272557L428.95301521543115,245.78995275065552L412.71311999672537,234.54694836847455L400.84550425997844,224.5531666954248L395.848613423454,207.3763544448708L387.10405445953535,205.19021470389123L372.73799330452624,199.56871251280074L365.24265704973914,201.75485225378043L355.24887537668934,209.87479986313303L347.75353912190224,211.12402257226472L349.6273731855989,203.6286863174771L340.25820286711513,201.44254657649742L335.8859233851558,188.01340245333688L342.1320369308118,182.7042059395294L338.6566864014456,178.64963032193543L440.58960114779006,178.64963032193543ZM474.54964409872025,307.6264768526503L488.2910938991634,306.06494846623673L482.04498035350736,319.49409258939704L484.54342577177005,325.1155947804874L480.79575764437624,333.8601537444059L467.67891919849876,327.3017345214671L458.93436023458,325.4279004577702L434.57451740652164,316.6833414938518L437.0729628247838,307.9387825299334L457.0605261708834,309.50031091634753ZM369.6149365316985,259.8437082283815L378.35949549561667,254.22220603729113L388.97788852323197,266.71443312860356L386.4794431049698,289.51274757024794L378.35949549561667,288.5758305383998L371.4887705953951,294.1973327294902L365.24265704973914,289.82505324753095L363.993434340608,268.58826719230024L360.2457662132142,258.9067911965335Z" style="stroke: rgb(68, 68, 68); stroke-opacity: 1; stroke-width: 1px; opacity: 1;"/><path class="choroplethlocation" fill="rgb(230, 245, 225)" d="M786.855321381523,359.469219281596L789.9783781543513,360.40613631344434L794.3506576363101,359.156913604313L798.0983257637039,359.156913604313L799.3475484728349,360.40613631344434L799.3475484728349,361.9676646998581L800.5967711819667,361.34305334529256L803.0952166002288,361.65535902257534L806.2182733730571,360.40613631344434L808.0921074367536,361.0307476680098L808.7167187913192,362.2799703771411L791.2276008634824,369.4630009546455L782.4830418995637,367.2768612136658L778.1107624176043,360.40613631344434Z" style="stroke: rgb(68, 68, 68); stroke-opacity: 1; stroke-width: 1px; opacity: 1;"/><path class="choroplethlocation" fill="rgb(247, 252, 245)" style="stroke: rgb(68, 68, 68); stroke-opacity: 1; stroke-width: 1px; opacity: 1;"/></g></g></g><g class="layer lakes"><path style="stroke: none; fill: rgb(255, 255, 255); fill-opacity: 1;"/></g><g class="layer frontplot"><g class="scatterlayer"/></g></g></g><g class="funnelarealayer"/><g class="pielayer"/><g class="iciclelayer"/><g class="treemaplayer"/><g class="sunburstlayer"/><g class="glimages"/><defs id="topdefs-456dfe"><g class="clips"/></defs><g class="layer-above"><g class="imagelayer"/><g class="shapelayer"/></g><g class="infolayer"><g class="cbcoloraxis colorbar" transform="translate(80,100)"><rect class="cbbg" x="814" y="0" width="94.484375" height="420" style="fill: rgb(0, 0, 0); fill-opacity: 0; stroke: rgb(68, 68, 68); stroke-opacity: 1; stroke-width: 0;"/><g class="cbfills" transform="translate(0,32)"><rect class="cbfill gradient_filled" style="fill: url('#g456dfe-cbcoloraxis');" x="824" y="0" width="30" height="378"/></g><g class="cblines" transform="translate(0,32)"/><g class="cbaxis crisp" transform="translate(0,-100)"><g class="ycbcoloraxistick"><text text-anchor="start" x="856.9" y="4.199999999999999" transform="translate(0,459.21000000000004)" style="font-family: 'Open Sans', verdana, arial, sans-serif; font-size: 12px; fill: rgb(42, 63, 95); fill-opacity: 1; white-space: pre; opacity: 1;">2k</text></g><g class="ycbcoloraxistick"><text text-anchor="start" x="856.9" y="4.199999999999999" style="font-family: 'Open Sans', verdana, arial, sans-serif; font-size: 12px; fill: rgb(42, 63, 95); fill-opacity: 1; white-space: pre; opacity: 1;" transform="translate(0,406.6700000000001)">4k</text></g><g class="ycbcoloraxistick"><text text-anchor="start" x="856.9" y="4.199999999999999" style="font-family: 'Open Sans', verdana, arial, sans-serif; font-size: 12px; fill: rgb(42, 63, 95); fill-opacity: 1; white-space: pre; opacity: 1;" transform="translate(0,354.12)">6k</text></g><g class="ycbcoloraxistick"><text text-anchor="start" x="856.9" y="4.199999999999999" style="font-family: 'Open Sans', verdana, arial, sans-serif; font-size: 12px; fill: rgb(42, 63, 95); fill-opacity: 1; white-space: pre; opacity: 1;" transform="translate(0,301.57000000000005)">8k</text></g><g class="ycbcoloraxistick"><text text-anchor="start" x="856.9" y="4.199999999999999" style="font-family: 'Open Sans', verdana, arial, sans-serif; font-size: 12px; fill: rgb(42, 63, 95); fill-opacity: 1; white-space: pre; opacity: 1;" transform="translate(0,249.02000000000004)">10k</text></g><g class="ycbcoloraxistick"><text text-anchor="start" x="856.9" y="4.199999999999999" style="font-family: 'Open Sans', verdana, arial, sans-serif; font-size: 12px; fill: rgb(42, 63, 95); fill-opacity: 1; white-space: pre; opacity: 1;" transform="translate(0,196.48000000000002)">12k</text></g><g class="ycbcoloraxistick"><text text-anchor="start" x="856.9" y="4.199999999999999" style="font-family: 'Open Sans', verdana, arial, sans-serif; font-size: 12px; fill: rgb(42, 63, 95); fill-opacity: 1; white-space: pre; opacity: 1;" transform="translate(0,143.93000000000004)">14k</text></g></g><g class="cbtitleunshift" transform="translate(-80,-100)"><g class="cbtitle" transform=""><text class="ycbcoloraxistitle" x="903.96" y="123.5" text-anchor="start" style="font-family: 'Open Sans', verdana, arial, sans-serif; font-size: 14px; fill: rgb(42, 63, 95); opacity: 1; font-weight: normal; white-space: pre;">individuals</text></g></g><rect class="cboutline" x="824" y="32" width="30" height="378" style="stroke: rgb(68, 68, 68); stroke-opacity: 1; fill: none; stroke-width: 0;"/></g><g class="g-gtitle"><text class="gtitle" x="50" y="50" text-anchor="start" dy="0em" style="font-family: 'Open Sans', verdana, arial, sans-serif; font-size: 17px; fill: rgb(42, 63, 95); opacity: 1; font-weight: normal; white-space: pre;">Mediterranean Situation Arrivals by Country</text></g></g></svg>