<svg class="main-svg" xmlns="http://www.w3.org/2000/svg" xmlns:xlink="http://www.w3.org/1999/xlink" width="1200" height="800" style="" viewBox="0 0 1200 800"><rect x="0" y="0" width="1200" height="800" style="fill: rgb(255, 255, 255); fill-opacity: 1;"/><defs id="defs-dd3c6a"><g class="clips"><clipPath id="clipdd3c6ageo"><rect x="79.99999999999983" y="246.3881360150425" width="994.0000000000002" height="327.223727969915"/></clipPath></g><g class="gradients"><linearGradient x1="0" x2="0" y1="1" y2="0" id="gdd3c6a-cbcoloraxis"><stop offset="0%" stop-color="rgb(247, 251, 255)" stop-opacity="1"/><stop offset="12.5%" stop-color="rgb(222, 235, 247)" stop-opacity="1"/><stop offset="25%" stop-color="rgb(198, 219, 239)" stop-opacity="1"/><stop offset="37.5%" stop-color="rgb(158, 202, 225)" stop-opacity="1"/><stop offset="50%" stop-color="rgb(107, 174, 214)" stop-opacity="1"/><stop offset="62.5%" stop-color="rgb(66, 146, 198)" stop-opacity="1"/><stop offset="75%" stop-color="rgb(33, 113, 181)" stop-opacity="1"/><stop offset="87.5%" stop-color="rgb(8, 81, 156)" stop-opacity="1"/><stop offset="100%" stop-color="rgb(8, 48, 107)" stop-opacity="1"/></linearGradient></g><g class="patterns"/></defs><g class="bglayer"/><g class="layer-below"><g class="imagelayer"/><g class="shapelayer"/></g><g class="cartesianlayer"/><g class="polarlayer"/><g class="smithlayer"/><g class="ternarylayer"/><g class="geolayer"><g class="geo geo" clip-path="url(#clipdd3c6ageo)"><g class="layer bg"><rect x="79.99999999999983" y="246.3881360150425" width="994.0000000000002" height="327.223727969915" style="pointer-events: all; fill: rgb(255, 255, 255); fill-opacity: 1;"/></g><g class="layer land"><path d="M985.3656985203718,469.67449216768296L986.9217478598158,473.5646155162932L987.6997725295378,475.12066485573746L965.91508177732,484.06794855754106L955.0227364012108,481.3448622135138L949.576563713156,472.78659084657124L960.4689090892653,471.61955384198825L962.0249584287094,471.61955384198825L965.1370571075979,466.56239348879467L980.6975505020392,466.9514058236556L1000.148167245091,460.33819613101787ZM821.2024932090148,468.50745516309996L818.0903945301262,474.7316525208762L786.9694077412437,476.6767141951815L787.7474324109656,473.17560318143217L761.2945936404152,468.8964674979609L765.1847169890258,459.5601714612959L776.8550870348564,466.9514058236556L793.9716297687423,465.7843688190726L809.5321231631835,467.3404181585166L809.5321231631835,470.84152917226595ZM571.4565742282304,407.04350625505595L588.5731169621156,405.09844458075133L580.792870264895,421.82597497977554L583.9049689437836,428.82819700727407L579.236820925451,439.7205423833831L562.8983028612878,431.55128335130144L552.0059574851784,429.2172093421351L521.662995366018,418.3248639660262L524.7750940449059,407.4325185899173L549.6718834760125,409.3775802642226ZM440.7484297149225,347.52461902131756L451.6407750910311,340.52239699381903L464.86719447630634,356.0828903882609L461.75509579741833,384.4807908331161L451.6407750910311,383.3137538285333L443.0825037240885,390.31597585603197L435.3022570268679,384.86980316797735L433.74620768742386,358.4169643974269L429.07805966909126,346.357582016735ZM441.52645438464447,310.17943487465845L455.53089843964176,301.6211635077159L459.42102178825235,320.29375558104505L452.4187997607537,337.0212859800697L442.3044790543665,332.7421502965984L437.6363310360339,317.9596815718792ZM79.99999999999983,506.48903049301L87.52522966110257,503.12955296573205L103.86374772526591,494.182269263928L117.86819178026315,471.61955384198825L124.87041380776179,458.3931344567129L140.43090720220306,458.3931344567129L153.65732658747828,467.72943049337766L173.88596800025215,466.17338115393363L196.44868342219263,470.84152917226595L205.78497945885726,471.2305415071269L226.79164554135315,459.5601714612959L250.13238563301502,455.67004811268555L263.35880501829024,446.7227644108817L284.3654711007861,440.1095547182441L320.9326305777239,436.21943136963364L356.721765384939,434.66338203018984L367.61411076104764,437.7754807090781L387.8427521738215,429.2172093421351L411.183492265484,429.2172093421351L419.74176363242657,434.2743696953288L434.5242323571459,432.71832035588443L458.6429971185297,424.16004898894175L473.4254658432496,426.4941229981081L472.647441173527,437.3864683742171L491.32003324685684,429.60622167699614L492.87608258630087,433.88535736046776L481.98373721019226,444.38869040171573L481.98373721019226,454.50301110810256L488.98595923769085,459.5601714612959L486.65188522852486,478.2327635346255L471.869416503805,489.12510891073464L476.53756452213764,501.18449129142675L487.4299098982469,501.5735036262877L492.87608258630087,511.6878243326746L501.4343539532441,515.1889353464239L526.33114338435,522.5801697087835L535.6674394210152,520.6351080344784L553.5620068246225,524.1362190482279L582.348919604339,533.8615274197538L592.4632403107262,553.3121441628053L611.9138570537781,557.2022675114157L642.2568191729387,566.5385635480806L657.9752645882205,573.6118639849575L79.99999999999983,573.6118639849575ZM671.9676198155753,573.6118639849575L675.7118799709876,571.5957239012739L685.8262006773743,561.4814031948873L681.1580526590424,545.1428851307237L688.160274686541,534.6395520894758L703.7207680809822,524.5252313830889L718.5032368057015,521.4131327042005L747.2901495854179,525.6922683876719L755.0703962826386,535.4175767591978L762.8506429798592,535.4175767591978L769.8528650073579,539.3077001078082L791.6375557595763,541.6417741169744L796.3057037779083,549.033008479334L825.0926165576248,548.643996144473L846.0992826401213,554.4791811673887L867.8839733923392,560.703378525165L877.9982940987259,564.2044895389143L894.3368121628891,557.2022675114157L902.8950835298323,550.9780701536395L922.3457002728842,549.422020814195L937.9061936673254,552.1451071582223L943.3523663553801,562.6484401994703L948.798539043434,555.6462181719717L965.91508177732,560.703378525165L983.0316245112053,561.8704155297484L993.1459452175925,556.4242428416937L999.3701425753691,549.422020814195L997.8140932359245,548.254983809612L1004.038290593701,538.140663103225L1007.9284139423117,521.8021450390615L1011.0405126211997,516.3559723510072L1011.8185372909218,515.9669600161459L1019.5987839881429,498.4614049473994L1030.4911293642515,483.2899238878191L1030.4911293642515,482.51189921809714L1028.9350800248076,465.7843688190726L1034.3812527128623,457.2260974521296L1025.8229813459195,447.11177674574276L1034.3812527128623,439.33153004852215L1021.1548333275869,440.8875793879664L1003.260265923979,436.21943136963364L988.4777971992598,448.278813750326L955.0227364012108,451.00190009435323L937.9061936673254,439.33153004852215L914.5654535756629,438.5535053788001L909.8973055573309,447.500789080604L894.3368121628891,450.22387542463105L874.1081707501157,438.5535053788001L849.9894059887313,438.9425177136611L837.5410112731781,417.54683929630414L821.2024932090148,405.4874569156119L832.0948385851234,388.75992651658737L818.0903945301262,378.2565934753394L842.2091592915107,357.63893972770484L875.6642200895599,356.8609150579829L885.0005161262244,340.52239699381903L926.2358236214943,343.2454833378463L951.9106377223227,329.2410392828491L976.8074271534285,323.0168419250725L1012.5965619606443,322.62782959021183L1031.762198973122,330.1406924419765L1050.7197707770256,337.79931064979166L1074,344.20137368611006L1074,573.6118639849575ZM1074,269.5199473883566L1063.9461901623008,266.2210410353615L1045.2735980889709,253.38363398494744L1060.8340914834127,249.8825229711981L1064.3284784395682,246.3881360150425L1074,246.3881360150425ZM1012.8504367522994,246.3881360150425L1020.3768086578649,249.8825229711981L1042.1614994100828,248.7154859666149L1038.2713760614722,256.1067203289749L1014.1526113000883,259.9968436775848L985.3656985203718,272.4452383931381L972.9173038048186,268.1661027096668L977.5854518231513,258.0517820032795L954.2447117314887,251.82758464550284L958.1348350800993,247.54844896203156L961.310428408701,246.3881360150425L1012.8504367522994,246.3881360150425ZM898.751381373287,246.3881360150425L892.7807628234451,252.21659698036422L892.7807628234451,258.0517820032795L882.6664421170585,262.7199300216122L875.6642200895599,260.7748683473068L870.2180474015051,286.83869478299664L858.5476773556738,295.7859784848L850.7674306584533,310.9574595443805L857.7696526859519,323.4058542599338L860.1037266951187,331.57511329201566L879.5543434381698,338.5773353195143L875.6642200895599,344.02350800756824L849.9894059887313,345.1905450121516L840.6531099520666,351.80375470478884L822.7585425484588,363.47412475062015L815.7563205209601,353.35980404423356L815.7563205209601,349.0806683607623L802.5299011356849,348.30264369103963L791.6375557595763,346.357582016735L765.1847169890258,351.80375470478884L779.967185713745,364.2521494203422L769.0748403376358,367.75326043409154L757.4044702918052,367.75326043409154L745.734100245974,356.4719027231216L741.8439768973633,361.14005074145416L746.512124915696,373.9774577918681L757.4044702918052,384.0917784982554L749.6242235945846,389.14893885144863L761.2945936404152,398.87424722297453L772.1869390165244,405.09844458075133L772.1869390165244,417.54683929630414L752.7363222734725,411.7116542733886L758.9605196312492,422.6039996494975L744.956075576252,424.9380736586638L753.5143469431946,443.9996780668547L738.7318782184753,444.38869040171573L720.8373108148675,435.05239436505076L713.0570641176469,417.54683929630414L709.1669407690368,403.1533829064459L700.6086694020936,393.42807453492003L689.7163240259849,380.97967981936677L688.160274686541,374.7554824615901L684.2701513379303,373.19943312214605L684.2701513379303,368.5312851038135L672.5997812920991,361.52906307631486L670.265707282933,351.0257300350669L671.821756622377,336.24326131034763L674.9338553012657,329.63005161771036L671.821756622377,326.12894060396104L667.1536086040451,324.5728912645171L660.9294112462685,317.5706692370178L651.5931152096032,313.2915335535465L631.3644737968293,305.1222745214652L618.9160790812767,297.3420278242446L598.6874376685029,291.1178304664679L580.792870264895,275.16832473716534L585.4610182832276,273.6122753977213L575.3466975768404,264.2759793610562L574.5686729071184,257.27375733355746L561.3422535218431,253.77264631980813L554.3400314943444,263.10894235647345L548.1158341365679,255.71770799411343L548.1158341365679,248.32647363175363L548.8938588062905,247.93746129689282L553.2319695954707,246.3881360150425L898.751381373287,246.3881360150425ZM529.1554680963702,246.3881360150425L519.3289213568513,250.66054764092019L520.1069460265734,261.16388068216816L517.7728720174074,267.38807803994473L524.7750940449059,278.2804234160534L545.0037354576798,289.17276879216274L555.896080833789,307.06733619576994L580.0148455951729,324.5728912645171L597.1313883290583,324.5728912645171L602.5775610171129,329.2410392828491L596.3533636593362,333.5201749663204L615.8039804023881,341.300421663541L631.3644737968293,347.91363135617905L650.0370658701593,359.19498906714887L652.3711398793253,363.08511241575945L648.4810165307152,370.86535911298006L636.032621815162,360.7510384065929L617.360029741832,357.2499273928436L608.0237337051675,371.25437144784075L623.5842270996087,379.03461814506136L621.2501530904427,390.31597585603197L612.6918817235,391.872025195476L601.0215116776689,410.1556049339446L591.6852156410042,412.10066660824964L591.6852156410042,405.4874569156119L596.3533636593362,393.8170868697813L601.0215116776689,389.14893885144863L592.4632403107262,376.70054413589537L586.2390429529496,365.80819875978625L576.902746916285,363.08511241575945L570.6785495585084,353.74881637909436L556.6741055035111,349.85869303048423L547.3378094668459,340.9114093286803L530.9992914026826,339.74437232409696L514.6607733385193,330.01906395257106L494.43213192574547,316.01461989757377L479.6496632010256,303.5662251820206L473.4254658432496,282.170546764664L462.53312046714035,279.4474604206366L444.6385530635325,272.4452383931381L435.3022570268679,275.16832473716534L422.85386231131463,285.2826454435519L413.51756627465,286.83869478299664L394.0669495315981,299.28708949854934L351.27559269688436,293.451904475634L320.15460590800126,300.45412650313256L317.04250722911326,313.2915335535465L318.5985565685572,325.7399282690998L298.36991515578336,340.1333846589582L270.3610270457889,344.8015326772903L268.8049777063449,352.19276703965033L254.80053365134762,364.2521494203422L247.02028695412702,381.75770448908884L255.57855832106964,394.206099204642L243.13016360551637,403.5423952413066L238.4620155871844,417.54683929630414L222.1234975230205,422.21498731463646L206.56300412857922,438.5535053788001L179.33214068830677,438.9425177136611L158.32547460581088,438.5535053788001L145.0990552205356,446.3337520760207L136.54078385359304,454.50301110810256L126.42646314720577,452.55794943379726L117.86819178026315,445.1667150714377L111.64399442248651,432.71832035588443L91.41535300971265,429.60622167699614L82.85708164277003,435.05239436505076L79.99999999999983,434.2360853242592L79.99999999999983,285.93986682128724L79.99999999999983,285.93986682128724L80.52300763360398,285.6716577784133L106.97584640415448,289.5617811270233L135.76275918387103,289.5617811270233L159.1034992755329,293.06289214077253L176.99806667914078,292.2848674710507L212.0091768166339,292.67387980591195L222.9015221927425,279.836472755498L225.91488586305402,246.3881360150425L529.1554680963702,246.3881360150425Z" style="stroke: none; fill: rgb(229, 236, 246); fill-opacity: 1;"/></g><g class="layer coastlines"><path d="M965.1370571075979,466.56239348879467L980.6975505020392,466.9514058236556L1000.148167245091,460.33819613101787L985.3656985203718,469.67449216768296L987.6997725295378,475.12066485573746L965.91508177732,484.06794855754106L955.0227364012108,481.3448622135138L949.576563713156,472.78659084657124L962.0249584287094,471.61955384198825L965.1370571075979,466.56239348879467M821.2024932090148,468.50745516309996L818.0903945301262,474.7316525208762L786.9694077412437,476.6767141951815L787.7474324109656,473.17560318143217L761.2945936404152,468.8964674979609L765.1847169890258,459.5601714612959L776.8550870348564,466.9514058236556L793.9716297687423,465.7843688190726L809.5321231631835,467.3404181585166L809.5321231631835,470.84152917226595L821.2024932090148,468.50745516309996M440.7484297149225,347.52461902131756L451.6407750910311,340.52239699381903L464.86719447630634,356.0828903882609L461.75509579741833,384.4807908331161L451.6407750910311,383.3137538285333L443.0825037240885,390.31597585603197L435.3022570268679,384.86980316797735L433.74620768742386,358.4169643974269L429.07805966909126,346.357582016735L440.7484297149225,347.52461902131756M441.52645438464447,310.17943487465845L455.53089843964176,301.6211635077159L459.42102178825235,320.29375558104505L452.4187997607537,337.0212859800697L442.3044790543665,332.7421502965984L437.6363310360339,317.9596815718792L441.52645438464447,310.17943487465845M571.4565742282304,407.04350625505595L588.5731169621156,405.09844458075133L580.792870264895,421.82597497977554L583.9049689437836,428.82819700727407L579.236820925451,439.7205423833831L562.8983028612878,431.55128335130144L552.0059574851784,429.2172093421351L521.662995366018,418.3248639660262L524.7750940449059,407.4325185899173L549.6718834760125,409.3775802642226L571.4565742282304,407.04350625505595M1063.9461901623008,266.2210410353615L1074,269.5199473883566M79.99999999999983,506.48903049301L87.52522966110257,503.12955296573205L103.86374772526591,494.182269263928L117.86819178026315,471.61955384198825L124.87041380776179,458.3931344567129L140.43090720220306,458.3931344567129L153.65732658747828,467.72943049337766L173.88596800025215,466.17338115393363L196.44868342219263,470.84152917226595L205.78497945885726,471.2305415071269L226.79164554135315,459.5601714612959L250.13238563301502,455.67004811268555L263.35880501829024,446.7227644108817L284.3654711007861,440.1095547182441L320.9326305777239,436.21943136963364L356.721765384939,434.66338203018984L367.61411076104764,437.7754807090781L387.8427521738215,429.2172093421351L411.183492265484,429.2172093421351L419.74176363242657,433.88535736046776L434.5242323571459,432.71832035588443L458.6429971185297,424.16004898894175L473.4254658432496,426.4941229981081L472.647441173527,437.3864683742171L491.32003324685684,429.60622167699614L492.87608258630087,433.88535736046776L481.98373721019226,444.38869040171573L481.98373721019226,454.50301110810256L488.98595923769085,459.5601714612959L486.65188522852486,478.2327635346255L471.869416503805,489.12510891073464L476.53756452213764,501.18449129142675L487.4299098982469,501.5735036262877L492.87608258630087,511.6878243326746L501.4343539532441,515.1889353464239L526.33114338435,522.5801697087835L535.6674394210152,520.6351080344784L553.5620068246225,524.1362190482279L582.348919604339,533.8615274197538L592.4632403107262,553.3121441628053L611.9138570537781,557.2022675114157L642.2568191729387,566.5385635480806L657.9752645882205,573.6118639849575M671.9676198155753,573.6118639849575L675.7118799709876,571.5957239012739L685.8262006773743,561.4814031948873L681.1580526590424,545.1428851307237L688.160274686541,534.6395520894758L703.7207680809822,524.5252313830889L718.5032368057015,521.4131327042005L747.2901495854179,525.6922683876719L755.0703962826386,535.4175767591978L762.8506429798592,535.4175767591978L769.8528650073579,539.3077001078082L791.6375557595763,541.6417741169744L796.3057037779083,549.033008479334L825.0926165576248,548.643996144473L846.0992826401213,554.4791811673887L867.8839733923392,560.703378525165L877.9982940987259,564.2044895389143L894.3368121628891,557.2022675114157L902.8950835298323,550.9780701536395L922.3457002728842,549.422020814195L937.9061936673254,552.1451071582223L943.3523663553801,562.6484401994703L948.798539043434,555.6462181719717L965.91508177732,560.703378525165L983.0316245112053,561.8704155297484L993.1459452175925,556.4242428416937L999.3701425753691,549.422020814195L997.8140932359245,548.254983809612L1004.038290593701,538.140663103225L1007.9284139423117,521.8021450390615L1011.0405126211997,516.3559723510072L1011.8185372909218,515.9669600161459L1019.5987839881429,498.4614049473994L1030.4911293642515,483.2899238878191L1030.4911293642515,482.51189921809714L1028.9350800248076,465.7843688190726L1034.3812527128623,457.2260974521296L1025.8229813459195,447.11177674574276L1034.3812527128623,439.33153004852215L1021.1548333275869,440.8875793879664L1003.260265923979,436.21943136963364L988.4777971992598,448.278813750326L955.0227364012108,451.00190009435323L937.9061936673254,439.33153004852215L914.5654535756629,438.5535053788001L909.8973055573309,447.500789080604L894.3368121628891,450.22387542463105L874.1081707501157,438.5535053788001L849.9894059887313,438.9425177136611L837.5410112731781,417.54683929630414L821.2024932090148,405.4874569156119L832.0948385851234,388.75992651658737L818.0903945301262,378.2565934753394L842.2091592915107,357.63893972770484L875.6642200895599,356.8609150579829L885.0005161262244,340.52239699381903L926.2358236214943,343.2454833378463L951.9106377223227,329.2410392828491L976.8074271534285,323.0168419250725L1012.5965619606443,322.62782959021183L1031.762198973122,330.1406924419765L1050.7197707770256,337.79931064979166L1074,344.20137368611006M1074,269.5199473883566L1063.9461901623008,266.2210410353615L1045.2735980889709,253.38363398494744L1060.8340914834127,249.8825229711981L1064.3284784395682,246.3881360150425M1012.8504367522994,246.3881360150425L1020.3768086578649,249.8825229711981L1042.1614994100828,248.7154859666149L1038.2713760614722,256.1067203289749L1014.1526113000883,259.9968436775848L985.3656985203718,272.4452383931381L972.9173038048186,268.1661027096668L977.5854518231513,258.0517820032795L954.2447117314887,251.82758464550284L958.1348350800993,247.54844896203156L961.310428408701,246.3881360150425M898.751381373287,246.3881360150425L892.7807628234451,252.21659698036422L892.7807628234451,258.0517820032795L882.6664421170585,262.7199300216122L875.6642200895599,260.7748683473068L870.2180474015051,286.83869478299664L858.5476773556738,295.7859784848L850.7674306584533,310.9574595443805L857.7696526859519,323.4058542599338L860.1037266951187,331.57511329201566L879.5543434381698,338.5773353195143L875.6642200895599,344.02350800756824L849.9894059887313,345.1905450121516L840.6531099520666,351.80375470478884L822.7585425484588,363.47412475062015L815.7563205209601,353.35980404423356L815.7563205209601,349.0806683607623L802.5299011356849,348.30264369103963L791.6375557595763,346.357582016735L765.1847169890258,351.80375470478884L779.967185713745,364.2521494203422L769.0748403376358,367.75326043409154L757.4044702918052,367.75326043409154L745.734100245974,356.4719027231216L741.8439768973633,361.14005074145416L746.512124915696,373.9774577918681L757.4044702918052,384.0917784982554L749.6242235945846,389.14893885144863L761.2945936404152,398.87424722297453L772.1869390165244,405.09844458075133L772.1869390165244,417.54683929630414L752.7363222734725,411.7116542733886L758.9605196312492,422.6039996494975L744.956075576252,424.9380736586638L753.5143469431946,443.9996780668547L738.7318782184753,444.38869040171573L720.8373108148675,435.05239436505076L713.0570641176469,417.54683929630414L709.1669407690368,403.1533829064459L700.6086694020936,393.42807453492003L689.7163240259849,380.97967981936677L688.160274686541,374.7554824615901L684.2701513379303,373.19943312214605L684.2701513379303,368.5312851038135L672.5997812920991,361.52906307631486L670.265707282933,351.0257300350669L671.821756622377,336.24326131034763L674.9338553012657,329.63005161771036L671.821756622377,326.12894060396104L667.1536086040451,324.5728912645171L660.9294112462685,317.5706692370178L651.5931152096032,313.2915335535465L631.3644737968293,305.1222745214652L618.9160790812767,297.3420278242446L598.6874376685029,291.1178304664679L580.792870264895,275.16832473716534L585.4610182832276,273.6122753977213L575.3466975768404,264.2759793610562L574.5686729071184,257.27375733355746L561.3422535218431,253.77264631980813L554.3400314943444,263.10894235647345L548.1158341365679,255.71770799411343L548.1158341365679,248.32647363175363L548.8938588062905,247.93746129689282L553.2319695954707,246.3881360150425M529.1554680963702,246.3881360150425L519.3289213568513,250.66054764092019L520.1069460265734,261.16388068216816L517.7728720174074,267.38807803994473L524.7750940449059,278.2804234160534L545.0037354576798,289.17276879216274L555.896080833789,307.06733619576994L580.0148455951729,324.5728912645171L597.1313883290583,324.5728912645171L602.5775610171129,329.2410392828491L596.3533636593362,333.5201749663204L615.8039804023881,341.300421663541L631.3644737968293,347.91363135617905L650.0370658701593,359.19498906714887L652.3711398793253,363.08511241575945L648.4810165307152,370.86535911298006L636.032621815162,360.7510384065929L617.360029741832,357.2499273928436L608.0237337051675,371.25437144784075L623.5842270996087,379.03461814506136L621.2501530904427,390.31597585603197L612.6918817235,391.872025195476L601.0215116776689,410.1556049339446L591.6852156410042,412.10066660824964L591.6852156410042,405.4874569156119L596.3533636593362,393.8170868697813L601.0215116776689,389.14893885144863L592.4632403107262,376.70054413589537L586.2390429529496,365.80819875978625L576.902746916285,363.08511241575945L570.6785495585084,353.74881637909436L556.6741055035111,349.85869303048423L547.3378094668459,340.9114093286803L530.9992914026826,339.74437232409696L514.6607733385193,330.01906395257106L494.43213192574547,316.01461989757377L479.6496632010256,303.5662251820206L473.4254658432496,282.170546764664L462.53312046714035,279.4474604206366L444.6385530635325,272.4452383931381L435.3022570268679,275.16832473716534L422.85386231131463,285.2826454435519L413.51756627465,286.83869478299664L394.0669495315981,299.28708949854934L351.27559269688436,293.451904475634L320.15460590800126,300.45412650313256L317.04250722911326,313.2915335535465L318.5985565685572,325.7399282690998L298.36991515578336,340.1333846589582L270.3610270457889,344.8015326772903L268.8049777063449,352.19276703965033L254.80053365134762,364.2521494203422L247.02028695412702,381.75770448908884L255.57855832106964,394.206099204642L243.13016360551637,403.5423952413066L238.4620155871844,417.54683929630414L222.1234975230205,422.21498731463646L206.56300412857922,438.5535053788001L179.33214068830677,438.9425177136611L158.32547460581088,438.5535053788001L145.0990552205356,446.3337520760207L136.54078385359304,454.50301110810256L126.42646314720577,452.55794943379726L117.86819178026315,445.1667150714377L111.64399442248651,432.71832035588443L91.41535300971265,429.60622167699614L82.85708164277003,435.05239436505076L79.99999999999983,434.2360853242592M79.99999999999983,285.93986682128724L80.52300763360398,285.6716577784133L106.97584640415448,289.5617811270233L135.76275918387103,289.5617811270233L159.1034992755329,293.06289214077253L176.99806667914078,292.2848674710507L212.0091768166339,292.67387980591195L222.9015221927425,279.836472755498L225.91488586305402,246.3881360150425" style="fill: none; stroke-miterlimit: 2; stroke: rgb(68, 68, 68); stroke-opacity: 1; stroke-width: 1px;"/></g><g class="layer backplot"><g class="choroplethlayer"><g class="trace choropleth"><path class="choroplethlocation" fill="rgb(8, 48, 107)" d="M79.99999999999983,285.93986682128724L80.52300763360398,285.6716577784133L106.97584640415448,289.5617811270233L135.76275918387103,289.5617811270233L159.1034992755329,293.06289214077253L176.99806667914078,292.2848674710507L212.0091768166339,292.67387980591195L220.56744818357652,301.2321511728546L260.24670633940224,310.9574595443805L268.0269530366229,306.28931152604787L292.1457177980068,316.01461989757377L317.04250722911326,313.2915335535465L318.5985565685572,325.7399282690998L298.36991515578336,340.1333846589582L270.3610270457889,344.8015326772903L268.8049777063449,352.19276703965033L254.80053365134762,364.2521494203422L247.02028695412702,381.75770448908884L255.57855832106964,394.206099204642L243.13016360551637,403.5423952413066L238.4620155871844,417.54683929630414L222.1234975230205,422.21498731463646L206.56300412857922,438.5535053788001L179.33214068830677,438.9425177136611L158.32547460581088,438.5535053788001L145.0990552205356,446.3337520760207L136.54078385359304,454.50301110810256L126.42646314720577,452.55794943379726L117.86819178026315,445.1667150714377L111.64399442248651,432.71832035588443L91.41535300971265,429.60622167699614L91.41535300971265,429.60622167699614L89.85930367026862,422.21498731463646L97.63955036748928,414.04572828255493L100.7516490463779,408.2105432596393L93.74942701887926,401.9863459018626L99.19559970693331,387.5928895120047L90.63732833999063,374.7554824615901L99.97362437665589,373.19943312214605L100.7516490463779,362.6961000808982L104.64177239498792,359.58400140201013L104.64177239498792,342.8564710029857L114.75609310137509,337.0212859800697L108.53189574359851,326.12894060396104L96.08350102804525,325.3509159342391L92.1933776794346,328.07400227826633L79.99999999999983,328.07400227826633L79.99999999999983,285.93986682128724Z" style="stroke: rgb(68, 68, 68); stroke-opacity: 1; stroke-width: 1px; opacity: 1;"/><path class="choroplethlocation" fill="rgb(86, 160, 206)" d="M821.2024932090148,468.50745516309996L818.0903945301262,474.7316525208762L786.9694077412437,476.6767141951815L787.7474324109656,473.17560318143217L761.2945936404152,468.8964674979609L765.1847169890258,459.5601714612959L776.8550870348564,466.9514058236556L793.9716297687423,465.7843688190726L809.5321231631835,467.3404181585166L809.5321231631835,470.84152917226595ZM748.8461989248619,337.79931064979166L765.1847169890258,338.5773353195143L782.301259722911,332.7421502965984L797.0837284476304,340.1333846589582L817.3123698604043,338.1883229846529L817.3123698604043,327.2959776085438L827.4266905667914,333.1311626314597L821.2024932090148,346.357582016735L815.7563205209601,349.0806683607623L802.5299011356849,348.30264369103963L791.6375557595763,346.357582016735L765.1847169890258,351.80375470478884L779.967185713745,364.2521494203422L769.0748403376358,367.75326043409154L757.4044702918052,367.75326043409154L745.734100245974,356.4719027231216L741.8439768973633,361.14005074145416L746.512124915696,373.9774577918681L757.4044702918052,384.0917784982554L749.6242235945846,389.14893885144863L761.2945936404152,398.87424722297453L772.1869390165244,405.09844458075133L772.1869390165244,417.54683929630414L752.7363222734725,411.7116542733886L758.9605196312492,422.6039996494975L744.956075576252,424.9380736586638L753.5143469431946,443.9996780668547L738.7318782184753,444.38869040171573L720.8373108148675,435.05239436505076L713.0570641176469,417.54683929630414L709.1669407690368,403.1533829064459L700.6086694020936,393.42807453492003L689.7163240259849,380.97967981936677L688.160274686541,374.7554824615901L698.2745953929275,364.2521494203422L699.8306447323716,357.2499273928436L706.8328667598703,354.1378287139556L706.8328667598703,348.691656025901L720.8373108148675,346.7465943515956L729.3955821818107,342.07844633326374L741.0659522276413,342.4674586681243L744.956075576252,338.5773353195143Z" style="stroke: rgb(68, 68, 68); stroke-opacity: 1; stroke-width: 1px; opacity: 1;"/><path class="choroplethlocation" fill="rgb(177, 210, 232)" d="M529.1554680963702,246.3881360150425L519.3289213568513,250.66054764092019L520.1069460265734,261.16388068216816L517.7728720174074,267.38807803994473L524.7750940449059,278.2804234160534L545.0037354576798,289.17276879216274L555.896080833789,307.06733619576994L580.0148455951729,324.5728912645171L597.1313883290583,324.5728912645171L602.5775610171129,329.2410392828491L596.3533636593362,333.5201749663204L615.8039804023881,341.300421663541L631.3644737968293,347.91363135617905L650.0370658701593,359.19498906714887L652.3711398793253,363.08511241575945L648.4810165307152,370.86535911298006L636.032621815162,360.7510384065929L617.360029741832,357.2499273928436L608.0237337051675,371.25437144784075L623.5842270996087,379.03461814506136L621.2501530904427,390.31597585603197L612.6918817235,391.872025195476L601.0215116776689,410.1556049339446L591.6852156410042,412.10066660824964L591.6852156410042,405.4874569156119L596.3533636593362,393.8170868697813L601.0215116776689,389.14893885144863L592.4632403107262,376.70054413589537L586.2390429529496,365.80819875978625L576.902746916285,363.08511241575945L570.6785495585084,353.74881637909436L556.6741055035111,349.85869303048423L547.3378094668459,340.9114093286803L530.9992914026826,339.74437232409696L514.6607733385193,330.01906395257106L494.43213192574547,316.01461989757377L479.6496632010256,303.5662251820206L473.4254658432496,282.170546764664L462.53312046714035,279.4474604206366L444.6385530635325,272.4452383931381L435.3022570268679,275.16832473716534L422.85386231131463,285.2826454435519L413.51756627465,286.83869478299664L415.851640283816,277.50239874633144L404.18127023798536,274.7793124023041L398.73509754993074,258.0517820032795L406.51534424715135,251.43857231064214L402.1863988509231,246.3881360150425L529.1554680963702,246.3881360150425ZM571.4565742282304,407.04350625505595L588.5731169621156,405.09844458075133L580.792870264895,421.82597497977554L583.9049689437836,428.82819700727407L579.236820925451,439.7205423833831L562.8983028612878,431.55128335130144L552.0059574851784,429.2172093421351L521.662995366018,418.3248639660262L524.7750940449059,407.4325185899173L549.6718834760125,409.3775802642226ZM440.7484297149225,347.52461902131756L451.6407750910311,340.52239699381903L464.86719447630634,356.0828903882609L461.75509579741833,384.4807908331161L451.6407750910311,383.3137538285333L443.0825037240885,390.31597585603197L435.3022570268679,384.86980316797735L433.74620768742386,358.4169643974269L429.07805966909126,346.357582016735Z" style="stroke: rgb(68, 68, 68); stroke-opacity: 1; stroke-width: 1px; opacity: 1;"/><path class="choroplethlocation" fill="rgb(223, 236, 247)" d="M960.4689090892653,471.61955384198825L964.3590324378758,472.78659084657124L969.8052051259299,471.2305415071269L974.4733531442625,471.2305415071269L976.0294024837065,472.78659084657124L976.0294024837065,474.7316525208762L977.5854518231513,473.95362785115424L980.6975505020392,474.3426401860153L984.5876738506498,472.78659084657124L986.9217478598158,473.5646155162932L987.6997725295378,475.12066485573746L965.91508177732,484.06794855754106L955.0227364012108,481.3448622135138L949.576563713156,472.78659084657124Z" style="stroke: rgb(68, 68, 68); stroke-opacity: 1; stroke-width: 1px; opacity: 1;"/><path class="choroplethlocation" fill="rgb(247, 251, 255)" style="stroke: rgb(68, 68, 68); stroke-opacity: 1; stroke-width: 1px; opacity: 1;"/></g></g></g><g class="layer lakes"><path style="stroke: none; fill: rgb(255, 255, 255); fill-opacity: 1;"/></g><g class="layer frontplot"><g class="scatterlayer"/></g></g></g><g class="funnelarealayer"/><g class="pielayer"/><g class="iciclelayer"/><g class="treemaplayer"/><g class="sunburstlayer"/><g class="glimages"/><defs id="topdefs-dd3c6a"><g class="clips"/></defs><g class="layer-above"><g class="imagelayer"/><g class="shapelayer"/></g><g class="infolayer"><g class="cbcoloraxis colorbar" transform="translate(80,100)"><rect class="cbbg" x="1014" y="0" width="94.40625" height="620" style="fill: rgb(0, 0, 0); fill-opacity: 0; stroke: rgb(68, 68, 68); stroke-opacity: 1; stroke-width: 0;"/><g class="cbfills" transform="translate(0,32)"><rect class="cbfill gradient_filled" style="fill: url('#gdd3c6a-cbcoloraxis');" x="1024" y="0" width="30" height="578"/></g><g class="cblines" transform="translate(0,32)"/><g class="cbaxis crisp" transform="translate(0,-100)"><g class="ycbcoloraxistick"><text text-anchor="start" x="1056.9" y="4.199999999999999" transform="translate(0,632.3399999999999)" style="font-family: 'Open Sans', verdana, arial, sans-serif; font-size: 12px; fill: rgb(42, 63, 95); fill-opacity: 1; white-space: pre; opacity: 1;">2k</text></g><g class="ycbcoloraxistick"><text text-anchor="start" x="1056.9" y="4.199999999999999" style="font-family: 'Open Sans', verdana, arial, sans-serif; font-size: 12px; fill: rgb(42, 63, 95); fill-opacity: 1; white-space: pre; opacity: 1;" transform="translate(0,551.99)">4k</text></g><g class="ycbcoloraxistick"><text text-anchor="start" x="1056.9" y="4.199999999999999" style="font-family: 'Open Sans', verdana, arial, sans-serif; font-size: 12px; fill: rgb(42, 63, 95); fill-opacity: 1; white-space: pre; opacity: 1;" transform="translate(0,471.64)">6k</text></g><g class="ycbcoloraxistick"><text text-anchor="start" x="1056.9" y="4.199999999999999" style="font-family: 'Open Sans', verdana, arial, sans-serif; font-size: 12px; fill: rgb(42, 63, 95); fill-opacity: 1; white-space: pre; opacity: 1;" transform="translate(0,391.29)">8k</text></g><g class="ycbcoloraxistick"><text text-anchor="start" x="1056.9" y="4.199999999999999" style="font-family: 'Open Sans', verdana, arial, sans-serif; font-size: 12px; fill: rgb(42, 63, 95); fill-opacity: 1; white-space: pre; opacity: 1;" transform="translate(0,310.94)">10k</text></g><g class="ycbcoloraxistick"><text text-anchor="start" x="1056.9" y="4.199999999999999" style="font-family: 'Open Sans', verdana, arial, sans-serif; font-size: 12px; fill: rgb(42, 63, 95); fill-opacity: 1; white-space: pre; opacity: 1;" transform="translate(0,230.59)">12k</text></g><g class="ycbcoloraxistick"><text text-anchor="start" x="1056.9" y="4.199999999999999" style="font-family: 'Open Sans', verdana, arial, sans-serif; font-size: 12px; fill: rgb(42, 63, 95); fill-opacity: 1; white-space: pre; opacity: 1;" transform="translate(0,150.24)">14k</text></g></g><g class="cbtitleunshift" transform="translate(-80,-100)"><g class="cbtitle" transform=""><text class="ycbcoloraxistitle" x="1103.88" y="123.5" text-anchor="start" style="font-family: 'Open Sans', verdana, arial, sans-serif; font-size: 14px; fill: rgb(42, 63, 95); opacity: 1; font-weight: normal; white-space: pre;">individuals</text></g></g><rect class="cboutline" x="1024" y="32" width="30" height="578" style="stroke: rgb(68, 68, 68); stroke-opacity: 1; fill: none; stroke-width: 0;"/></g><g class="g-gtitle"><text class="gtitle" x="60" y="50" text-anchor="start" dy="0em" style="font-family: 'Open Sans', verdana, arial, sans-serif; font-size: 17px; fill: rgb(42, 63, 95); opacity: 1; font-weight: normal; white-space: pre;">Mediterranean Situation Arrivals by Country</text></g></g></svg>